<mxfile host="app.diagrams.net" modified="2023-02-25T20:24:44.169Z" agent="5.0 (Windows NT 10.0; Win64; x64) AppleWebKit/537.36 (KHTML, like Gecko) Chrome/110.0.0.0 Safari/537.36" etag="uuDeZFoI5ziRAIp_Wb-B" version="20.8.20" type="github" pages="2">
  <diagram name="Page-1" id="7j1ngm0fmsIptOdnjCNE">
    <mxGraphModel dx="3754" dy="3436" grid="1" gridSize="10" guides="1" tooltips="1" connect="1" arrows="1" fold="1" page="1" pageScale="1" pageWidth="827" pageHeight="1169" math="0" shadow="0">
      <root>
        <mxCell id="0" />
        <mxCell id="1" parent="0" />
        <mxCell id="9sq6c23NFKgK6vMcmQ4V-1" value="" style="html=1;overflow=block;blockSpacing=1;whiteSpace=wrap;fontSize=13;spacing=9;strokeColor=#5e5e5e;strokeOpacity=100;fillOpacity=0;rounded=1;absoluteArcSize=1;arcSize=9;fillColor=#000000;dashed=1;fixDash=1;strokeWidth=3;lucidId=3wAk7zQ8qskn;" parent="1" vertex="1">
          <mxGeometry x="515" y="2595" width="320" height="236" as="geometry" />
        </mxCell>
        <mxCell id="9sq6c23NFKgK6vMcmQ4V-2" value="Process" style="html=1;overflow=block;blockSpacing=1;whiteSpace=wrap;fontSize=16.7;fontColor=#333333;spacing=9;strokeColor=#5e5e5e;strokeOpacity=100;fillOpacity=0;rounded=1;absoluteArcSize=1;arcSize=9;fillColor=#000000;dashed=1;fixDash=1;strokeWidth=3;lucidId=StAkObE~lP-K;" parent="1" vertex="1">
          <mxGeometry x="440" y="1710" width="302" height="225" as="geometry" />
        </mxCell>
        <mxCell id="9sq6c23NFKgK6vMcmQ4V-3" value="" style="html=1;overflow=block;blockSpacing=1;whiteSpace=wrap;fontSize=13;spacing=9;strokeColor=#5e5e5e;strokeOpacity=100;fillOpacity=0;rounded=1;absoluteArcSize=1;arcSize=9;fillColor=#000000;dashed=1;fixDash=1;strokeWidth=2.3;lucidId=_7hksIq2fGhR;" parent="1" vertex="1">
          <mxGeometry x="-330" y="600" width="330" height="555" as="geometry" />
        </mxCell>
        <mxCell id="9sq6c23NFKgK6vMcmQ4V-4" value="" style="html=1;overflow=block;blockSpacing=1;whiteSpace=wrap;fontSize=13;spacing=9;strokeColor=#5e5e5e;strokeOpacity=100;fillOpacity=0;rounded=1;absoluteArcSize=1;arcSize=9;fillColor=#000000;dashed=1;fixDash=1;strokeWidth=2.3;lucidId=t9hkmIDeYAXR;" parent="1" vertex="1">
          <mxGeometry x="443" y="1030" width="300" height="320" as="geometry" />
        </mxCell>
        <mxCell id="9sq6c23NFKgK6vMcmQ4V-5" value="" style="html=1;overflow=block;blockSpacing=1;whiteSpace=wrap;fontSize=13;spacing=9;strokeColor=#5e5e5e;strokeOpacity=100;fillOpacity=0;rounded=1;absoluteArcSize=1;arcSize=9;fillColor=#000000;dashed=1;fixDash=1;strokeWidth=2.3;lucidId=b9hk5UOrEKCi;" parent="1" vertex="1">
          <mxGeometry x="30" y="600" width="360" height="465" as="geometry" />
        </mxCell>
        <mxCell id="9sq6c23NFKgK6vMcmQ4V-6" value="" style="html=1;overflow=block;blockSpacing=1;whiteSpace=wrap;fontSize=13;spacing=9;strokeColor=#5e5e5e;strokeOpacity=100;fillOpacity=0;rounded=1;absoluteArcSize=1;arcSize=9;fillColor=#000000;dashed=1;fixDash=1;strokeWidth=2.3;lucidId=S-hkXcKl7Xl7;" parent="1" vertex="1">
          <mxGeometry x="765" y="592" width="300" height="263" as="geometry" />
        </mxCell>
        <mxCell id="9sq6c23NFKgK6vMcmQ4V-7" value="" style="html=1;overflow=block;blockSpacing=1;whiteSpace=wrap;fontSize=13;spacing=9;strokeColor=#5e5e5e;strokeOpacity=100;fillOpacity=0;rounded=1;absoluteArcSize=1;arcSize=9;fillColor=#000000;dashed=1;fixDash=1;strokeWidth=2.3;lucidId=F.hk3DGBNLS3;" parent="1" vertex="1">
          <mxGeometry x="-915" y="600" width="480" height="270" as="geometry" />
        </mxCell>
        <mxCell id="9sq6c23NFKgK6vMcmQ4V-8" value="" style="html=1;overflow=block;blockSpacing=1;whiteSpace=wrap;fontSize=13;spacing=9;strokeColor=#5e5e5e;strokeOpacity=100;fillOpacity=59;rounded=1;absoluteArcSize=1;arcSize=9;fillColor=#e5e5e5;dashed=1;fixDash=1;strokeWidth=2.3;lucidId=-SxkueI.cJw~;" parent="1" vertex="1">
          <mxGeometry x="810" y="1671" width="300" height="345" as="geometry" />
        </mxCell>
        <mxCell id="9sq6c23NFKgK6vMcmQ4V-9" value="" style="html=1;overflow=block;blockSpacing=1;whiteSpace=wrap;fontSize=13;spacing=9;strokeColor=#5e5e5e;strokeOpacity=100;fillOpacity=0;rounded=1;absoluteArcSize=1;arcSize=9;fillColor=#000000;dashed=1;fixDash=1;strokeWidth=2.3;lucidId=L~hke3-~~X7w;" parent="1" vertex="1">
          <mxGeometry x="535" y="2040" width="515" height="499" as="geometry" />
        </mxCell>
        <mxCell id="9sq6c23NFKgK6vMcmQ4V-10" value="" style="html=1;overflow=block;blockSpacing=1;whiteSpace=wrap;fontSize=13;spacing=9;strokeColor=#5e5e5e;strokeOpacity=100;fillOpacity=55;rounded=1;absoluteArcSize=1;arcSize=9;fillColor=#e5e5e5;dashed=1;fixDash=1;strokeWidth=2.3;lucidId=Kcik5YpUjn-o;" parent="1" vertex="1">
          <mxGeometry x="1750" y="670" width="1470" height="1215" as="geometry" />
        </mxCell>
        <mxCell id="9sq6c23NFKgK6vMcmQ4V-11" value="" style="html=1;overflow=block;blockSpacing=1;whiteSpace=wrap;fontSize=13;spacing=9;strokeColor=#5e5e5e;strokeOpacity=100;fillOpacity=0;rounded=1;absoluteArcSize=1;arcSize=9;fillColor=#000000;dashed=1;fixDash=1;strokeWidth=2.3;lucidId=4.hk9J6-EUs4;" parent="1" vertex="1">
          <mxGeometry x="-1215" y="1187" width="1035" height="353" as="geometry" />
        </mxCell>
        <mxCell id="9sq6c23NFKgK6vMcmQ4V-12" value="" style="html=1;overflow=block;blockSpacing=1;whiteSpace=wrap;fontSize=13;spacing=9;strokeColor=#5e5e5e;strokeOpacity=100;fillOpacity=0;rounded=1;absoluteArcSize=1;arcSize=9;fillColor=#000000;dashed=1;fixDash=1;strokeWidth=2.3;lucidId=J9hk2jhzLQD2;" parent="1" vertex="1">
          <mxGeometry x="405" y="600" width="330" height="390" as="geometry" />
        </mxCell>
        <mxCell id="9sq6c23NFKgK6vMcmQ4V-13" value="" style="html=1;overflow=block;blockSpacing=1;whiteSpace=wrap;shape=image;fontSize=13;spacing=0;strokeColor=none;strokeOpacity=100;strokeWidth=0;image=https://images.lucid.app/images/2542f0c7-aa0a-4503-b6df-01deeedfece4/content;imageAspect=0;lucidId=G.dkYFzZR9EP;" parent="1" vertex="1">
          <mxGeometry x="921" y="604" width="114" height="94" as="geometry" />
        </mxCell>
        <mxCell id="9sq6c23NFKgK6vMcmQ4V-14" value="" style="html=1;overflow=block;blockSpacing=1;whiteSpace=wrap;shape=image;fontSize=13;spacing=0;strokeColor=none;strokeOpacity=100;strokeWidth=0;image=https://images.lucid.app/images/6874c566-2b5a-4d75-ac26-ff3e84c78834/content;imageAspect=0;lucidId=_~dkA7CW-xd0;" parent="1" vertex="1">
          <mxGeometry x="628" y="1041" width="84" height="84" as="geometry" />
        </mxCell>
        <mxCell id="9sq6c23NFKgK6vMcmQ4V-15" value="" style="html=1;overflow=block;blockSpacing=1;whiteSpace=wrap;shape=image;fontSize=13;spacing=0;strokeColor=none;strokeOpacity=100;strokeWidth=0;image=https://images.lucid.app/images/aee48470-7566-44ae-b299-56230bd5e5df/content;imageAspect=0;lucidId=dbekjgRp3Mci;" parent="1" vertex="1">
          <mxGeometry x="-615" y="613" width="153" height="86" as="geometry" />
        </mxCell>
        <mxCell id="9sq6c23NFKgK6vMcmQ4V-16" value="" style="html=1;overflow=block;blockSpacing=1;whiteSpace=wrap;shape=image;fontSize=13;spacing=0;strokeColor=none;strokeOpacity=100;strokeWidth=0;image=https://images.lucid.app/images/af6313d3-89e1-4a76-b820-2b84b0b78f32/content;imageAspect=0;lucidId=SbekU4CAN~GG;" parent="1" vertex="1">
          <mxGeometry x="204" y="619" width="165" height="82" as="geometry" />
        </mxCell>
        <mxCell id="9sq6c23NFKgK6vMcmQ4V-17" value="" style="html=1;overflow=block;blockSpacing=1;whiteSpace=wrap;shape=image;fontSize=13;spacing=0;strokeColor=none;strokeOpacity=100;strokeWidth=0;image=https://images.lucid.app/images/867badc6-87d6-45e8-b799-aadc03054a0c/content;imageAspect=0;lucidId=GcekVW.uf.Bs;" parent="1" vertex="1">
          <mxGeometry x="-165" y="615" width="120" height="120" as="geometry" />
        </mxCell>
        <mxCell id="9sq6c23NFKgK6vMcmQ4V-18" value="Нагрузка " style="html=1;overflow=block;blockSpacing=1;whiteSpace=wrap;fontSize=16.7;fontColor=#333333;spacing=9;strokeColor=#5e5e5e;strokeOpacity=100;rounded=1;absoluteArcSize=1;arcSize=9;strokeWidth=2.3;lucidId=eoekEpk0UQC0;" parent="1" vertex="1">
          <mxGeometry x="420" y="610" width="120" height="90" as="geometry" />
        </mxCell>
        <mxCell id="9sq6c23NFKgK6vMcmQ4V-19" value="Силовая электроника" style="html=1;overflow=block;blockSpacing=1;whiteSpace=wrap;fontSize=16.7;fontColor=#333333;spacing=9;strokeColor=#5e5e5e;strokeOpacity=100;rounded=1;absoluteArcSize=1;arcSize=9;strokeWidth=2.3;lucidId=zoekjRSxB3XX;" parent="1" vertex="1">
          <mxGeometry x="458" y="1041" width="120" height="90" as="geometry" />
        </mxCell>
        <mxCell id="9sq6c23NFKgK6vMcmQ4V-20" value="&lt;div style=&quot;display: flex; justify-content: flex-start; text-align: left; align-items: baseline; font-size: 0; line-height: 1.25;margin-top: -2px;&quot;&gt;&lt;span&gt;&lt;span style=&quot;font-size:16.7px;color:#333333;font-weight: bold;&quot;&gt;Параметры&lt;/span&gt;&lt;span style=&quot;font-size:16.7px;color:#333333;&quot;&gt;:&#xa;&lt;/span&gt;&lt;/span&gt;&lt;/div&gt;&lt;ul style=&quot;margin: 0px; padding-left: 10px;list-style-position: inside; list-style-type:disc&quot;&gt;&lt;li style=&quot;text-align:left;color:#834187;font-size:16.7px;&quot;&gt;&lt;span style=&quot;margin-left: 0px;margin-top: -2px;&quot;&gt;&lt;span style=&quot;font-size:16.7px;&quot;&gt;&lt;span style=&quot;font-size:16.7px;color:#834187;&quot;&gt;Номинальная активная мощность, кВт&lt;/span&gt;&lt;/span&gt;&lt;/span&gt;&lt;/li&gt;&lt;li style=&quot;text-align:left;color:#834187;font-size:16.7px;&quot;&gt;&lt;span style=&quot;margin-left: 0px;margin-top: -2px;&quot;&gt;&lt;span style=&quot;font-size:16.7px;color:#834187;&quot;&gt;Количество ДГУ, шт.&lt;/span&gt;&lt;/span&gt;&lt;/li&gt;&lt;li style=&quot;text-align:left;color:#834187;font-size:16.7px;&quot;&gt;&lt;span style=&quot;margin-left: 0px;margin-top: -2px;&quot;&gt;&lt;span style=&quot;font-size:16.7px;color:#834187;&quot;&gt;Стоимость на пуск, руб.&lt;/span&gt;&lt;/span&gt;&lt;/li&gt;&lt;li style=&quot;text-align:left;color:#c92d39;font-size:16.7px;&quot;&gt;&lt;span style=&quot;margin-left: 0px;margin-top: -2px;&quot;&gt;&lt;span style=&quot;font-size:16.7px;&quot;&gt;&lt;span style=&quot;font-size:16.7px;color:#c92d39;&quot;&gt;Стоимость 1 мото-часа, руб.&lt;/span&gt;&lt;/span&gt;&lt;/span&gt;&lt;/li&gt;&lt;li style=&quot;text-align:left;color:#7ab648;font-size:16.7px;&quot;&gt;&lt;span style=&quot;margin-left: 0px;margin-top: -2px;&quot;&gt;&lt;span style=&quot;font-size:16.7px;&quot;&gt;&lt;span style=&quot;font-size:16.7px;color:#7ab648;&quot;&gt;ТОИР&lt;/span&gt;&lt;/span&gt;&lt;/span&gt;&lt;/li&gt;&lt;li style=&quot;text-align:left;color:#7ab648;font-size:16.7px;&quot;&gt;&lt;span style=&quot;margin-left: 0px;margin-top: -2px;&quot;&gt;&lt;span style=&quot;font-size:16.7px;color:#7ab648;&quot;&gt;Запчасти&lt;/span&gt;&lt;/span&gt;&lt;/li&gt;&lt;li style=&quot;text-align:left;color:#7ab648;font-size:16.7px;&quot;&gt;&lt;span style=&quot;margin-left: 0px;margin-top: -2px;&quot;&gt;&lt;span style=&quot;font-size:16.7px;color:#7ab648;&quot;&gt;Стоимость замены ДГУ&lt;/span&gt;&lt;/span&gt;&lt;/li&gt;&lt;li style=&quot;text-align:left;color:#7ab648;font-size:16.7px;&quot;&gt;&lt;span style=&quot;margin-left: 0px;margin-top: -2px;&quot;&gt;&lt;span style=&quot;font-size:16.7px;color:#7ab648;&quot;&gt;Срок службы&lt;/span&gt;&lt;/span&gt;&lt;/li&gt;&lt;li style=&quot;text-align:left;color:#c92d39;font-size:16.7px;&quot;&gt;&lt;span style=&quot;margin-left: 0px;margin-top: -2px;&quot;&gt;&lt;span style=&quot;font-size:16.7px;&quot;&gt;&lt;span style=&quot;font-size:16.7px;color:#c92d39;&quot;&gt;Стоимость выработки 1 кВтч. руб.&lt;/span&gt;&lt;/span&gt;&lt;/span&gt;&lt;/li&gt;&lt;li style=&quot;text-align:left;color:#834187;font-size:16.7px;&quot;&gt;&lt;span style=&quot;margin-left: 0px;margin-top: -2px;&quot;&gt;&lt;span style=&quot;font-size:16.7px;&quot;&gt;&lt;span style=&quot;font-size:16.7px;color:#834187;&quot;&gt;Цена дизельного топлива, руб/л&lt;/span&gt;&lt;span style=&quot;font-size:16.7px;color:#7ab648;&quot;&gt;&lt;/span&gt;&lt;/span&gt;&lt;/span&gt;&lt;/li&gt;&lt;li style=&quot;text-align:left;color:#7ab648;font-size:16.7px;&quot;&gt;&lt;span style=&quot;margin-left: 0px;margin-top: -2px;&quot;&gt;&lt;span style=&quot;font-size:16.7px;color:#7ab648;&quot;&gt;Характеристики топлива&lt;/span&gt;&lt;/span&gt;&lt;/li&gt;&lt;li style=&quot;text-align:left;color:#7ab648;font-size:16.7px;&quot;&gt;&lt;span style=&quot;margin-left: 0px;margin-top: -2px;&quot;&gt;&lt;span style=&quot;font-size:16.7px;color:#7ab648;&quot;&gt;Удельный расход натурального топлива&lt;/span&gt;&lt;/span&gt;&lt;/li&gt;&lt;li style=&quot;text-align:left;color:#7ab648;font-size:16.7px;&quot;&gt;&lt;span style=&quot;margin-left: 0px;margin-top: -2px;&quot;&gt;&lt;span style=&quot;font-size:16.7px;color:#7ab648;&quot;&gt;цена масла, руб./л&lt;/span&gt;&lt;span style=&quot;font-size:16.7px;color:#834187;&quot;&gt;&lt;/span&gt;&lt;span style=&quot;font-size:16.7px;color:#333333;&quot;&gt;&lt;/span&gt;&lt;/span&gt;&lt;/li&gt;&lt;li style=&quot;text-align:left;color:#c92d39;font-size:16.7px;&quot;&gt;&lt;span style=&quot;margin-left: 0px;margin-top: -2px;&quot;&gt;&lt;span style=&quot;font-size:16.7px;&quot;&gt;&lt;span style=&quot;font-size:16.7px;color:#c92d39;&quot;&gt;КПД, %&lt;/span&gt;&lt;/span&gt;&lt;/span&gt;&lt;/li&gt;&lt;li style=&quot;text-align:left;color:#c92d39;font-size:16.7px;&quot;&gt;&lt;span style=&quot;margin-left: 0px;margin-top: -2px;&quot;&gt;&lt;span style=&quot;font-size:16.7px;color:#c92d39;&quot;&gt;Параметры нелинейности кривой расхода (КПД&#39;),%&lt;/span&gt;&lt;/span&gt;&lt;/li&gt;&lt;li style=&quot;text-align:left;color:#c92d39;font-size:16.7px;&quot;&gt;&lt;span style=&quot;margin-left: 0px;margin-top: -2px;&quot;&gt;&lt;span style=&quot;font-size:16.7px;color:#c92d39;&quot;&gt;Минимальная мощность (тех. мин), %&lt;/span&gt;&lt;span style=&quot;font-size:16.7px;color:#999999;&quot;&gt;&lt;/span&gt;&lt;/span&gt;&lt;/li&gt;&lt;li style=&quot;text-align:left;color:#7ab648;font-size:16.7px;&quot;&gt;&lt;span style=&quot;margin-left: 0px;margin-top: -2px;&quot;&gt;&lt;span style=&quot;font-size:16.7px;&quot;&gt;&lt;span style=&quot;font-size:16.7px;color:#7ab648;&quot;&gt;Минимально допустимое время работы&lt;/span&gt;&lt;/span&gt;&lt;/span&gt;&lt;/li&gt;&lt;li style=&quot;text-align:left;color:#999999;font-size:16.7px;&quot;&gt;&lt;span style=&quot;margin-left: 0px;margin-top: -2px;&quot;&gt;&lt;span style=&quot;font-size:16.7px;&quot;&gt;&lt;span style=&quot;font-size:16.7px;color:#999999;&quot;&gt;Наработка в мото-часах&lt;/span&gt;&lt;/span&gt;&lt;/span&gt;&lt;/li&gt;&lt;/ul&gt;" style="html=1;overflow=block;blockSpacing=1;whiteSpace=wrap;fontSize=13;spacing=3.8;verticalAlign=middle;strokeOpacity=0;fillOpacity=0;rounded=1;absoluteArcSize=1;arcSize=9;fillColor=#ffffff;strokeWidth=2.3;lucidId=mvekmE0KS5Wv;" parent="1" vertex="1">
          <mxGeometry x="-324" y="698" width="330" height="448" as="geometry" />
        </mxCell>
        <mxCell id="9sq6c23NFKgK6vMcmQ4V-21" value="ДГУ" style="html=1;overflow=block;blockSpacing=1;whiteSpace=wrap;fontSize=16.7;fontColor=#333333;spacing=9;strokeColor=#5e5e5e;strokeOpacity=100;rounded=1;absoluteArcSize=1;arcSize=9;strokeWidth=2.3;lucidId=lPek1tHa6tzv;" parent="1" vertex="1">
          <mxGeometry x="-315" y="615" width="120" height="90" as="geometry" />
        </mxCell>
        <mxCell id="9sq6c23NFKgK6vMcmQ4V-22" value="СНЭ" style="html=1;overflow=block;blockSpacing=1;whiteSpace=wrap;fontSize=16.7;fontColor=#333333;spacing=9;strokeColor=#5e5e5e;strokeOpacity=100;rounded=1;absoluteArcSize=1;arcSize=9;strokeWidth=2.3;lucidId=qPekFkqNnNB1;" parent="1" vertex="1">
          <mxGeometry x="47" y="607" width="120" height="90" as="geometry" />
        </mxCell>
        <mxCell id="9sq6c23NFKgK6vMcmQ4V-23" value="Тарифный калькулятор (данные по тарифам на ЭЭ и ЭМ" style="html=1;overflow=block;blockSpacing=1;whiteSpace=wrap;fontSize=16.7;fontColor=#333333;spacing=9;strokeColor=#5e5e5e;strokeOpacity=100;rounded=1;absoluteArcSize=1;arcSize=9;strokeWidth=2.3;lucidId=wQek.yac8C~W;" parent="1" vertex="1">
          <mxGeometry x="-1005" y="1293" width="240" height="118" as="geometry" />
        </mxCell>
        <mxCell id="9sq6c23NFKgK6vMcmQ4V-24" value="Сервисы  прогноза Часа Пиковой Нагрузки " style="html=1;overflow=block;blockSpacing=1;whiteSpace=wrap;fontSize=16.7;fontColor=#333333;spacing=9;strokeColor=#5e5e5e;strokeOpacity=100;rounded=1;absoluteArcSize=1;arcSize=9;strokeWidth=2.3;lucidId=wRekeiGJowTo;" parent="1" vertex="1">
          <mxGeometry x="-585" y="1295" width="180" height="118" as="geometry" />
        </mxCell>
        <mxCell id="9sq6c23NFKgK6vMcmQ4V-25" value="" style="html=1;overflow=block;blockSpacing=1;whiteSpace=wrap;ellipse;shape=cloud;fontSize=13;spacing=3.8;strokeColor=#5e5e5e;strokeOpacity=100;fillOpacity=100;rounded=1;absoluteArcSize=1;arcSize=9;fillColor=#c1e4f7;strokeWidth=2.3;lucidId=~Zekd7jv92eQ;" parent="1" vertex="1">
          <mxGeometry x="-1200" y="1218" width="120" height="90" as="geometry" />
        </mxCell>
        <mxCell id="9sq6c23NFKgK6vMcmQ4V-26" value="Подготовка данных для оптимизатора " style="html=1;overflow=block;blockSpacing=1;whiteSpace=wrap;fontSize=16.7;fontColor=#333333;spacing=9;strokeColor=#5e5e5e;strokeOpacity=100;rounded=1;absoluteArcSize=1;arcSize=9;strokeWidth=2.3;lucidId=U0ekLCVYh4~o;" parent="1" vertex="1">
          <mxGeometry x="533" y="1539" width="115" height="90" as="geometry" />
        </mxCell>
        <mxCell id="9sq6c23NFKgK6vMcmQ4V-27" value="&lt;div style=&quot;display: flex; justify-content: flex-start; text-align: left; align-items: baseline; font-size: 0; line-height: 1.25;margin-top: -2px;&quot;&gt;&lt;span&gt;&lt;span style=&quot;font-size:16.7px;color:#333333;font-weight: bold;&quot;&gt;Параметры&lt;/span&gt;&lt;span style=&quot;font-size:16.7px;color:#333333;&quot;&gt;: &#xa;&lt;/span&gt;&lt;/span&gt;&lt;/div&gt;&lt;ul style=&quot;margin: 0px; padding-left: 10px;list-style-position: inside; list-style-type:disc&quot;&gt;&lt;li style=&quot;text-align:left;color:#0c7cba;font-size:16.7px;&quot;&gt;&lt;span style=&quot;margin-left: 0px;margin-top: -2px;&quot;&gt;&lt;span style=&quot;font-size:16.7px;&quot;&gt;&lt;span style=&quot;font-size:16.7px;color:#0c7cba;&quot;&gt;Цена на электроэнергию&lt;/span&gt;&lt;/span&gt;&lt;/span&gt;&lt;/li&gt;&lt;li style=&quot;text-align:left;color:#0c7cba;font-size:16.7px;&quot;&gt;&lt;span style=&quot;margin-left: 0px;margin-top: -2px;&quot;&gt;&lt;span style=&quot;font-size:16.7px;color:#0c7cba;&quot;&gt;Цена на сетевую мощность&lt;/span&gt;&lt;/span&gt;&lt;/li&gt;&lt;li style=&quot;text-align:left;color:#0c7cba;font-size:16.7px;&quot;&gt;&lt;span style=&quot;margin-left: 0px;margin-top: -2px;&quot;&gt;&lt;span style=&quot;font-size:16.7px;color:#0c7cba;&quot;&gt;Цена на генераторную мощность&lt;/span&gt;&lt;/span&gt;&lt;/li&gt;&lt;/ul&gt;" style="html=1;overflow=block;blockSpacing=1;whiteSpace=wrap;fontSize=13;spacing=3.8;verticalAlign=middle;strokeOpacity=0;fillOpacity=0;rounded=1;absoluteArcSize=1;arcSize=9;fillColor=#ffffff;strokeWidth=2.3;lucidId=o3ekmeC969~o;" parent="1" vertex="1">
          <mxGeometry x="-1005" y="1411" width="466" height="148" as="geometry" />
        </mxCell>
        <mxCell id="9sq6c23NFKgK6vMcmQ4V-28" value="Внешняя сеть" style="html=1;overflow=block;blockSpacing=1;whiteSpace=wrap;fontSize=16.7;fontColor=#333333;spacing=9;strokeColor=#5e5e5e;strokeOpacity=100;rounded=1;absoluteArcSize=1;arcSize=9;strokeWidth=2.3;lucidId=Q7ekmBW96eN7;" parent="1" vertex="1">
          <mxGeometry x="-901" y="605" width="120" height="90" as="geometry" />
        </mxCell>
        <mxCell id="9sq6c23NFKgK6vMcmQ4V-29" value="&lt;div style=&quot;display: flex; justify-content: flex-start; text-align: left; align-items: baseline; font-size: 0; line-height: 1.25;margin-top: -2px;&quot;&gt;&lt;span&gt;&lt;span style=&quot;font-size:16.7px;color:#333333;font-weight: bold;&quot;&gt;Параметры&lt;/span&gt;&lt;span style=&quot;font-size:16.7px;color:#333333;&quot;&gt;: &#xa;&lt;/span&gt;&lt;/span&gt;&lt;/div&gt;&lt;ul style=&quot;margin: 0px; padding-left: 10px;list-style-position: inside; list-style-type:disc&quot;&gt;&lt;li style=&quot;text-align:left;color:#834187;font-size:16.7px;&quot;&gt;&lt;span style=&quot;margin-left: 0px;margin-top: -2px;&quot;&gt;&lt;span style=&quot;font-size:16.7px;&quot;&gt;&lt;span style=&quot;font-size:16.7px;color:#834187;&quot;&gt;Ценовая зона (1 или 2)&lt;/span&gt;&lt;/span&gt;&lt;/span&gt;&lt;/li&gt;&lt;li style=&quot;text-align:left;color:#834187;font-size:16.7px;&quot;&gt;&lt;span style=&quot;margin-left: 0px;margin-top: -2px;&quot;&gt;&lt;span style=&quot;font-size:16.7px;color:#834187;&quot;&gt;Регион&lt;/span&gt;&lt;/span&gt;&lt;/li&gt;&lt;li style=&quot;text-align:left;color:#834187;font-size:16.7px;&quot;&gt;&lt;span style=&quot;margin-left: 0px;margin-top: -2px;&quot;&gt;&lt;span style=&quot;font-size:16.7px;color:#834187;&quot;&gt;Сбытовая компания&lt;/span&gt;&lt;/span&gt;&lt;/li&gt;&lt;li style=&quot;text-align:left;color:#834187;font-size:16.7px;&quot;&gt;&lt;span style=&quot;margin-left: 0px;margin-top: -2px;&quot;&gt;&lt;span style=&quot;font-size:16.7px;color:#834187;&quot;&gt;Базовая ценовая категория (&lt;/span&gt;&lt;span style=&quot;font-size:16.7px;color:#999999;&quot;&gt;1, 2,&lt;/span&gt;&lt;span style=&quot;font-size:16.7px;color:#834187;&quot;&gt;3, 4,&lt;/span&gt;&lt;span style=&quot;font-size:16.7px;color:#999999;&quot;&gt;5, 6&lt;/span&gt;&lt;span style=&quot;font-size:16.7px;color:#834187;&quot;&gt;)&lt;/span&gt;&lt;/span&gt;&lt;/li&gt;&lt;li style=&quot;text-align:left;color:#834187;font-size:16.7px;&quot;&gt;&lt;span style=&quot;margin-left: 0px;margin-top: -2px;&quot;&gt;&lt;span style=&quot;font-size:16.7px;color:#834187;&quot;&gt;Тарифный уровень напряжения&lt;/span&gt;&lt;/span&gt;&lt;/li&gt;&lt;li style=&quot;text-align:left;color:#834187;font-size:16.7px;&quot;&gt;&lt;span style=&quot;margin-left: 0px;margin-top: -2px;&quot;&gt;&lt;span style=&quot;font-size:16.7px;color:#834187;&quot;&gt;Класс мощности&lt;/span&gt;&lt;/span&gt;&lt;/li&gt;&lt;li style=&quot;text-align:left;color:#834187;font-size:16.7px;&quot;&gt;&lt;span style=&quot;margin-left: 0px;margin-top: -2px;&quot;&gt;&lt;span style=&quot;font-size:16.7px;color:#834187;&quot;&gt;Год начала проекта&lt;/span&gt;&lt;span style=&quot;font-size:16.7px;color:#333333;&quot;&gt;&lt;/span&gt;&lt;/span&gt;&lt;/li&gt;&lt;/ul&gt;&lt;div style=&quot;display: flex; justify-content: flex-start; text-align: left; align-items: baseline; font-size: 0; line-height: 1.25;margin-top: -2px;&quot;&gt;&lt;span&gt;&lt;/span&gt;&lt;/div&gt;" style="html=1;overflow=block;blockSpacing=1;whiteSpace=wrap;fontSize=13;spacing=3.8;verticalAlign=middle;strokeOpacity=0;fillOpacity=0;rounded=1;absoluteArcSize=1;arcSize=9;fillColor=#ffffff;strokeWidth=2.3;lucidId=57ekaHlkeXMu;" parent="1" vertex="1">
          <mxGeometry x="-901" y="675" width="481" height="232" as="geometry" />
        </mxCell>
        <mxCell id="9sq6c23NFKgK6vMcmQ4V-30" value="&lt;div style=&quot;display: flex; justify-content: flex-start; text-align: left; align-items: baseline; font-size: 0; line-height: 1.25;margin-top: -2px;&quot;&gt;&lt;span&gt;&lt;span style=&quot;font-size:16.7px;color:#333333;font-weight: bold;&quot;&gt;Параметры&lt;/span&gt;&lt;span style=&quot;font-size:16.7px;color:#333333;&quot;&gt;:&#xa;&lt;/span&gt;&lt;/span&gt;&lt;/div&gt;&lt;ul style=&quot;margin: 0px; padding-left: 10px;list-style-position: inside; list-style-type:disc&quot;&gt;&lt;li style=&quot;text-align:left;color:#834187;font-size:16.7px;&quot;&gt;&lt;span style=&quot;margin-left: 0px;margin-top: -2px;&quot;&gt;&lt;span style=&quot;font-size:16.7px;&quot;&gt;&lt;span style=&quot;font-size:16.7px;color:#834187;&quot;&gt;КПД накопителя, %&lt;/span&gt;&lt;span style=&quot;font-size:16.7px;color:#333333;&quot;&gt;&lt;/span&gt;&lt;/span&gt;&lt;/span&gt;&lt;/li&gt;&lt;li style=&quot;text-align:left;color:#c92d39;font-size:16.7px;&quot;&gt;&lt;span style=&quot;margin-left: 0px;margin-top: -2px;&quot;&gt;&lt;span style=&quot;font-size:16.7px;&quot;&gt;&lt;span style=&quot;font-size:16.7px;color:#c92d39;&quot;&gt;КПД на заряд , %&lt;/span&gt;&lt;/span&gt;&lt;/span&gt;&lt;/li&gt;&lt;li style=&quot;text-align:left;color:#c92d39;font-size:16.7px;&quot;&gt;&lt;span style=&quot;margin-left: 0px;margin-top: -2px;&quot;&gt;&lt;span style=&quot;font-size:16.7px;color:#c92d39;&quot;&gt;КПД на разряд, %&lt;/span&gt;&lt;span style=&quot;font-size:16.7px;color:#333333;&quot;&gt;&lt;/span&gt;&lt;/span&gt;&lt;/li&gt;&lt;li style=&quot;text-align:left;color:#834187;font-size:16.7px;&quot;&gt;&lt;span style=&quot;margin-left: 0px;margin-top: -2px;&quot;&gt;&lt;span style=&quot;font-size:16.7px;&quot;&gt;&lt;span style=&quot;font-size:16.7px;color:#834187;&quot;&gt;Макс. мощность разряда, кВт&lt;/span&gt;&lt;/span&gt;&lt;/span&gt;&lt;/li&gt;&lt;li style=&quot;text-align:left;color:#7ab648;font-size:16.7px;&quot;&gt;&lt;span style=&quot;margin-left: 0px;margin-top: -2px;&quot;&gt;&lt;span style=&quot;font-size:16.7px;&quot;&gt;&lt;span style=&quot;font-size:16.7px;color:#7ab648;&quot;&gt;Максимальный ток разряда, А&lt;/span&gt;&lt;/span&gt;&lt;/span&gt;&lt;/li&gt;&lt;li style=&quot;text-align:left;color:#7ab648;font-size:16.7px;&quot;&gt;&lt;span style=&quot;margin-left: 0px;margin-top: -2px;&quot;&gt;&lt;span style=&quot;font-size:16.7px;color:#7ab648;&quot;&gt;Номинальное напряжение, В&lt;/span&gt;&lt;span style=&quot;font-size:16.7px;color:#834187;&quot;&gt;&lt;/span&gt;&lt;/span&gt;&lt;/li&gt;&lt;li style=&quot;text-align:left;color:#834187;font-size:16.7px;&quot;&gt;&lt;span style=&quot;margin-left: 0px;margin-top: -2px;&quot;&gt;&lt;span style=&quot;font-size:16.7px;color:#834187;&quot;&gt;Макс. мощность заряда, кВт&lt;/span&gt;&lt;/span&gt;&lt;/li&gt;&lt;li style=&quot;text-align:left;color:#7ab648;font-size:16.7px;&quot;&gt;&lt;span style=&quot;margin-left: 0px;margin-top: -2px;&quot;&gt;&lt;span style=&quot;font-size:16.7px;&quot;&gt;&lt;span style=&quot;font-size:16.7px;color:#7ab648;&quot;&gt;Максимальный ток заряда, А&lt;/span&gt;&lt;/span&gt;&lt;/span&gt;&lt;/li&gt;&lt;li style=&quot;text-align:left;color:#7ab648;font-size:16.7px;&quot;&gt;&lt;span style=&quot;margin-left: 0px;margin-top: -2px;&quot;&gt;&lt;span style=&quot;font-size:16.7px;color:#7ab648;&quot;&gt;Номинальное напряжение, В&lt;/span&gt;&lt;/span&gt;&lt;/li&gt;&lt;li style=&quot;text-align:left;color:#834187;font-size:16.7px;&quot;&gt;&lt;span style=&quot;margin-left: 0px;margin-top: -2px;&quot;&gt;&lt;span style=&quot;font-size:16.7px;&quot;&gt;&lt;span style=&quot;font-size:16.7px;color:#834187;&quot;&gt;Максимальная глубина разряда (DOD), %&lt;/span&gt;&lt;span style=&quot;font-size:16.7px;color:#333333;&quot;&gt;&lt;/span&gt;&lt;/span&gt;&lt;/span&gt;&lt;/li&gt;&lt;li style=&quot;text-align:left;color:#c92d39;font-size:16.7px;&quot;&gt;&lt;span style=&quot;margin-left: 0px;margin-top: -2px;&quot;&gt;&lt;span style=&quot;font-size:16.7px;&quot;&gt;&lt;span style=&quot;font-size:16.7px;color:#c92d39;&quot;&gt;Максимально допустимая энергоемкость заряда, кВт*ч&lt;/span&gt;&lt;span style=&quot;font-size:16.7px;color:#c92d39;&quot;&gt;&lt;/span&gt;&lt;/span&gt;&lt;/span&gt;&lt;/li&gt;&lt;li style=&quot;text-align:left;color:#999999;font-size:16.7px;&quot;&gt;&lt;span style=&quot;margin-left: 0px;margin-top: -2px;&quot;&gt;&lt;span style=&quot;font-size:16.7px;&quot;&gt;&lt;span style=&quot;font-size:16.7px;color:#999999;&quot;&gt;Скорость старения СНЭ, % в год&lt;/span&gt;&lt;/span&gt;&lt;/span&gt;&lt;/li&gt;&lt;li style=&quot;text-align:left;color:#999999;font-size:16.7px;&quot;&gt;&lt;span style=&quot;margin-left: 0px;margin-top: -2px;&quot;&gt;&lt;span style=&quot;font-size:16.7px;color:#999999;&quot;&gt;Скорость деградация СНЭ, % за цикл&lt;/span&gt;&lt;/span&gt;&lt;/li&gt;&lt;li style=&quot;text-align:left;color:#999999;font-size:16.7px;&quot;&gt;&lt;span style=&quot;margin-left: 0px;margin-top: -2px;&quot;&gt;&lt;span style=&quot;font-size:16.7px;color:#999999;&quot;&gt;Количество циклов&lt;/span&gt;&lt;/span&gt;&lt;/li&gt;&lt;li style=&quot;text-align:left;color:#999999;font-size:16.7px;&quot;&gt;&lt;span style=&quot;margin-left: 0px;margin-top: -2px;&quot;&gt;&lt;span style=&quot;font-size:16.7px;color:#999999;&quot;&gt;Собтсвенные нужды RedOx, кВт&lt;/span&gt;&lt;/span&gt;&lt;/li&gt;&lt;/ul&gt;" style="html=1;overflow=block;blockSpacing=1;whiteSpace=wrap;fontSize=13;spacing=3.8;verticalAlign=middle;strokeOpacity=0;fillOpacity=0;rounded=1;absoluteArcSize=1;arcSize=9;fillColor=#ffffff;strokeWidth=2.3;lucidId=nnfk.O3M~Lhb;" parent="1" vertex="1">
          <mxGeometry x="31" y="705" width="360" height="234" as="geometry" />
        </mxCell>
        <mxCell id="9sq6c23NFKgK6vMcmQ4V-31" value="ВИЭ" style="html=1;overflow=block;blockSpacing=1;whiteSpace=wrap;fontSize=16.7;fontColor=#333333;spacing=9;strokeColor=#5e5e5e;strokeOpacity=100;rounded=1;absoluteArcSize=1;arcSize=9;strokeWidth=2.3;lucidId=VofkCyWIbXY5;" parent="1" vertex="1">
          <mxGeometry x="780" y="603" width="120" height="90" as="geometry" />
        </mxCell>
        <mxCell id="9sq6c23NFKgK6vMcmQ4V-32" value="&lt;div style=&quot;display: flex; justify-content: flex-start; text-align: left; align-items: baseline; font-size: 0; line-height: 1.25;margin-top: -2px;&quot;&gt;&lt;span&gt;&lt;span style=&quot;font-size:16.7px;color:#333333;font-weight: bold;&quot;&gt;Параметры&lt;/span&gt;&lt;span style=&quot;font-size:16.7px;color:#333333;&quot;&gt;:&#xa;&lt;/span&gt;&lt;/span&gt;&lt;/div&gt;&lt;ul style=&quot;margin: 0px; padding-left: 10px;list-style-position: inside; list-style-type:disc&quot;&gt;&lt;li style=&quot;text-align:left;color:#834187;font-size:16.7px;&quot;&gt;&lt;span style=&quot;margin-left: 0px;margin-top: -2px;&quot;&gt;&lt;span style=&quot;font-size:16.7px;color:#834187;&quot;&gt;Удельная цена 1 кВт*ч емкости накопителя,&lt;/span&gt;&lt;span style=&quot;font-size:16px;color:#834187;font-style: italic;&quot;&gt;руб/кВт*ч без НДС&lt;/span&gt;&lt;span style=&quot;font-size:16.7px;color:#834187;&quot;&gt;&lt;/span&gt;&lt;/span&gt;&lt;/li&gt;&lt;li style=&quot;text-align:left;color:#834187;font-size:16.7px;&quot;&gt;&lt;span style=&quot;margin-left: 0px;margin-top: -2px;&quot;&gt;&lt;span style=&quot;font-size:16.7px;color:#834187;&quot;&gt;Удельная цена 1 кВт мощности накопителя,&lt;/span&gt;&lt;span style=&quot;font-size:16px;color:#834187;font-style: italic;&quot;&gt;руб/кВт*ч без НДС&lt;/span&gt;&lt;span style=&quot;font-size:16.7px;color:#834187;&quot;&gt;&lt;/span&gt;&lt;/span&gt;&lt;/li&gt;&lt;li style=&quot;text-align:left;color:#834187;font-size:16.7px;&quot;&gt;&lt;span style=&quot;margin-left: 0px;margin-top: -2px;&quot;&gt;&lt;span style=&quot;font-size:16.7px;color:#834187;&quot;&gt;Год ввода СНЭ, ДГУ&lt;/span&gt;&lt;/span&gt;&lt;/li&gt;&lt;li style=&quot;text-align:left;color:#999999;font-size:16.7px;&quot;&gt;&lt;span style=&quot;margin-left: 0px;margin-top: -2px;&quot;&gt;&lt;span style=&quot;font-size:16.7px;&quot;&gt;&lt;span style=&quot;font-size:16.7px;color:#999999;&quot;&gt;Год продажи накопителя энергии&lt;/span&gt;&lt;/span&gt;&lt;/span&gt;&lt;/li&gt;&lt;li style=&quot;text-align:left;color:#999999;font-size:16.7px;&quot;&gt;&lt;span style=&quot;margin-left: 0px;margin-top: -2px;&quot;&gt;&lt;span style=&quot;font-size:16.7px;color:#999999;&quot;&gt;Год замены ДГУ&lt;/span&gt;&lt;span style=&quot;font-size:16.7px;color:#7ab648;&quot;&gt;&lt;/span&gt;&lt;/span&gt;&lt;/li&gt;&lt;li style=&quot;text-align:left;color:#834187;font-size:16.7px;&quot;&gt;&lt;span style=&quot;margin-left: 0px;margin-top: -2px;&quot;&gt;&lt;span style=&quot;font-size:16.7px;&quot;&gt;&lt;span style=&quot;font-size:16.7px;color:#834187;&quot;&gt;Затраты на внедрение проекта, в т.ч. ПИР, СМР, ПНР&lt;/span&gt;&lt;span style=&quot;font-size:16px;color:#629755;font-style: italic;&quot;&gt;&lt;/span&gt;&lt;span style=&quot;font-size:16px;color:#834187;font-style: italic;&quot;&gt;% от CAPEX СНЭ&lt;/span&gt;&lt;span style=&quot;font-size:16.7px;color:#834187;&quot;&gt;&lt;/span&gt;&lt;/span&gt;&lt;/span&gt;&lt;/li&gt;&lt;li style=&quot;text-align:left;color:#834187;font-size:16.7px;&quot;&gt;&lt;span style=&quot;margin-left: 0px;margin-top: -2px;&quot;&gt;&lt;span style=&quot;font-size:16.7px;color:#834187;&quot;&gt;Затраты на обслуживание накопителя, % от стоимости в год&lt;/span&gt;&lt;/span&gt;&lt;/li&gt;&lt;li style=&quot;text-align:left;color:#7ab648;font-size:16.7px;&quot;&gt;&lt;span style=&quot;margin-left: 0px;margin-top: -2px;&quot;&gt;&lt;span style=&quot;font-size:16.7px;&quot;&gt;&lt;span style=&quot;font-size:16.7px;color:#7ab648;&quot;&gt;НДС, %&lt;/span&gt;&lt;/span&gt;&lt;/span&gt;&lt;/li&gt;&lt;li style=&quot;text-align:left;color:#7ab648;font-size:16.7px;&quot;&gt;&lt;span style=&quot;margin-left: 0px;margin-top: -2px;&quot;&gt;&lt;span style=&quot;font-size:16.7px;color:#7ab648;&quot;&gt;Налог на имущество, %&lt;/span&gt;&lt;/span&gt;&lt;/li&gt;&lt;li style=&quot;text-align:left;color:#7ab648;font-size:16.7px;&quot;&gt;&lt;span style=&quot;margin-left: 0px;margin-top: -2px;&quot;&gt;&lt;span style=&quot;font-size:16.7px;color:#7ab648;&quot;&gt;Период амортизации, лет&lt;/span&gt;&lt;span style=&quot;font-size:16.7px;color:#c92d39;&quot;&gt;&lt;/span&gt;&lt;/span&gt;&lt;/li&gt;&lt;li style=&quot;text-align:left;color:#834187;font-size:16.7px;&quot;&gt;&lt;span style=&quot;margin-left: 0px;margin-top: -2px;&quot;&gt;&lt;span style=&quot;font-size:16.7px;&quot;&gt;&lt;span style=&quot;font-size:16.7px;color:#834187;&quot;&gt;Ставка дисконтирования, %&lt;/span&gt;&lt;span style=&quot;font-size:16.7px;color:#333333;&quot;&gt;&lt;/span&gt;&lt;/span&gt;&lt;/span&gt;&lt;/li&gt;&lt;li style=&quot;text-align:left;color:#629755;font-size:16.7px;&quot;&gt;&lt;span style=&quot;margin-left: 0px;margin-top: -2px;&quot;&gt;&lt;span style=&quot;font-size:16.7px;&quot;&gt;&lt;span style=&quot;font-size:16.7px;color:#629755;&quot;&gt;Инфляция, %&lt;/span&gt;&lt;span style=&quot;font-size:16.7px;color:#0c7cba;&quot;&gt;&lt;/span&gt;&lt;/span&gt;&lt;/span&gt;&lt;/li&gt;&lt;li style=&quot;text-align:left;color:#834187;font-size:16.7px;&quot;&gt;&lt;span style=&quot;margin-left: 0px;margin-top: -2px;&quot;&gt;&lt;span style=&quot;font-size:16.7px;&quot;&gt;&lt;span style=&quot;font-size:16.7px;color:#834187;&quot;&gt;Горизонт расчета, лет&lt;/span&gt;&lt;/span&gt;&lt;/span&gt;&lt;/li&gt;&lt;li style=&quot;text-align:left;color:#834187;font-size:17.3px;&quot;&gt;&lt;span style=&quot;margin-left: 0px;margin-top: -2px;&quot;&gt;&lt;span style=&quot;font-size:13px;color:#834187;&quot;&gt;&lt;span style=&quot;font-size:17.3px;color:#834187;&quot;&gt;Стоимость интеллектуальной системы управления, руб&lt;/span&gt;&lt;span style=&quot;font-size:14px;color:#834187;&quot;&gt;&lt;/span&gt;&lt;/span&gt;&lt;/span&gt;&lt;/li&gt;&lt;/ul&gt;" style="html=1;overflow=block;blockSpacing=1;whiteSpace=wrap;fontSize=13;spacing=3.8;verticalAlign=middle;strokeOpacity=0;fillOpacity=0;rounded=1;absoluteArcSize=1;arcSize=9;fillColor=#ffffff;strokeWidth=2.3;lucidId=eygkIhlfct7L;" parent="1" vertex="1">
          <mxGeometry x="551" y="2125" width="499" height="450" as="geometry" />
        </mxCell>
        <mxCell id="9sq6c23NFKgK6vMcmQ4V-33" value="&lt;div style=&quot;display: flex; justify-content: flex-start; text-align: left; align-items: baseline; font-size: 0; line-height: 1.25;margin-top: -2px;&quot;&gt;&lt;span&gt;&lt;span style=&quot;font-size:16.7px;color:#333333;font-weight: bold;&quot;&gt;Параметры&lt;/span&gt;&lt;span style=&quot;font-size:16.7px;color:#333333;&quot;&gt;: &#xa;&lt;/span&gt;&lt;/span&gt;&lt;/div&gt;&lt;ul style=&quot;margin: 0px; padding-left: 10px;list-style-position: inside; list-style-type:disc&quot;&gt;&lt;li style=&quot;text-align:left;color:#0c7cba;font-size:17.3px;&quot;&gt;&lt;span style=&quot;margin-left: 0px;margin-top: -2px;&quot;&gt;&lt;span style=&quot;font-size:17.3px;color:#0c7cba;&quot;&gt;Фактические часы пиковых нагрузок (ЧПН)&lt;/span&gt;&lt;span style=&quot;font-size:14px;color:#0c7cba;font-family: Roboto;&quot;&gt;&lt;/span&gt;&lt;/span&gt;&lt;/li&gt;&lt;li style=&quot;text-align:left;color:#0c7cba;font-size:16.7px;&quot;&gt;&lt;span style=&quot;margin-left: 0px;margin-top: -2px;&quot;&gt;&lt;span style=&quot;font-size:13px;color:#0c7cba;&quot;&gt;&lt;span style=&quot;font-size:16.7px;color:#0c7cba;&quot;&gt;Прогнозные часы пиковых нагрузок (ЧПН)&lt;/span&gt;&lt;/span&gt;&lt;/span&gt;&lt;/li&gt;&lt;li style=&quot;text-align:left;color:#0c7cba;font-size:16.7px;&quot;&gt;&lt;span style=&quot;margin-left: 0px;margin-top: -2px;&quot;&gt;&lt;span style=&quot;font-size:16.7px;color:#0c7cba;&quot;&gt;Плановые часы пиковых нагрузок (ПЧПН)&lt;/span&gt;&lt;span style=&quot;font-size:16.7px;color:#333333;&quot;&gt;&lt;/span&gt;&lt;/span&gt;&lt;/li&gt;&lt;/ul&gt;" style="html=1;overflow=block;blockSpacing=1;whiteSpace=wrap;fontSize=13;spacing=3.8;verticalAlign=middle;strokeOpacity=0;fillOpacity=0;rounded=1;absoluteArcSize=1;arcSize=9;fillColor=#ffffff;strokeWidth=2.3;lucidId=Oygk0uwo9Xu7;" parent="1" vertex="1">
          <mxGeometry x="-585" y="1424" width="466" height="120" as="geometry" />
        </mxCell>
        <mxCell id="9sq6c23NFKgK6vMcmQ4V-34" value="&lt;ul style=&quot;margin: 0px; padding-left: 10px;list-style-position: inside; list-style-type:disc&quot;&gt;&lt;li style=&quot;text-align:left;color:#834187;font-size:16.7px;&quot;&gt;&lt;span style=&quot;margin-left: 0px;margin-top: -2px;&quot;&gt;&lt;span style=&quot;font-size:16.7px;color:#834187;&quot;&gt;Профиль выработки СЭС (почасовой годовой график), , кВт&lt;/span&gt;&lt;/span&gt;&lt;/li&gt;&lt;li style=&quot;text-align:left;color:#834187;font-size:16.7px;&quot;&gt;&lt;span style=&quot;margin-left: 0px;margin-top: -2px;&quot;&gt;&lt;span style=&quot;font-size:16.7px;color:#834187;&quot;&gt;Профиль ВЭС (почасовой годовой график), , кВт&lt;/span&gt;&lt;/span&gt;&lt;/li&gt;&lt;li style=&quot;text-align:left;color:#999999;font-size:16.7px;&quot;&gt;&lt;span style=&quot;margin-left: 0px;margin-top: -2px;&quot;&gt;&lt;span style=&quot;font-size:16.7px;&quot;&gt;&lt;span style=&quot;font-size:16.7px;color:#999999;&quot;&gt;Скорость деградации СЭС, % в год&lt;/span&gt;&lt;/span&gt;&lt;/span&gt;&lt;/li&gt;&lt;/ul&gt;" style="html=1;overflow=block;blockSpacing=1;whiteSpace=wrap;fontSize=13;spacing=3.8;strokeOpacity=0;fillOpacity=0;rounded=1;absoluteArcSize=1;arcSize=9;fillColor=#ffffff;strokeWidth=2.3;lucidId=cNhkJLrY1LIh;" parent="1" vertex="1">
          <mxGeometry x="773" y="705" width="270" height="148" as="geometry" />
        </mxCell>
        <mxCell id="9sq6c23NFKgK6vMcmQ4V-35" value="&lt;ul style=&quot;margin: 0px; padding-left: 10px;list-style-position: inside; list-style-type:disc&quot;&gt;&lt;li style=&quot;text-align:left;color:#834187;font-size:16.7px;&quot;&gt;&lt;span style=&quot;margin-left: 0px;margin-top: -2px;&quot;&gt;&lt;span style=&quot;font-size:16.7px;color:#834187;&quot;&gt;Неуправляемая нагрузка (почасовой годовой график), кВт:&lt;/span&gt;&lt;span style=&quot;font-size:16.7px;color:#999999;&quot;&gt;&lt;/span&gt;&lt;/span&gt;&lt;/li&gt;&lt;li style=&quot;text-align:left;color:#999999;font-size:16.7px;&quot;&gt;&lt;span style=&quot;margin-left: 0px;margin-top: -2px;&quot;&gt;&lt;span style=&quot;font-size:16.7px;color:#999999;&quot;&gt;Кондиционирование (модель), кВт:&lt;/span&gt;&lt;/span&gt;&lt;/li&gt;&lt;li style=&quot;text-align:left;color:#999999;font-size:16.7px;&quot;&gt;&lt;span style=&quot;margin-left: 0px;margin-top: -2px;&quot;&gt;&lt;span style=&quot;font-size:16.7px;color:#999999;&quot;&gt;шаг отключения&lt;/span&gt;&lt;/span&gt;&lt;/li&gt;&lt;li style=&quot;text-align:left;color:#999999;font-size:16.7px;&quot;&gt;&lt;span style=&quot;margin-left: 0px;margin-top: -2px;&quot;&gt;&lt;span style=&quot;font-size:16.7px;color:#999999;&quot;&gt;профиль работы&lt;/span&gt;&lt;/span&gt;&lt;/li&gt;&lt;li style=&quot;text-align:left;color:#999999;font-size:16.7px;&quot;&gt;&lt;span style=&quot;margin-left: 0px;margin-top: -2px;&quot;&gt;&lt;span style=&quot;font-size:16.7px;color:#999999;&quot;&gt;Котел, бойлер (модель)&lt;/span&gt;&lt;/span&gt;&lt;/li&gt;&lt;li style=&quot;text-align:left;color:#999999;font-size:16.7px;&quot;&gt;&lt;span style=&quot;margin-left: 0px;margin-top: -2px;&quot;&gt;&lt;span style=&quot;font-size:16.7px;color:#999999;&quot;&gt;расход тепла&lt;/span&gt;&lt;/span&gt;&lt;/li&gt;&lt;li style=&quot;text-align:left;color:#999999;font-size:16.7px;&quot;&gt;&lt;span style=&quot;margin-left: 0px;margin-top: -2px;&quot;&gt;&lt;span style=&quot;font-size:16.7px;color:#999999;&quot;&gt;КПД&lt;/span&gt;&lt;/span&gt;&lt;/li&gt;&lt;li style=&quot;text-align:left;color:#999999;font-size:16.7px;&quot;&gt;&lt;span style=&quot;margin-left: 0px;margin-top: -2px;&quot;&gt;&lt;span style=&quot;font-size:16.7px;color:#999999;&quot;&gt;мин/макс температура&lt;/span&gt;&lt;/span&gt;&lt;/li&gt;&lt;li style=&quot;text-align:left;color:#999999;font-size:16.7px;&quot;&gt;&lt;span style=&quot;margin-left: 0px;margin-top: -2px;&quot;&gt;&lt;span style=&quot;font-size:16.7px;color:#999999;&quot;&gt;макс мощность нагрева&lt;/span&gt;&lt;/span&gt;&lt;/li&gt;&lt;/ul&gt;" style="html=1;overflow=block;blockSpacing=1;whiteSpace=wrap;fontSize=13;spacing=3.8;strokeOpacity=0;fillOpacity=0;rounded=1;absoluteArcSize=1;arcSize=9;fillColor=#ffffff;strokeWidth=2.3;lucidId=FNhksjk4ECOr;" parent="1" vertex="1">
          <mxGeometry x="405" y="730" width="327" height="208" as="geometry" />
        </mxCell>
        <mxCell id="9sq6c23NFKgK6vMcmQ4V-36" value="" style="html=1;overflow=block;blockSpacing=1;whiteSpace=wrap;ellipse;shape=cloud;fontSize=13;spacing=3.8;strokeColor=#5e5e5e;strokeOpacity=100;fillOpacity=100;rounded=1;absoluteArcSize=1;arcSize=9;fillColor=#c1e4f7;strokeWidth=2.3;lucidId=bThkdlcl~Ifw;" parent="1" vertex="1">
          <mxGeometry x="-330" y="1218" width="120" height="90" as="geometry" />
        </mxCell>
        <mxCell id="9sq6c23NFKgK6vMcmQ4V-37" value="&lt;div style=&quot;display: flex; justify-content: flex-start; text-align: left; align-items: baseline; font-size: 0; line-height: 1.25;margin-top: -2px;&quot;&gt;&lt;span&gt;&lt;span style=&quot;font-size:16.7px;color:#333333;font-weight: bold;&quot;&gt;Параметры&lt;/span&gt;&lt;span style=&quot;font-size:16.7px;color:#333333;&quot;&gt;:&#xa;&lt;/span&gt;&lt;/span&gt;&lt;/div&gt;&lt;ul style=&quot;margin: 0px; padding-left: 10px;list-style-position: inside; list-style-type:disc&quot;&gt;&lt;li style=&quot;text-align:left;color:#7ab648;font-size:16.7px;&quot;&gt;&lt;span style=&quot;margin-left: 0px;margin-top: -2px;&quot;&gt;&lt;span style=&quot;font-size:16.7px;&quot;&gt;&lt;span style=&quot;font-size:16.7px;color:#7ab648;&quot;&gt;Максимальная мощность заряда / разряда AC/DC, кВт&lt;/span&gt;&lt;/span&gt;&lt;/span&gt;&lt;/li&gt;&lt;li style=&quot;text-align:left;color:#7ab648;font-size:16.7px;&quot;&gt;&lt;span style=&quot;margin-left: 0px;margin-top: -2px;&quot;&gt;&lt;span style=&quot;font-size:16.7px;color:#7ab648;&quot;&gt;Потери ЭЭ, %&lt;/span&gt;&lt;/span&gt;&lt;/li&gt;&lt;li style=&quot;text-align:left;color:#7ab648;font-size:16.7px;&quot;&gt;&lt;span style=&quot;margin-left: 0px;margin-top: -2px;&quot;&gt;&lt;span style=&quot;font-size:16.7px;color:#7ab648;&quot;&gt;Номинальное напряжение AC, В&lt;/span&gt;&lt;/span&gt;&lt;/li&gt;&lt;li style=&quot;text-align:left;color:#7ab648;font-size:16.7px;&quot;&gt;&lt;span style=&quot;margin-left: 0px;margin-top: -2px;&quot;&gt;&lt;span style=&quot;font-size:16.7px;color:#7ab648;&quot;&gt;Номинальное напряжение DC, В&lt;/span&gt;&lt;/span&gt;&lt;/li&gt;&lt;li style=&quot;text-align:left;color:#7ab648;font-size:16.7px;&quot;&gt;&lt;span style=&quot;margin-left: 0px;margin-top: -2px;&quot;&gt;&lt;span style=&quot;font-size:16.7px;color:#7ab648;&quot;&gt;Номинальная мощность, кВт&lt;/span&gt;&lt;/span&gt;&lt;/li&gt;&lt;li style=&quot;text-align:left;color:#7ab648;font-size:16.7px;&quot;&gt;&lt;span style=&quot;margin-left: 0px;margin-top: -2px;&quot;&gt;&lt;span style=&quot;font-size:16.7px;color:#7ab648;&quot;&gt;Максимальный ток DC, А&lt;/span&gt;&lt;/span&gt;&lt;/li&gt;&lt;li style=&quot;text-align:left;color:#7ab648;font-size:16.7px;&quot;&gt;&lt;span style=&quot;margin-left: 0px;margin-top: -2px;&quot;&gt;&lt;span style=&quot;font-size:16.7px;color:#7ab648;&quot;&gt;Максимально допустимое напряжение DC, В&lt;/span&gt;&lt;/span&gt;&lt;/li&gt;&lt;/ul&gt;" style="html=1;overflow=block;blockSpacing=1;whiteSpace=wrap;fontSize=13;spacing=3.8;verticalAlign=middle;strokeOpacity=0;fillOpacity=0;rounded=1;absoluteArcSize=1;arcSize=9;fillColor=#ffffff;strokeWidth=2.3;lucidId=kZhkRhDx9ksE;" parent="1" vertex="1">
          <mxGeometry x="450" y="1140" width="293" height="197" as="geometry" />
        </mxCell>
        <mxCell id="9sq6c23NFKgK6vMcmQ4V-38" value="Подготовка данных для ФЭМ" style="html=1;overflow=block;blockSpacing=1;whiteSpace=wrap;fontSize=16.7;fontColor=#333333;spacing=9;strokeColor=#5e5e5e;strokeOpacity=100;rounded=1;absoluteArcSize=1;arcSize=9;strokeWidth=2.3;lucidId=b4hkYdYYdHvh;" parent="1" vertex="1">
          <mxGeometry x="550" y="2055" width="115" height="90" as="geometry" />
        </mxCell>
        <mxCell id="9sq6c23NFKgK6vMcmQ4V-39" value="Пользователь" style="html=1;overflow=block;blockSpacing=1;whiteSpace=wrap;fontSize=16.7;fontColor=#333333;spacing=9;strokeColor=#5e5e5e;strokeOpacity=100;rounded=1;absoluteArcSize=1;arcSize=9;strokeWidth=2.3;lucidId=W6hkwNnbR8wN;" parent="1" vertex="1">
          <mxGeometry x="150" y="315" width="115" height="90" as="geometry" />
        </mxCell>
        <mxCell id="9sq6c23NFKgK6vMcmQ4V-40" value="Профиль солнечной генерации " style="html=1;overflow=block;blockSpacing=1;whiteSpace=wrap;fontSize=16.7;fontColor=#333333;spacing=9;strokeColor=#5e5e5e;strokeOpacity=100;rounded=1;absoluteArcSize=1;arcSize=9;strokeWidth=2.3;lucidId=p_hkRFxiG3hB;" parent="1" vertex="1">
          <mxGeometry x="2455" y="1780" width="180" height="90" as="geometry" />
        </mxCell>
        <mxCell id="9sq6c23NFKgK6vMcmQ4V-41" value="Метеоданные (DNI, DHI, GHI, температура, скорость ветра). TMY погодные, etc. " style="html=1;overflow=block;blockSpacing=1;whiteSpace=wrap;fontSize=16.7;fontColor=#333333;spacing=9;strokeColor=#5e5e5e;strokeOpacity=100;fillOpacity=100;rounded=1;absoluteArcSize=1;arcSize=9;fillColor=#fcc438;strokeWidth=2.3;lucidId=p_hkwe-.UPDJ;" parent="1" vertex="1">
          <mxGeometry x="2140" y="1359" width="195" height="118" as="geometry" />
        </mxCell>
        <mxCell id="9sq6c23NFKgK6vMcmQ4V-42" value="Технические характеристики солнечных панелей" style="html=1;overflow=block;blockSpacing=1;whiteSpace=wrap;fontSize=16.7;fontColor=#333333;spacing=9;strokeColor=#5e5e5e;strokeOpacity=100;fillOpacity=100;rounded=1;absoluteArcSize=1;arcSize=9;fillColor=#fcc438;strokeWidth=2.3;lucidId=p_hkx8b~lON6;" parent="1" vertex="1">
          <mxGeometry x="2680" y="1351" width="180" height="90" as="geometry" />
        </mxCell>
        <mxCell id="9sq6c23NFKgK6vMcmQ4V-43" value="Генерация синтетического метеофайла" style="html=1;overflow=block;blockSpacing=1;whiteSpace=wrap;fontSize=16.7;fontColor=#333333;spacing=9;strokeColor=#5e5e5e;strokeOpacity=100;rounded=1;absoluteArcSize=1;arcSize=9;strokeWidth=2.3;lucidId=p_hkio9KcXf3;" parent="1" vertex="1">
          <mxGeometry x="2335" y="1162" width="180" height="90" as="geometry" />
        </mxCell>
        <mxCell id="9sq6c23NFKgK6vMcmQ4V-44" value="" style="html=1;jettySize=18;whiteSpace=wrap;fontSize=13;strokeColor=#5E5E5E;strokeWidth=1.5;rounded=1;arcSize=12;edgeStyle=orthogonalEdgeStyle;startArrow=none;endArrow=block;endFill=1;exitX=0.5;exitY=1.012;exitPerimeter=0;entryX=1.006;entryY=0.5;entryPerimeter=0;lucidId=p_hkyGwb.FKF;" parent="1" source="9sq6c23NFKgK6vMcmQ4V-43" target="9sq6c23NFKgK6vMcmQ4V-41" edge="1">
          <mxGeometry width="100" height="100" relative="1" as="geometry">
            <Array as="points" />
          </mxGeometry>
        </mxCell>
        <mxCell id="9sq6c23NFKgK6vMcmQ4V-45" value="" style="html=1;jettySize=18;whiteSpace=wrap;fontSize=13;strokeColor=#5E5E5E;strokeWidth=1.5;rounded=1;arcSize=12;edgeStyle=orthogonalEdgeStyle;startArrow=none;endArrow=block;endFill=1;exitX=0.5;exitY=1.01;exitPerimeter=0;entryX=-0.006;entryY=0.5;entryPerimeter=0;lucidId=p_hkZGA4wvDy;" parent="1" source="9sq6c23NFKgK6vMcmQ4V-41" target="9sq6c23NFKgK6vMcmQ4V-64" edge="1">
          <mxGeometry width="100" height="100" relative="1" as="geometry">
            <Array as="points" />
          </mxGeometry>
        </mxCell>
        <mxCell id="9sq6c23NFKgK6vMcmQ4V-46" value="Пользователь" style="html=1;overflow=block;blockSpacing=1;whiteSpace=wrap;fontSize=16.7;fontColor=#333333;spacing=9;strokeColor=#5e5e5e;strokeOpacity=100;rounded=1;absoluteArcSize=1;arcSize=9;strokeWidth=2.3;lucidId=p_hkfByASdXn;" parent="1" vertex="1">
          <mxGeometry x="2455" y="883" width="180" height="90" as="geometry" />
        </mxCell>
        <mxCell id="9sq6c23NFKgK6vMcmQ4V-47" value="Справочник " style="html=1;overflow=block;blockSpacing=1;whiteSpace=wrap;fontSize=16.7;fontColor=#333333;spacing=9;strokeColor=#5e5e5e;strokeOpacity=100;rounded=1;absoluteArcSize=1;arcSize=9;strokeWidth=2.3;lucidId=p_hkWphWK6v5;" parent="1" vertex="1">
          <mxGeometry x="2680" y="1162" width="180" height="90" as="geometry" />
        </mxCell>
        <mxCell id="9sq6c23NFKgK6vMcmQ4V-48" value="Пространственное расположение солнечных панелей " style="html=1;overflow=block;blockSpacing=1;whiteSpace=wrap;fontSize=16.7;fontColor=#333333;spacing=9;strokeColor=#5e5e5e;strokeOpacity=100;fillOpacity=100;rounded=1;absoluteArcSize=1;arcSize=9;fillColor=#fcc438;strokeWidth=2.3;lucidId=p_hkKkJ_RMpx;" parent="1" vertex="1">
          <mxGeometry x="2455" y="1355" width="180" height="90" as="geometry" />
        </mxCell>
        <mxCell id="9sq6c23NFKgK6vMcmQ4V-49" value="" style="html=1;jettySize=18;whiteSpace=wrap;fontSize=13;strokeColor=#5E5E5E;strokeWidth=1.5;rounded=1;arcSize=12;edgeStyle=orthogonalEdgeStyle;startArrow=none;endArrow=block;endFill=1;exitX=-0.006;exitY=0.887;exitPerimeter=0;entryX=0.5;entryY=-0.012;entryPerimeter=0;lucidId=p_hk5cc1IsCT;" parent="1" source="9sq6c23NFKgK6vMcmQ4V-46" target="9sq6c23NFKgK6vMcmQ4V-43" edge="1">
          <mxGeometry width="100" height="100" relative="1" as="geometry">
            <Array as="points" />
          </mxGeometry>
        </mxCell>
        <mxCell id="9sq6c23NFKgK6vMcmQ4V-50" value="" style="html=1;jettySize=18;whiteSpace=wrap;fontSize=13;strokeColor=#5E5E5E;strokeWidth=1.5;rounded=1;arcSize=12;edgeStyle=orthogonalEdgeStyle;startArrow=none;endArrow=block;endFill=1;exitX=-0.006;exitY=0.5;exitPerimeter=0;entryX=0.5;entryY=-0.01;entryPerimeter=0;lucidId=p_hkotvwU.ru;" parent="1" source="9sq6c23NFKgK6vMcmQ4V-46" target="9sq6c23NFKgK6vMcmQ4V-41" edge="1">
          <mxGeometry width="100" height="100" relative="1" as="geometry">
            <Array as="points">
              <mxPoint x="2349" y="928" />
            </Array>
          </mxGeometry>
        </mxCell>
        <mxCell id="9sq6c23NFKgK6vMcmQ4V-51" value="" style="html=1;jettySize=18;whiteSpace=wrap;fontSize=13;strokeColor=#5E5E5E;strokeWidth=1.5;rounded=1;arcSize=12;edgeStyle=orthogonalEdgeStyle;startArrow=none;endArrow=block;endFill=1;exitX=1.006;exitY=0.5;exitPerimeter=0;entryX=0.5;entryY=-0.012;entryPerimeter=0;lucidId=p_hkl2Ku69Yz;" parent="1" source="9sq6c23NFKgK6vMcmQ4V-46" target="9sq6c23NFKgK6vMcmQ4V-47" edge="1">
          <mxGeometry width="100" height="100" relative="1" as="geometry">
            <Array as="points" />
          </mxGeometry>
        </mxCell>
        <mxCell id="9sq6c23NFKgK6vMcmQ4V-52" value="" style="html=1;jettySize=18;whiteSpace=wrap;fontSize=13;strokeColor=#5E5E5E;strokeWidth=1.5;rounded=1;arcSize=12;edgeStyle=orthogonalEdgeStyle;startArrow=none;endArrow=block;endFill=1;exitX=0.5;exitY=1.012;exitPerimeter=0;entryX=0.5;entryY=-0.012;entryPerimeter=0;lucidId=p_hkcA4kw3-b;" parent="1" source="9sq6c23NFKgK6vMcmQ4V-46" target="9sq6c23NFKgK6vMcmQ4V-48" edge="1">
          <mxGeometry width="100" height="100" relative="1" as="geometry">
            <Array as="points" />
          </mxGeometry>
        </mxCell>
        <mxCell id="9sq6c23NFKgK6vMcmQ4V-53" value="" style="html=1;jettySize=18;whiteSpace=wrap;fontSize=13;strokeColor=#5E5E5E;strokeWidth=1.5;rounded=1;arcSize=12;edgeStyle=orthogonalEdgeStyle;startArrow=none;endArrow=block;endFill=1;exitX=0.5;exitY=1.012;exitPerimeter=0;entryX=0.5;entryY=-0.012;entryPerimeter=0;lucidId=p_hkuex-OJm-;" parent="1" source="9sq6c23NFKgK6vMcmQ4V-47" target="9sq6c23NFKgK6vMcmQ4V-42" edge="1">
          <mxGeometry width="100" height="100" relative="1" as="geometry">
            <Array as="points" />
          </mxGeometry>
        </mxCell>
        <mxCell id="9sq6c23NFKgK6vMcmQ4V-54" value="" style="html=1;jettySize=18;whiteSpace=wrap;fontSize=13;strokeColor=#5E5E5E;strokeWidth=1.5;rounded=1;arcSize=12;edgeStyle=orthogonalEdgeStyle;startArrow=none;endArrow=block;endFill=1;exitX=0.5;exitY=1.012;exitPerimeter=0;entryX=0.5;entryY=-0.012;entryPerimeter=0;lucidId=p_hkGKaRXvey;" parent="1" source="9sq6c23NFKgK6vMcmQ4V-48" target="9sq6c23NFKgK6vMcmQ4V-64" edge="1">
          <mxGeometry width="100" height="100" relative="1" as="geometry">
            <Array as="points" />
          </mxGeometry>
        </mxCell>
        <mxCell id="9sq6c23NFKgK6vMcmQ4V-55" value="" style="html=1;jettySize=18;whiteSpace=wrap;fontSize=13;strokeColor=#5E5E5E;strokeWidth=1.5;rounded=1;arcSize=12;edgeStyle=orthogonalEdgeStyle;startArrow=none;endArrow=block;endFill=1;exitX=0.5;exitY=1.012;exitPerimeter=0;entryX=1.006;entryY=0.5;entryPerimeter=0;lucidId=p_hkeNy.KBKu;" parent="1" source="9sq6c23NFKgK6vMcmQ4V-42" target="9sq6c23NFKgK6vMcmQ4V-64" edge="1">
          <mxGeometry width="100" height="100" relative="1" as="geometry">
            <Array as="points" />
          </mxGeometry>
        </mxCell>
        <mxCell id="9sq6c23NFKgK6vMcmQ4V-56" value="" style="html=1;jettySize=18;whiteSpace=wrap;fontSize=13;strokeColor=#5E5E5E;strokeWidth=1.5;rounded=1;arcSize=12;edgeStyle=orthogonalEdgeStyle;startArrow=none;endArrow=block;endFill=1;exitX=0.5;exitY=-0.012;exitPerimeter=0;entryX=1.006;entryY=0.5;entryPerimeter=0;lucidId=p_hkrRN7HwnY;" parent="1" source="9sq6c23NFKgK6vMcmQ4V-46" target="9sq6c23NFKgK6vMcmQ4V-40" edge="1">
          <mxGeometry width="100" height="100" relative="1" as="geometry">
            <Array as="points">
              <mxPoint x="2545" y="852" />
              <mxPoint x="3160" y="852" />
              <mxPoint x="3160" y="1825" />
            </Array>
          </mxGeometry>
        </mxCell>
        <mxCell id="9sq6c23NFKgK6vMcmQ4V-57" value="Модуль оценки качества и предобработки метеоданных" style="html=1;overflow=block;blockSpacing=1;whiteSpace=wrap;fontSize=16.7;fontColor=#333333;spacing=9;strokeColor=#5e5e5e;strokeOpacity=100;rounded=1;absoluteArcSize=1;arcSize=9;strokeWidth=2.3;lucidId=p_hkfyU7pD6A;" parent="1" vertex="1">
          <mxGeometry x="1993" y="1029" width="173" height="98" as="geometry" />
        </mxCell>
        <mxCell id="9sq6c23NFKgK6vMcmQ4V-58" value="Специализированные сервисы предоставляющие погодные данные " style="html=1;overflow=block;blockSpacing=1;whiteSpace=wrap;fontSize=16.7;fontColor=#333333;spacing=9;strokeColor=#5e5e5e;strokeOpacity=100;rounded=1;absoluteArcSize=1;arcSize=9;strokeWidth=2.3;lucidId=p_hkSg.JwM9O;" parent="1" vertex="1">
          <mxGeometry x="1990" y="879" width="180" height="98" as="geometry" />
        </mxCell>
        <mxCell id="9sq6c23NFKgK6vMcmQ4V-59" value="" style="html=1;jettySize=18;whiteSpace=wrap;fontSize=13;strokeColor=#5E5E5E;strokeWidth=1.5;rounded=1;arcSize=12;edgeStyle=orthogonalEdgeStyle;startArrow=none;endArrow=block;endFill=1;exitX=0.602;exitY=1.01;exitPerimeter=0;entryX=0.404;entryY=-0.011;entryPerimeter=0;lucidId=p_hkN6QDuLmq;" parent="1" source="9sq6c23NFKgK6vMcmQ4V-104" target="9sq6c23NFKgK6vMcmQ4V-58" edge="1">
          <mxGeometry width="100" height="100" relative="1" as="geometry">
            <Array as="points" />
          </mxGeometry>
        </mxCell>
        <mxCell id="9sq6c23NFKgK6vMcmQ4V-60" value="" style="html=1;jettySize=18;whiteSpace=wrap;fontSize=13;strokeColor=#5E5E5E;strokeWidth=1.5;rounded=1;arcSize=12;edgeStyle=orthogonalEdgeStyle;startArrow=none;endArrow=block;endFill=1;exitX=0.602;exitY=1.01;exitPerimeter=0;entryX=0.711;entryY=-0.011;entryPerimeter=0;lucidId=p_hkAgZo6x.p;" parent="1" source="9sq6c23NFKgK6vMcmQ4V-105" target="9sq6c23NFKgK6vMcmQ4V-58" edge="1">
          <mxGeometry width="100" height="100" relative="1" as="geometry">
            <Array as="points" />
          </mxGeometry>
        </mxCell>
        <mxCell id="9sq6c23NFKgK6vMcmQ4V-61" value="" style="html=1;jettySize=18;whiteSpace=wrap;fontSize=13;strokeColor=#5E5E5E;strokeWidth=1.5;rounded=1;arcSize=12;edgeStyle=orthogonalEdgeStyle;startArrow=none;endArrow=block;endFill=1;exitX=0.5;exitY=1.011;exitPerimeter=0;entryX=0.5;entryY=-0.011;entryPerimeter=0;lucidId=p_hkTAnYSpGn;" parent="1" source="9sq6c23NFKgK6vMcmQ4V-58" target="9sq6c23NFKgK6vMcmQ4V-57" edge="1">
          <mxGeometry width="100" height="100" relative="1" as="geometry">
            <Array as="points" />
          </mxGeometry>
        </mxCell>
        <mxCell id="9sq6c23NFKgK6vMcmQ4V-62" value="" style="html=1;jettySize=18;whiteSpace=wrap;fontSize=13;strokeColor=#5E5E5E;strokeWidth=1.5;rounded=1;arcSize=12;edgeStyle=orthogonalEdgeStyle;startArrow=none;endArrow=block;endFill=1;exitX=-0.006;exitY=0.5;exitPerimeter=0;entryX=1.006;entryY=0.5;entryPerimeter=0;lucidId=p_hkU3PQYJ~L;" parent="1" source="9sq6c23NFKgK6vMcmQ4V-46" target="9sq6c23NFKgK6vMcmQ4V-58" edge="1">
          <mxGeometry width="100" height="100" relative="1" as="geometry">
            <Array as="points" />
          </mxGeometry>
        </mxCell>
        <mxCell id="9sq6c23NFKgK6vMcmQ4V-63" value="" style="html=1;jettySize=18;whiteSpace=wrap;fontSize=13;strokeColor=#5E5E5E;strokeWidth=1.5;rounded=1;arcSize=12;edgeStyle=orthogonalEdgeStyle;startArrow=none;endArrow=block;endFill=1;exitX=0.5;exitY=1.011;exitPerimeter=0;entryX=-0.006;entryY=0.5;entryPerimeter=0;lucidId=p_hkHphp.eKC;" parent="1" source="9sq6c23NFKgK6vMcmQ4V-57" target="9sq6c23NFKgK6vMcmQ4V-41" edge="1">
          <mxGeometry width="100" height="100" relative="1" as="geometry">
            <Array as="points" />
          </mxGeometry>
        </mxCell>
        <mxCell id="9sq6c23NFKgK6vMcmQ4V-64" value="Расчетный модуль" style="html=1;overflow=block;blockSpacing=1;whiteSpace=wrap;fontSize=16.7;fontColor=#333333;spacing=9;strokeColor=#5e5e5e;strokeOpacity=100;rounded=1;absoluteArcSize=1;arcSize=9;strokeWidth=2.3;lucidId=p_hktkfly756;" parent="1" vertex="1">
          <mxGeometry x="2455" y="1585" width="180" height="90" as="geometry" />
        </mxCell>
        <mxCell id="9sq6c23NFKgK6vMcmQ4V-65" value="Технические характеристики инвертора" style="html=1;overflow=block;blockSpacing=1;whiteSpace=wrap;fontSize=16.7;fontColor=#333333;spacing=9;strokeColor=#5e5e5e;strokeOpacity=100;fillOpacity=100;rounded=1;absoluteArcSize=1;arcSize=9;fillColor=#fcc438;strokeWidth=2.3;lucidId=p_hkDjCIE7XS;" parent="1" vertex="1">
          <mxGeometry x="2905" y="1351" width="180" height="90" as="geometry" />
        </mxCell>
        <mxCell id="9sq6c23NFKgK6vMcmQ4V-66" value="" style="html=1;jettySize=18;whiteSpace=wrap;fontSize=13;strokeColor=#5E5E5E;strokeWidth=1.5;rounded=1;arcSize=12;edgeStyle=orthogonalEdgeStyle;startArrow=none;endArrow=block;endFill=1;exitX=1.006;exitY=0.5;exitPerimeter=0;entryX=0.55;entryY=-0.012;entryPerimeter=0;lucidId=p_hk9D0WEUTX;" parent="1" source="9sq6c23NFKgK6vMcmQ4V-47" target="9sq6c23NFKgK6vMcmQ4V-65" edge="1">
          <mxGeometry width="100" height="100" relative="1" as="geometry">
            <Array as="points" />
          </mxGeometry>
        </mxCell>
        <mxCell id="9sq6c23NFKgK6vMcmQ4V-67" value="" style="html=1;jettySize=18;whiteSpace=wrap;fontSize=13;strokeColor=#5E5E5E;strokeWidth=1.5;rounded=1;arcSize=12;edgeStyle=orthogonalEdgeStyle;startArrow=none;endArrow=block;endFill=1;exitX=1.006;exitY=0.181;exitPerimeter=0;entryX=1.006;entryY=0.619;entryPerimeter=0;lucidId=p_hkyqHI~s1i;" parent="1" source="9sq6c23NFKgK6vMcmQ4V-46" target="9sq6c23NFKgK6vMcmQ4V-65" edge="1">
          <mxGeometry width="100" height="100" relative="1" as="geometry">
            <Array as="points" />
          </mxGeometry>
        </mxCell>
        <mxCell id="9sq6c23NFKgK6vMcmQ4V-68" value="" style="html=1;jettySize=18;whiteSpace=wrap;fontSize=13;strokeColor=#5E5E5E;strokeWidth=1.5;rounded=1;arcSize=12;edgeStyle=orthogonalEdgeStyle;startArrow=none;endArrow=block;endFill=1;exitX=1.006;exitY=0.181;exitPerimeter=0;entryX=1.006;entryY=0.5;entryPerimeter=0;lucidId=p_hkzlgVqbPN;" parent="1" source="9sq6c23NFKgK6vMcmQ4V-46" target="9sq6c23NFKgK6vMcmQ4V-42" edge="1">
          <mxGeometry width="100" height="100" relative="1" as="geometry">
            <Array as="points" />
          </mxGeometry>
        </mxCell>
        <mxCell id="9sq6c23NFKgK6vMcmQ4V-69" value="" style="html=1;jettySize=18;whiteSpace=wrap;fontSize=13;strokeColor=#5E5E5E;strokeWidth=1.5;rounded=1;arcSize=12;edgeStyle=orthogonalEdgeStyle;startArrow=none;endArrow=block;endFill=1;exitX=0.5;exitY=1.012;exitPerimeter=0;entryX=0.5;entryY=-0.012;entryPerimeter=0;lucidId=p_hkVWmEuyZr;" parent="1" source="9sq6c23NFKgK6vMcmQ4V-64" target="9sq6c23NFKgK6vMcmQ4V-40" edge="1">
          <mxGeometry width="100" height="100" relative="1" as="geometry">
            <Array as="points" />
          </mxGeometry>
        </mxCell>
        <mxCell id="9sq6c23NFKgK6vMcmQ4V-70" value="" style="html=1;jettySize=18;whiteSpace=wrap;fontSize=13;strokeColor=#5E5E5E;strokeWidth=1.5;rounded=1;arcSize=12;edgeStyle=orthogonalEdgeStyle;startArrow=none;endArrow=block;endFill=1;exitX=0.5;exitY=1.012;exitPerimeter=0;entryX=1.006;entryY=0.5;entryPerimeter=0;lucidId=p_hk0rcbnKMa;" parent="1" source="9sq6c23NFKgK6vMcmQ4V-65" target="9sq6c23NFKgK6vMcmQ4V-64" edge="1">
          <mxGeometry width="100" height="100" relative="1" as="geometry">
            <Array as="points" />
          </mxGeometry>
        </mxCell>
        <mxCell id="9sq6c23NFKgK6vMcmQ4V-71" value="Модуль оценки потенциала солнечной генерации " style="html=1;overflow=block;blockSpacing=1;whiteSpace=wrap;fontSize=16.7;fontColor=#333333;spacing=9;strokeColor=#5e5e5e;strokeOpacity=100;rounded=1;absoluteArcSize=1;arcSize=9;strokeWidth=2.3;lucidId=~bikI6FK4WPe;" parent="1" vertex="1">
          <mxGeometry x="1765" y="700" width="120" height="118" as="geometry" />
        </mxCell>
        <mxCell id="9sq6c23NFKgK6vMcmQ4V-72" value="" style="html=1;jettySize=18;whiteSpace=wrap;fontSize=13;strokeColor=#5E5E5E;strokeWidth=1.5;rounded=1;arcSize=12;edgeStyle=orthogonalEdgeStyle;startArrow=none;endArrow=block;endFill=1;exitX=-0.01;exitY=0.5;exitPerimeter=0;entryX=0.5;entryY=-0.004;entryPerimeter=0;lucidId=Weik8VQ_PrUZ;" parent="1" source="9sq6c23NFKgK6vMcmQ4V-39" target="9sq6c23NFKgK6vMcmQ4V-7" edge="1">
          <mxGeometry width="100" height="100" relative="1" as="geometry">
            <Array as="points" />
          </mxGeometry>
        </mxCell>
        <mxCell id="9sq6c23NFKgK6vMcmQ4V-73" value="" style="html=1;jettySize=18;whiteSpace=wrap;fontSize=13;strokeColor=#5E5E5E;strokeWidth=1.5;rounded=1;arcSize=12;edgeStyle=orthogonalEdgeStyle;startArrow=none;endArrow=block;endFill=1;exitX=0.5;exitY=1.012;exitPerimeter=0;entryX=0.5;entryY=-0.002;entryPerimeter=0;lucidId=ZeikJc1YIVQS;" parent="1" source="9sq6c23NFKgK6vMcmQ4V-39" target="9sq6c23NFKgK6vMcmQ4V-3" edge="1">
          <mxGeometry width="100" height="100" relative="1" as="geometry">
            <Array as="points" />
          </mxGeometry>
        </mxCell>
        <mxCell id="9sq6c23NFKgK6vMcmQ4V-74" value="" style="html=1;jettySize=18;whiteSpace=wrap;fontSize=13;strokeColor=#5E5E5E;strokeWidth=1.5;rounded=1;arcSize=12;edgeStyle=orthogonalEdgeStyle;startArrow=none;endArrow=block;endFill=1;exitX=0.5;exitY=1.012;exitPerimeter=0;entryX=0.492;entryY=-0.002;entryPerimeter=0;lucidId=2eikl~gp54Va;" parent="1" source="9sq6c23NFKgK6vMcmQ4V-39" target="9sq6c23NFKgK6vMcmQ4V-5" edge="1">
          <mxGeometry width="100" height="100" relative="1" as="geometry">
            <Array as="points" />
          </mxGeometry>
        </mxCell>
        <mxCell id="9sq6c23NFKgK6vMcmQ4V-75" value="" style="html=1;jettySize=18;whiteSpace=wrap;fontSize=13;strokeColor=#5E5E5E;strokeWidth=1.5;rounded=1;arcSize=12;edgeStyle=orthogonalEdgeStyle;startArrow=none;endArrow=block;endFill=1;exitX=0.5;exitY=1.012;exitPerimeter=0;entryX=0.5;entryY=-0.003;entryPerimeter=0;lucidId=9eikXmZ_nhnZ;" parent="1" source="9sq6c23NFKgK6vMcmQ4V-39" target="9sq6c23NFKgK6vMcmQ4V-12" edge="1">
          <mxGeometry width="100" height="100" relative="1" as="geometry">
            <Array as="points" />
          </mxGeometry>
        </mxCell>
        <mxCell id="9sq6c23NFKgK6vMcmQ4V-76" value="" style="html=1;jettySize=18;whiteSpace=wrap;fontSize=13;strokeColor=#5E5E5E;strokeWidth=1.5;rounded=1;arcSize=12;edgeStyle=orthogonalEdgeStyle;startArrow=none;endArrow=block;endFill=1;exitX=1.01;exitY=0.5;exitPerimeter=0;entryX=0.5;entryY=-0.004;entryPerimeter=0;lucidId=.eikfG~E-bjT;" parent="1" source="9sq6c23NFKgK6vMcmQ4V-39" target="9sq6c23NFKgK6vMcmQ4V-6" edge="1">
          <mxGeometry width="100" height="100" relative="1" as="geometry">
            <Array as="points" />
          </mxGeometry>
        </mxCell>
        <mxCell id="9sq6c23NFKgK6vMcmQ4V-77" value="" style="html=1;jettySize=18;whiteSpace=wrap;fontSize=13;strokeColor=#5E5E5E;strokeWidth=1.5;rounded=1;arcSize=12;edgeStyle=orthogonalEdgeStyle;startArrow=none;endArrow=block;endFill=1;exitX=1.004;exitY=0.258;exitPerimeter=0;entryX=-0.001;entryY=0.033;entryPerimeter=0;lucidId=dfikEumm68at;" parent="1" source="9sq6c23NFKgK6vMcmQ4V-6" target="9sq6c23NFKgK6vMcmQ4V-10" edge="1">
          <mxGeometry width="100" height="100" relative="1" as="geometry">
            <Array as="points" />
          </mxGeometry>
        </mxCell>
        <mxCell id="9sq6c23NFKgK6vMcmQ4V-78" value="" style="html=1;jettySize=18;whiteSpace=wrap;fontSize=13;strokeColor=#5E5E5E;strokeWidth=1.5;rounded=1;arcSize=12;edgeStyle=orthogonalEdgeStyle;startArrow=none;endArrow=block;endFill=1;exitX=-0.001;exitY=0.122;exitPerimeter=0;entryX=1.004;entryY=0.901;entryPerimeter=0;lucidId=gfik1~Yj0J~g;" parent="1" source="9sq6c23NFKgK6vMcmQ4V-10" target="9sq6c23NFKgK6vMcmQ4V-6" edge="1">
          <mxGeometry width="100" height="100" relative="1" as="geometry">
            <Array as="points" />
          </mxGeometry>
        </mxCell>
        <mxCell id="9sq6c23NFKgK6vMcmQ4V-79" value="" style="html=1;jettySize=18;whiteSpace=wrap;fontSize=13;strokeColor=#5E5E5E;strokeWidth=1.5;rounded=1;arcSize=12;edgeStyle=orthogonalEdgeStyle;startArrow=none;endArrow=block;endFill=1;exitX=-0.006;exitY=0.5;exitPerimeter=0;entryX=1.005;entryY=0.523;entryPerimeter=0;lucidId=LfikUAU-O~hr;" parent="1" source="9sq6c23NFKgK6vMcmQ4V-24" target="9sq6c23NFKgK6vMcmQ4V-23" edge="1">
          <mxGeometry width="100" height="100" relative="1" as="geometry">
            <Array as="points" />
          </mxGeometry>
        </mxCell>
        <mxCell id="9sq6c23NFKgK6vMcmQ4V-80" value="" style="html=1;jettySize=18;whiteSpace=wrap;fontSize=13;strokeColor=#5E5E5E;strokeWidth=1.5;rounded=1;arcSize=12;edgeStyle=orthogonalEdgeStyle;startArrow=none;endArrow=block;endFill=1;exitX=0.497;exitY=0.977;exitPerimeter=0;entryX=1.006;entryY=0.5;entryPerimeter=0;lucidId=Rfikl.Jt7Pfp;" parent="1" source="9sq6c23NFKgK6vMcmQ4V-36" target="9sq6c23NFKgK6vMcmQ4V-24" edge="1">
          <mxGeometry width="100" height="100" relative="1" as="geometry">
            <Array as="points" />
          </mxGeometry>
        </mxCell>
        <mxCell id="9sq6c23NFKgK6vMcmQ4V-81" value="" style="html=1;jettySize=18;whiteSpace=wrap;fontSize=13;strokeColor=#5E5E5E;strokeWidth=1.5;rounded=1;arcSize=12;edgeStyle=orthogonalEdgeStyle;startArrow=none;endArrow=block;endFill=1;exitX=0.497;exitY=0.977;exitPerimeter=0;entryX=-0.005;entryY=0.5;entryPerimeter=0;lucidId=Vfik~b6KVRfy;" parent="1" source="9sq6c23NFKgK6vMcmQ4V-25" target="9sq6c23NFKgK6vMcmQ4V-23" edge="1">
          <mxGeometry width="100" height="100" relative="1" as="geometry">
            <Array as="points" />
          </mxGeometry>
        </mxCell>
        <mxCell id="9sq6c23NFKgK6vMcmQ4V-82" value="" style="html=1;jettySize=18;whiteSpace=wrap;fontSize=13;strokeColor=#5E5E5E;strokeWidth=1.5;rounded=1;arcSize=12;edgeStyle=orthogonalEdgeStyle;startArrow=none;endArrow=block;endFill=1;exitX=0.5;exitY=1.003;exitPerimeter=0;entryX=-0.01;entryY=0.5;entryPerimeter=0;lucidId=agikpICZmG0x;" parent="1" source="9sq6c23NFKgK6vMcmQ4V-11" target="9sq6c23NFKgK6vMcmQ4V-26" edge="1">
          <mxGeometry width="100" height="100" relative="1" as="geometry">
            <Array as="points" />
          </mxGeometry>
        </mxCell>
        <mxCell id="9sq6c23NFKgK6vMcmQ4V-83" value="" style="html=1;jettySize=18;whiteSpace=wrap;fontSize=13;strokeColor=#5E5E5E;strokeWidth=1.5;rounded=1;arcSize=12;edgeStyle=orthogonalEdgeStyle;jumpStyle=arc;startArrow=none;endArrow=block;endFill=1;exitX=0.5;exitY=-0.012;exitPerimeter=0;entryX=1.002;entryY=0.265;entryPerimeter=0;lucidId=ShikenH7-qKJ;" parent="1" source="9sq6c23NFKgK6vMcmQ4V-39" target="9sq6c23NFKgK6vMcmQ4V-9" edge="1">
          <mxGeometry width="100" height="100" relative="1" as="geometry">
            <Array as="points">
              <mxPoint x="207" y="150" />
              <mxPoint x="1163" y="150" />
              <mxPoint x="1163" y="2172" />
            </Array>
          </mxGeometry>
        </mxCell>
        <mxCell id="9sq6c23NFKgK6vMcmQ4V-84" value="" style="html=1;jettySize=18;whiteSpace=wrap;fontSize=13;strokeColor=#5E5E5E;strokeWidth=1.5;rounded=1;arcSize=12;edgeStyle=orthogonalEdgeStyle;startArrow=none;endArrow=block;endFill=1;exitX=0.5;exitY=1.002;exitPerimeter=0;entryX=0;entryY=0.327;entryPerimeter=0;lucidId=NswkSOKiWXn3;" parent="1" source="9sq6c23NFKgK6vMcmQ4V-5" target="9sq6c23NFKgK6vMcmQ4V-37" edge="1">
          <mxGeometry width="100" height="100" relative="1" as="geometry">
            <Array as="points" />
          </mxGeometry>
        </mxCell>
        <mxCell id="9sq6c23NFKgK6vMcmQ4V-85" value="" style="html=1;jettySize=18;whiteSpace=wrap;fontSize=13;strokeColor=#5E5E5E;strokeWidth=1.5;rounded=1;arcSize=12;edgeStyle=orthogonalEdgeStyle;startArrow=none;endArrow=block;endFill=1;exitX=0.5;exitY=1.004;exitPerimeter=0;entryX=1.004;entryY=0.496;entryPerimeter=0;lucidId=QswkS2HTbWYk;" parent="1" source="9sq6c23NFKgK6vMcmQ4V-6" target="9sq6c23NFKgK6vMcmQ4V-4" edge="1">
          <mxGeometry width="100" height="100" relative="1" as="geometry">
            <Array as="points">
              <mxPoint x="915" y="1189" />
            </Array>
          </mxGeometry>
        </mxCell>
        <mxCell id="9sq6c23NFKgK6vMcmQ4V-86" value="" style="html=1;jettySize=18;whiteSpace=wrap;fontSize=13;strokeColor=#5E5E5E;strokeWidth=1.5;rounded=1;arcSize=12;edgeStyle=orthogonalEdgeStyle;startArrow=none;endArrow=block;endFill=1;exitX=0.5;exitY=1.004;exitPerimeter=0;entryX=0.517;entryY=-0.012;entryPerimeter=0;lucidId=HtwkA_UUGRgp;" parent="1" source="9sq6c23NFKgK6vMcmQ4V-4" target="9sq6c23NFKgK6vMcmQ4V-26" edge="1">
          <mxGeometry width="100" height="100" relative="1" as="geometry">
            <Array as="points" />
          </mxGeometry>
        </mxCell>
        <mxCell id="9sq6c23NFKgK6vMcmQ4V-87" value="" style="html=1;jettySize=18;whiteSpace=wrap;fontSize=13;strokeColor=#5E5E5E;strokeWidth=1.5;rounded=1;arcSize=12;edgeStyle=orthogonalEdgeStyle;startArrow=none;endArrow=block;endFill=1;exitX=0.5;exitY=1.002;exitPerimeter=0;entryX=0.184;entryY=-0.012;entryPerimeter=0;lucidId=RtwkWpd~_rEK;" parent="1" source="9sq6c23NFKgK6vMcmQ4V-3" target="9sq6c23NFKgK6vMcmQ4V-26" edge="1">
          <mxGeometry width="100" height="100" relative="1" as="geometry">
            <Array as="points">
              <mxPoint x="-82" y="1478" />
              <mxPoint x="554" y="1478" />
            </Array>
          </mxGeometry>
        </mxCell>
        <mxCell id="9sq6c23NFKgK6vMcmQ4V-88" value="" style="html=1;jettySize=18;whiteSpace=wrap;fontSize=13;strokeColor=#5E5E5E;strokeWidth=1.5;rounded=1;arcSize=12;edgeStyle=orthogonalEdgeStyle;startArrow=none;endArrow=block;endFill=1;exitX=0.5;exitY=1.003;exitPerimeter=0;entryX=0.418;entryY=0.062;entryPerimeter=0;lucidId=AuwkQWSE7uFf;" parent="1" source="9sq6c23NFKgK6vMcmQ4V-12" target="9sq6c23NFKgK6vMcmQ4V-129" edge="1">
          <mxGeometry width="100" height="100" relative="1" as="geometry">
            <Array as="points" />
          </mxGeometry>
        </mxCell>
        <mxCell id="9sq6c23NFKgK6vMcmQ4V-89" value="" style="html=1;overflow=block;blockSpacing=1;whiteSpace=wrap;fontSize=13;spacing=9;strokeColor=#5e5e5e;strokeOpacity=100;fillOpacity=0;rounded=1;absoluteArcSize=1;arcSize=9;fillColor=#000000;dashed=1;fixDash=1;strokeWidth=2.3;lucidId=avwkpogTWmM8;" parent="1" vertex="1">
          <mxGeometry x="-150" y="2062" width="555" height="383" as="geometry" />
        </mxCell>
        <mxCell id="9sq6c23NFKgK6vMcmQ4V-90" value="Прогнозы параметров ФЭМ" style="html=1;overflow=block;blockSpacing=1;whiteSpace=wrap;fontSize=16.7;fontColor=#333333;spacing=9;strokeColor=#5e5e5e;strokeOpacity=100;rounded=1;absoluteArcSize=1;arcSize=9;strokeWidth=2.3;lucidId=KvwkaLgfl1v1;" parent="1" vertex="1">
          <mxGeometry x="-120" y="2082" width="115" height="90" as="geometry" />
        </mxCell>
        <mxCell id="9sq6c23NFKgK6vMcmQ4V-91" value="&lt;div style=&quot;display: flex; justify-content: flex-start; text-align: left; align-items: baseline; font-size: 0; line-height: 1.25;margin-top: -2px;&quot;&gt;&lt;span&gt;&lt;span style=&quot;font-size:16.7px;color:#333333;font-weight: bold;&quot;&gt;Параметры&lt;/span&gt;&lt;span style=&quot;font-size:16.7px;color:#333333;&quot;&gt;: &#xa;&lt;/span&gt;&lt;/span&gt;&lt;/div&gt;&lt;ul style=&quot;margin: 0px; padding-left: 10px;list-style-position: inside; list-style-type:disc&quot;&gt;&lt;li style=&quot;text-align:left;color:#834187;font-size:16.7px;&quot;&gt;&lt;span style=&quot;margin-left: 0px;margin-top: -2px;&quot;&gt;&lt;span style=&quot;font-size:16.7px;&quot;&gt;&lt;span style=&quot;font-size:16.7px;color:#834187;&quot;&gt;Горизонт расчета&lt;/span&gt;&lt;span style=&quot;font-size:16.7px;color:#333333;&quot;&gt;&lt;/span&gt;&lt;/span&gt;&lt;/span&gt;&lt;/li&gt;&lt;li style=&quot;text-align:left;color:#629755;font-size:16.7px;&quot;&gt;&lt;span style=&quot;margin-left: 0px;margin-top: -2px;&quot;&gt;&lt;span style=&quot;font-size:16.7px;&quot;&gt;&lt;span style=&quot;font-size:16.7px;color:#629755;&quot;&gt;Реальная заработная плата работников организаций&lt;/span&gt;&lt;/span&gt;&lt;/span&gt;&lt;/li&gt;&lt;li style=&quot;text-align:left;color:#629755;font-size:16.7px;&quot;&gt;&lt;span style=&quot;margin-left: 0px;margin-top: -2px;&quot;&gt;&lt;span style=&quot;font-size:16.7px;color:#629755;&quot;&gt;Курс доллара (среднегодовой)&lt;/span&gt;&lt;/span&gt;&lt;/li&gt;&lt;li style=&quot;text-align:left;color:#629755;font-size:16.7px;&quot;&gt;&lt;span style=&quot;margin-left: 0px;margin-top: -2px;&quot;&gt;&lt;span style=&quot;font-size:16.7px;color:#629755;&quot;&gt;темп изменения стоимости Li-Ion аккумуляторных батарей&lt;/span&gt;&lt;/span&gt;&lt;/li&gt;&lt;li style=&quot;text-align:left;color:#629755;font-size:16.7px;&quot;&gt;&lt;span style=&quot;margin-left: 0px;margin-top: -2px;&quot;&gt;&lt;span style=&quot;font-size:13px;color:#629755;&quot;&gt;&lt;span style=&quot;font-size:16.7px;color:#629755;&quot;&gt;Электроэнергия -&lt;/span&gt;&lt;span style=&quot;font-size:15.7px;color:#629755;&quot;&gt;индексация тарифов сетевых компаний для  всех категорий потребителей, исключая населения, % в среднем за год к предыдущему году&lt;/span&gt;&lt;/span&gt;&lt;/span&gt;&lt;/li&gt;&lt;li style=&quot;text-align:left;color:#629755;font-size:15.7px;&quot;&gt;&lt;span style=&quot;margin-left: 0px;margin-top: -2px;&quot;&gt;&lt;span style=&quot;font-size:15.7px;color:#629755;&quot;&gt;Рост цен в руб./ для всех категорий потребителей на розничном рынке, искл. население, в среднем за год к предыдущему году, %&lt;/span&gt;&lt;span style=&quot;font-size:18.3px;color:#629755;&quot;&gt;&lt;/span&gt;&lt;span style=&quot;font-size:15.7px;color:#629755;&quot;&gt;&lt;/span&gt;&lt;/span&gt;&lt;/li&gt;&lt;li style=&quot;text-align:left;color:#629755;font-size:15.7px;&quot;&gt;&lt;span style=&quot;margin-left: 0px;margin-top: -2px;&quot;&gt;&lt;span style=&quot;font-size:15.7px;color:#629755;&quot;&gt;Темп роста свободной (нерегулируемой) цены мощности за 1 МВт пикового потребления в первой ценовой зоне, % г/г&lt;/span&gt;&lt;/span&gt;&lt;/li&gt;&lt;/ul&gt;" style="html=1;overflow=block;blockSpacing=1;whiteSpace=wrap;fontSize=13;spacing=3.8;verticalAlign=middle;strokeOpacity=0;fillOpacity=0;rounded=1;absoluteArcSize=1;arcSize=9;fillColor=#ffffff;strokeWidth=2.3;lucidId=qwwkG6ZVF2pY;" parent="1" vertex="1">
          <mxGeometry x="-135" y="2062" width="518" height="499" as="geometry" />
        </mxCell>
        <mxCell id="9sq6c23NFKgK6vMcmQ4V-92" value="" style="html=1;overflow=block;blockSpacing=1;whiteSpace=wrap;ellipse;shape=cloud;fontSize=13;spacing=3.8;strokeColor=#5e5e5e;strokeOpacity=100;fillOpacity=100;rounded=1;absoluteArcSize=1;arcSize=9;fillColor=#c1e4f7;strokeWidth=2.3;lucidId=Ixwke2uYLsds;" parent="1" vertex="1">
          <mxGeometry x="-390" y="2016" width="120" height="90" as="geometry" />
        </mxCell>
        <mxCell id="9sq6c23NFKgK6vMcmQ4V-93" value="" style="html=1;jettySize=18;whiteSpace=wrap;fontSize=13;strokeColor=#5E5E5E;strokeWidth=1.5;rounded=1;arcSize=12;edgeStyle=orthogonalEdgeStyle;startArrow=none;endArrow=block;endFill=1;exitX=0.497;exitY=0.977;exitPerimeter=0;entryX=-0.002;entryY=0.33;entryPerimeter=0;lucidId=QxwkDaYi~ZVq;" parent="1" source="9sq6c23NFKgK6vMcmQ4V-92" target="9sq6c23NFKgK6vMcmQ4V-89" edge="1">
          <mxGeometry width="100" height="100" relative="1" as="geometry">
            <Array as="points" />
          </mxGeometry>
        </mxCell>
        <mxCell id="9sq6c23NFKgK6vMcmQ4V-94" value="В РАЗРАБОТКЕ" style="html=1;overflow=block;blockSpacing=1;whiteSpace=wrap;fontSize=73.3;fontColor=#999999;fontStyle=1;spacing=3.8;strokeOpacity=0;fillOpacity=0;rounded=1;absoluteArcSize=1;arcSize=9;fillColor=#ffffff;strokeWidth=2.3;lucidId=EKxkRLidbyi4;" parent="1" vertex="1">
          <mxGeometry x="2070" y="694" width="946" height="95" as="geometry" />
        </mxCell>
        <mxCell id="9sq6c23NFKgK6vMcmQ4V-95" value="Модуль подбора оптимальных параметров накопителей" style="html=1;overflow=block;blockSpacing=1;whiteSpace=wrap;fontSize=16.7;fontColor=#333333;spacing=9;strokeColor=#5e5e5e;strokeOpacity=100;fillOpacity=100;rounded=1;absoluteArcSize=1;arcSize=9;fillColor=#ffffff;strokeWidth=2.3;lucidId=9LxkisYMnaH4;" parent="1" vertex="1">
          <mxGeometry x="867" y="1731" width="165" height="96" as="geometry" />
        </mxCell>
        <mxCell id="9sq6c23NFKgK6vMcmQ4V-96" value="В РАЗРАБОТКЕ" style="html=1;overflow=block;blockSpacing=1;whiteSpace=wrap;fontSize=35;fontColor=#999999;fontStyle=1;spacing=3.8;strokeOpacity=0;fillOpacity=0;rounded=1;absoluteArcSize=1;arcSize=9;fillColor=#ffffff;strokeWidth=2.3;lucidId=mTxkzj2m_JuX;" parent="1" vertex="1">
          <mxGeometry x="712" y="1672" width="500" height="53" as="geometry" />
        </mxCell>
        <mxCell id="9sq6c23NFKgK6vMcmQ4V-97" value="Модуль подбора оптимальных параметров СЭС" style="html=1;overflow=block;blockSpacing=1;whiteSpace=wrap;fontSize=16.7;fontColor=#333333;spacing=9;strokeColor=#5e5e5e;strokeOpacity=100;fillOpacity=100;rounded=1;absoluteArcSize=1;arcSize=9;fillColor=#ffffff;strokeWidth=2.3;lucidId=eUxk.EN-eTD9;" parent="1" vertex="1">
          <mxGeometry x="867" y="1866" width="165" height="90" as="geometry" />
        </mxCell>
        <mxCell id="9sq6c23NFKgK6vMcmQ4V-98" value="" style="html=1;overflow=block;blockSpacing=1;whiteSpace=wrap;fontSize=13;spacing=9;strokeColor=#5e5e5e;strokeOpacity=100;fillOpacity=100;rounded=1;absoluteArcSize=1;arcSize=9;fillColor=#834187;strokeWidth=2.3;lucidId=~7xk9oZ0BA67;" parent="1" vertex="1">
          <mxGeometry x="-247" y="114" width="45" height="30" as="geometry" />
        </mxCell>
        <mxCell id="9sq6c23NFKgK6vMcmQ4V-99" value="" style="html=1;overflow=block;blockSpacing=1;whiteSpace=wrap;fontSize=13;spacing=9;strokeColor=#5e5e5e;strokeOpacity=100;fillOpacity=100;rounded=1;absoluteArcSize=1;arcSize=9;fillColor=#0c7cba;strokeWidth=2.3;lucidId=C8xkJH8S0w0E;" parent="1" vertex="1">
          <mxGeometry x="-247" y="159" width="45" height="30" as="geometry" />
        </mxCell>
        <mxCell id="9sq6c23NFKgK6vMcmQ4V-100" value="" style="html=1;overflow=block;blockSpacing=1;whiteSpace=wrap;fontSize=13;spacing=9;strokeColor=#5e5e5e;strokeOpacity=100;fillOpacity=100;rounded=1;absoluteArcSize=1;arcSize=9;fillColor=#c92d39;strokeWidth=2.3;lucidId=F8xkoeyH.iG4;" parent="1" vertex="1">
          <mxGeometry x="-247" y="204" width="45" height="30" as="geometry" />
        </mxCell>
        <mxCell id="9sq6c23NFKgK6vMcmQ4V-101" value="Производные параметры " style="html=1;overflow=block;blockSpacing=1;whiteSpace=wrap;fontSize=16.7;fontColor=#333333;align=left;spacing=3.8;strokeOpacity=0;fillOpacity=0;rounded=1;absoluteArcSize=1;arcSize=9;fillColor=#ffffff;strokeWidth=2.3;lucidId=i9xkaGjWqIR0;" parent="1" vertex="1">
          <mxGeometry x="-195" y="185" width="223" height="68" as="geometry" />
        </mxCell>
        <mxCell id="9sq6c23NFKgK6vMcmQ4V-102" value="Данные получаемые из внешних сервисов" style="html=1;overflow=block;blockSpacing=1;whiteSpace=wrap;fontSize=16.7;fontColor=#333333;align=left;spacing=3.8;strokeOpacity=0;fillOpacity=0;rounded=1;absoluteArcSize=1;arcSize=9;fillColor=#ffffff;strokeWidth=2.3;lucidId=m9xkpboA-T-v;" parent="1" vertex="1">
          <mxGeometry x="-195" y="150" width="369" height="48" as="geometry" />
        </mxCell>
        <mxCell id="9sq6c23NFKgK6vMcmQ4V-103" value="Параметры задаваемые пользователем" style="html=1;overflow=block;blockSpacing=1;whiteSpace=wrap;fontSize=16.7;fontColor=#333333;align=left;spacing=3.8;strokeOpacity=0;fillOpacity=0;rounded=1;absoluteArcSize=1;arcSize=9;fillColor=#ffffff;strokeWidth=2.3;lucidId=q9xk.yRqxWwN;" parent="1" vertex="1">
          <mxGeometry x="-195" y="105" width="360" height="48" as="geometry" />
        </mxCell>
        <mxCell id="9sq6c23NFKgK6vMcmQ4V-104" value="Free" style="html=1;overflow=block;blockSpacing=1;whiteSpace=wrap;ellipse;shape=cloud;fontSize=16.7;fontColor=#333333;spacing=3.8;strokeColor=#5e5e5e;strokeOpacity=100;rounded=1;absoluteArcSize=1;arcSize=9;strokeWidth=2.3;lucidId=RjAk6z6DHYSH;" parent="1" vertex="1">
          <mxGeometry x="1950" y="700" width="120" height="90" as="geometry" />
        </mxCell>
        <mxCell id="9sq6c23NFKgK6vMcmQ4V-105" value="$$$" style="html=1;overflow=block;blockSpacing=1;whiteSpace=wrap;ellipse;shape=cloud;fontSize=16.7;fontColor=#333333;spacing=3.8;strokeColor=#5e5e5e;strokeOpacity=100;rounded=1;absoluteArcSize=1;arcSize=9;strokeWidth=2.3;lucidId=8jAkHOlw1x2d;" parent="1" vertex="1">
          <mxGeometry x="2115" y="700" width="120" height="90" as="geometry" />
        </mxCell>
        <mxCell id="9sq6c23NFKgK6vMcmQ4V-106" value="" style="html=1;overflow=block;blockSpacing=1;whiteSpace=wrap;shape=image;fontSize=13;spacing=0;strokeColor=none;strokeOpacity=100;strokeWidth=0;image=https://images.lucid.app/images/f35f6fb4-5659-4c0b-a43c-04a9f83e49fa/content;imageAspect=0;lucidId=ypAkomiW6Wv_;" parent="1" vertex="1">
          <mxGeometry x="615" y="613" width="87" height="87" as="geometry" />
        </mxCell>
        <mxCell id="9sq6c23NFKgK6vMcmQ4V-107" value="" style="html=1;overflow=block;blockSpacing=1;whiteSpace=wrap;shape=image;fontSize=13;spacing=0;strokeColor=none;strokeOpacity=100;strokeWidth=0;image=https://images.lucid.app/images/e13cf14f-ae33-4435-b4fd-aeacfbbd9eb5/content;imageAspect=0;lucidId=6sAkIoesNXF9;" parent="1" vertex="1">
          <mxGeometry x="478" y="1800" width="230" height="127" as="geometry" />
        </mxCell>
        <mxCell id="9sq6c23NFKgK6vMcmQ4V-108" value="Оптимизатор" style="html=1;overflow=block;blockSpacing=1;whiteSpace=wrap;fontSize=20;fontColor=#333333;fontStyle=1;spacing=3.8;strokeOpacity=0;fillOpacity=0;rounded=1;absoluteArcSize=1;arcSize=9;fillColor=#ffffff;strokeWidth=2.3;lucidId=_tAkbipXJ.iO;" parent="1" vertex="1">
          <mxGeometry x="501" y="1710" width="180" height="45" as="geometry" />
        </mxCell>
        <mxCell id="9sq6c23NFKgK6vMcmQ4V-109" value="" style="html=1;jettySize=18;whiteSpace=wrap;fontSize=13;strokeColor=#5E5E5E;strokeWidth=1.5;rounded=1;arcSize=12;edgeStyle=orthogonalEdgeStyle;startArrow=none;endArrow=block;endFill=1;exitX=0.5;exitY=1.012;exitPerimeter=0;entryX=0.5;entryY=-0.007;entryPerimeter=0;lucidId=MuAkSXCSgscd;" parent="1" source="9sq6c23NFKgK6vMcmQ4V-26" target="9sq6c23NFKgK6vMcmQ4V-2" edge="1">
          <mxGeometry width="100" height="100" relative="1" as="geometry">
            <Array as="points" />
          </mxGeometry>
        </mxCell>
        <mxCell id="9sq6c23NFKgK6vMcmQ4V-110" value="" style="html=1;jettySize=18;whiteSpace=wrap;fontSize=13;strokeColor=#5E5E5E;strokeWidth=1.5;rounded=1;arcSize=12;edgeStyle=orthogonalEdgeStyle;startArrow=none;endArrow=block;endFill=1;exitX=0.5;exitY=1.007;exitPerimeter=0;entryX=0.108;entryY=-0.002;entryPerimeter=0;lucidId=3uAk-bT3_Qz8;" parent="1" source="9sq6c23NFKgK6vMcmQ4V-2" target="9sq6c23NFKgK6vMcmQ4V-9" edge="1">
          <mxGeometry width="100" height="100" relative="1" as="geometry">
            <Array as="points" />
          </mxGeometry>
        </mxCell>
        <mxCell id="9sq6c23NFKgK6vMcmQ4V-111" value="Модуль расчета ФЭМ" style="html=1;overflow=block;blockSpacing=1;whiteSpace=wrap;fontSize=23.3;fontColor=#333333;fontStyle=1;spacing=3.8;strokeOpacity=0;fillOpacity=0;rounded=1;absoluteArcSize=1;arcSize=9;fillColor=#ffffff;strokeWidth=2.3;lucidId=SyAkO0rDA0-D;" parent="1" vertex="1">
          <mxGeometry x="536" y="2596" width="281" height="63" as="geometry" />
        </mxCell>
        <mxCell id="9sq6c23NFKgK6vMcmQ4V-112" value="" style="html=1;overflow=block;blockSpacing=1;whiteSpace=wrap;fontSize=13;spacing=9;strokeColor=#5e5e5e;strokeOpacity=100;fillOpacity=100;rounded=1;absoluteArcSize=1;arcSize=9;fillColor=#999999;strokeWidth=2.3;lucidId=XtPkgNZZNUrk;" parent="1" vertex="1">
          <mxGeometry x="-247" y="296" width="45" height="30" as="geometry" />
        </mxCell>
        <mxCell id="9sq6c23NFKgK6vMcmQ4V-113" value="В разработке" style="html=1;overflow=block;blockSpacing=1;whiteSpace=wrap;fontSize=16.7;fontColor=#333333;align=left;spacing=3.8;strokeOpacity=0;fillOpacity=0;rounded=1;absoluteArcSize=1;arcSize=9;fillColor=#ffffff;strokeWidth=2.3;lucidId=3tPk_b-1-AQ_;" parent="1" vertex="1">
          <mxGeometry x="-195" y="279" width="142" height="68" as="geometry" />
        </mxCell>
        <mxCell id="9sq6c23NFKgK6vMcmQ4V-114" value="&lt;div style=&quot;display: flex; justify-content: center; text-align: center; align-items: baseline; font-size: 0; line-height: 1.25;margin-top: -2px;&quot;&gt;&lt;span&gt;&lt;span style=&quot;font-size:16.7px;color:#333333;font-weight: bold;&quot;&gt;DATASHEET PV parameters&lt;/span&gt;&lt;span style=&quot;font-size:16.7px;color:#333333;&quot;&gt;    Nominal efficiency, Pmp, Vmp, Imp, Voc, Isc, temperature coefficients&lt;/span&gt;&lt;/span&gt;&lt;/div&gt;" style="html=1;overflow=block;blockSpacing=1;whiteSpace=wrap;fontSize=13;spacing=9;strokeColor=#5e5e5e;strokeOpacity=100;fillOpacity=100;rounded=1;absoluteArcSize=1;arcSize=9;fillColor=#fcc438;strokeWidth=2.3;lucidId=ZJPkfA_zL~Vq;" parent="1" vertex="1">
          <mxGeometry x="-539" y="-1450" width="180" height="138" as="geometry" />
        </mxCell>
        <mxCell id="9sq6c23NFKgK6vMcmQ4V-115" value="&lt;div style=&quot;display: flex; justify-content: center; text-align: center; align-items: baseline; font-size: 0; line-height: 1.25;margin-top: -2px;&quot;&gt;&lt;span&gt;&lt;span style=&quot;font-size:16.7px;color:#333333;font-weight: bold;&quot;&gt;Задача&lt;/span&gt;&lt;span style=&quot;font-size:16.7px;color:#333333;&quot;&gt;: Выбор оптимального состава оборудования с учетом заданых ограничений &lt;/span&gt;&lt;/span&gt;&lt;/div&gt;" style="html=1;overflow=block;blockSpacing=1;whiteSpace=wrap;fontSize=13;spacing=3.8;strokeOpacity=0;fillOpacity=0;rounded=1;absoluteArcSize=1;arcSize=9;fillColor=#ffffff;strokeWidth=2.3;lucidId=CMPkWJ-zg7B8;" parent="1" vertex="1">
          <mxGeometry x="478" y="1731" width="239" height="88" as="geometry" />
        </mxCell>
        <mxCell id="9sq6c23NFKgK6vMcmQ4V-116" value="" style="html=1;jettySize=18;whiteSpace=wrap;fontSize=13;strokeColor=#5E5E5E;strokeWidth=1.5;rounded=1;arcSize=12;edgeStyle=orthogonalEdgeStyle;startArrow=none;endArrow=block;endFill=1;exitX=1.005;exitY=0.46;exitPerimeter=0;entryX=-0.004;entryY=0.413;entryPerimeter=0;lucidId=oQPkePo7XnkK;" parent="1" source="9sq6c23NFKgK6vMcmQ4V-2" target="9sq6c23NFKgK6vMcmQ4V-8" edge="1">
          <mxGeometry width="100" height="100" relative="1" as="geometry">
            <Array as="points" />
          </mxGeometry>
        </mxCell>
        <mxCell id="9sq6c23NFKgK6vMcmQ4V-117" value="" style="html=1;jettySize=18;whiteSpace=wrap;fontSize=13;strokeColor=#5E5E5E;strokeWidth=1.5;rounded=1;arcSize=12;edgeStyle=orthogonalEdgeStyle;startArrow=none;endArrow=block;endFill=1;exitX=-0.004;exitY=0.557;exitPerimeter=0;entryX=1.005;entryY=0.681;entryPerimeter=0;lucidId=qQPk3dJwArvL;" parent="1" source="9sq6c23NFKgK6vMcmQ4V-8" target="9sq6c23NFKgK6vMcmQ4V-2" edge="1">
          <mxGeometry width="100" height="100" relative="1" as="geometry">
            <Array as="points" />
          </mxGeometry>
        </mxCell>
        <mxCell id="9sq6c23NFKgK6vMcmQ4V-118" value="" style="html=1;overflow=block;blockSpacing=1;whiteSpace=wrap;fontSize=13;spacing=9;strokeColor=#5e5e5e;strokeOpacity=100;fillOpacity=0;rounded=1;absoluteArcSize=1;arcSize=9;fillColor=#000000;dashed=1;fixDash=1;strokeWidth=2.3;lucidId=01PkGhErhLU8;" parent="1" vertex="1">
          <mxGeometry x="498" y="2891" width="388" height="255" as="geometry" />
        </mxCell>
        <mxCell id="9sq6c23NFKgK6vMcmQ4V-119" value="" style="html=1;overflow=block;blockSpacing=1;whiteSpace=wrap;fontSize=13;spacing=3.8;strokeOpacity=0;fillOpacity=0;rounded=1;absoluteArcSize=1;arcSize=9;fillColor=#ffffff;strokeWidth=2.3;lucidId=g6PkIVQ0Igwk;" parent="1" vertex="1">
          <mxGeometry x="470" y="2951" width="180" height="45" as="geometry" />
        </mxCell>
        <mxCell id="9sq6c23NFKgK6vMcmQ4V-120" value="&lt;div style=&quot;display: flex; justify-content: center; text-align: center; align-items: baseline; font-size: 0; line-height: 1.25;margin-top: -2px;&quot;&gt;&lt;span&gt;&lt;span style=&quot;font-size:20px;color:#333333;font-weight: bold;&quot;&gt;Финансово-экономическая модель проекта&lt;/span&gt;&lt;span style=&quot;font-size:16.7px;color:#333333;&quot;&gt;:&#xa;&lt;/span&gt;&lt;/span&gt;&lt;/div&gt;&lt;ul style=&quot;margin: 0px; padding-left: 10px;list-style-position: inside; list-style-type:disc&quot;&gt;&lt;li style=&quot;text-align:left;color:#333333;font-size:16.7px;&quot;&gt;&lt;span style=&quot;margin-left: 0px;margin-top: -2px;&quot;&gt;&lt;span style=&quot;font-size:16.7px;color:#333333;&quot;&gt;Свободный денежный поток, руб.&lt;/span&gt;&lt;/span&gt;&lt;/li&gt;&lt;li style=&quot;text-align:left;color:#333333;font-size:16.7px;&quot;&gt;&lt;span style=&quot;margin-left: 0px;margin-top: -2px;&quot;&gt;&lt;span style=&quot;font-size:16.7px;color:#333333;&quot;&gt;Дисконтированный денежный поток, руб&lt;/span&gt;&lt;/span&gt;&lt;/li&gt;&lt;li style=&quot;text-align:left;color:#333333;font-size:16.7px;&quot;&gt;&lt;span style=&quot;margin-left: 0px;margin-top: -2px;&quot;&gt;&lt;span style=&quot;font-size:16.7px;color:#333333;&quot;&gt;Дисконтированный денежный поток с накопленным итогом, руб.&lt;/span&gt;&lt;/span&gt;&lt;/li&gt;&lt;li style=&quot;text-align:left;color:#333333;font-size:16.7px;&quot;&gt;&lt;span style=&quot;margin-left: 0px;margin-top: -2px;&quot;&gt;&lt;span style=&quot;font-size:16.7px;color:#333333;&quot;&gt;Чистый дисконтированный доход, руб.&lt;/span&gt;&lt;/span&gt;&lt;/li&gt;&lt;li style=&quot;text-align:left;color:#333333;font-size:16.7px;&quot;&gt;&lt;span style=&quot;margin-left: 0px;margin-top: -2px;&quot;&gt;&lt;span style=&quot;font-size:16.7px;color:#333333;&quot;&gt;Внутреняя норма доходности, %&lt;/span&gt;&lt;/span&gt;&lt;/li&gt;&lt;li style=&quot;text-align:left;color:#333333;font-size:16.7px;&quot;&gt;&lt;span style=&quot;margin-left: 0px;margin-top: -2px;&quot;&gt;&lt;span style=&quot;font-size:16.7px;color:#333333;&quot;&gt;Дисконтированный срок окупаемости, лет&lt;/span&gt;&lt;/span&gt;&lt;/li&gt;&lt;li style=&quot;text-align:left;color:#333333;font-size:16.7px;&quot;&gt;&lt;span style=&quot;margin-left: 0px;margin-top: -2px;&quot;&gt;&lt;span style=&quot;font-size:16.7px;color:#333333;&quot;&gt;Экономика базового варианта&lt;/span&gt;&lt;/span&gt;&lt;/li&gt;&lt;li style=&quot;text-align:left;color:#333333;font-size:16.7px;&quot;&gt;&lt;span style=&quot;margin-left: 0px;margin-top: -2px;&quot;&gt;&lt;span style=&quot;font-size:16.7px;color:#333333;&quot;&gt;Экономика альтернативного варианта&lt;/span&gt;&lt;/span&gt;&lt;/li&gt;&lt;/ul&gt;" style="html=1;overflow=block;blockSpacing=1;whiteSpace=wrap;fontSize=13;spacing=3.8;strokeOpacity=0;fillOpacity=0;rounded=1;absoluteArcSize=1;arcSize=9;fillColor=#ffffff;strokeWidth=2.3;lucidId=J8PkDyfGBYrG;" parent="1" vertex="1">
          <mxGeometry x="516" y="2906" width="352" height="236" as="geometry" />
        </mxCell>
        <mxCell id="9sq6c23NFKgK6vMcmQ4V-121" value="" style="html=1;jettySize=18;whiteSpace=wrap;fontSize=13;strokeColor=#5E5E5E;strokeWidth=1.5;rounded=1;arcSize=12;edgeStyle=orthogonalEdgeStyle;startArrow=none;endArrow=block;endFill=1;exitX=0.5;exitY=1.006;exitPerimeter=0;entryX=0.456;entryY=-0.004;entryPerimeter=0;lucidId=AbQkOx1xZN3~;" parent="1" source="9sq6c23NFKgK6vMcmQ4V-1" target="9sq6c23NFKgK6vMcmQ4V-118" edge="1">
          <mxGeometry width="100" height="100" relative="1" as="geometry">
            <Array as="points" />
          </mxGeometry>
        </mxCell>
        <mxCell id="9sq6c23NFKgK6vMcmQ4V-122" value="" style="html=1;jettySize=18;whiteSpace=wrap;fontSize=13;strokeColor=#5E5E5E;strokeWidth=1.5;rounded=1;arcSize=12;edgeStyle=orthogonalEdgeStyle;startArrow=none;endArrow=block;endFill=1;exitX=0.267;exitY=1.002;exitPerimeter=0;entryX=0.491;entryY=-0.006;entryPerimeter=0;lucidId=ocQkderuYahr;" parent="1" source="9sq6c23NFKgK6vMcmQ4V-9" target="9sq6c23NFKgK6vMcmQ4V-1" edge="1">
          <mxGeometry width="100" height="100" relative="1" as="geometry">
            <Array as="points" />
          </mxGeometry>
        </mxCell>
        <mxCell id="9sq6c23NFKgK6vMcmQ4V-123" value="" style="html=1;overflow=block;blockSpacing=1;whiteSpace=wrap;fontSize=13;spacing=9;strokeColor=#5e5e5e;strokeOpacity=100;fillOpacity=100;rounded=1;absoluteArcSize=1;arcSize=9;fillColor=#7ab648;strokeWidth=2.3;lucidId=p4QkA4eWzKPJ;" parent="1" vertex="1">
          <mxGeometry x="-247" y="249" width="45" height="30" as="geometry" />
        </mxCell>
        <mxCell id="9sq6c23NFKgK6vMcmQ4V-124" value="Справочные данные" style="html=1;overflow=block;blockSpacing=1;whiteSpace=wrap;fontSize=16.7;fontColor=#333333;align=left;spacing=3.8;strokeOpacity=0;fillOpacity=0;rounded=1;absoluteArcSize=1;arcSize=9;fillColor=#ffffff;strokeWidth=2.3;lucidId=W4QkvAr5gh.B;" parent="1" vertex="1">
          <mxGeometry x="-195" y="229" width="208" height="68" as="geometry" />
        </mxCell>
        <mxCell id="9sq6c23NFKgK6vMcmQ4V-125" value="" style="html=1;jettySize=18;whiteSpace=wrap;fontSize=13;strokeColor=#5E5E5E;strokeWidth=1.5;rounded=1;arcSize=12;edgeStyle=orthogonalEdgeStyle;startArrow=none;endArrow=block;endFill=1;exitX=0.5;exitY=1.004;exitPerimeter=0;entryX=0.522;entryY=-0.003;entryPerimeter=0;lucidId=IsRk1.CgBGj~;" parent="1" source="9sq6c23NFKgK6vMcmQ4V-7" target="9sq6c23NFKgK6vMcmQ4V-11" edge="1">
          <mxGeometry width="100" height="100" relative="1" as="geometry">
            <Array as="points" />
          </mxGeometry>
        </mxCell>
        <mxCell id="9sq6c23NFKgK6vMcmQ4V-126" value="" style="html=1;jettySize=18;whiteSpace=wrap;fontSize=13;strokeColor=#5E5E5E;strokeWidth=1.5;rounded=1;arcSize=12;edgeStyle=orthogonalEdgeStyle;startArrow=none;endArrow=block;endFill=1;exitX=-0.002;exitY=0.244;exitPerimeter=0;entryX=1.002;entryY=0.26;entryPerimeter=0;lucidId=FHRkmZuidb8g;" parent="1" source="9sq6c23NFKgK6vMcmQ4V-9" target="9sq6c23NFKgK6vMcmQ4V-89" edge="1">
          <mxGeometry width="100" height="100" relative="1" as="geometry">
            <Array as="points" />
          </mxGeometry>
        </mxCell>
        <mxCell id="9sq6c23NFKgK6vMcmQ4V-127" value="" style="html=1;jettySize=18;whiteSpace=wrap;fontSize=13;strokeColor=#5E5E5E;strokeWidth=1.5;rounded=1;arcSize=12;edgeStyle=orthogonalEdgeStyle;startArrow=none;endArrow=block;endFill=1;exitX=1.002;exitY=0.547;exitPerimeter=0;entryX=-0.002;entryY=0.463;entryPerimeter=0;lucidId=IHRky1OZ9v~z;" parent="1" source="9sq6c23NFKgK6vMcmQ4V-89" target="9sq6c23NFKgK6vMcmQ4V-9" edge="1">
          <mxGeometry width="100" height="100" relative="1" as="geometry">
            <Array as="points" />
          </mxGeometry>
        </mxCell>
        <mxCell id="9sq6c23NFKgK6vMcmQ4V-128" value="" style="html=1;overflow=block;blockSpacing=1;whiteSpace=wrap;shape=image;fontSize=13;spacing=0;strokeColor=none;strokeOpacity=100;strokeWidth=0;image=https://images.lucid.app/images/a79aa6bd-3682-4998-a78b-8ee3fb481f2d/content;imageAspect=0;lucidId=CURk0o6Y60B3;" parent="1" vertex="1">
          <mxGeometry x="602" y="2652" width="150" height="150" as="geometry" />
        </mxCell>
        <mxCell id="9sq6c23NFKgK6vMcmQ4V-129" value="" style="html=1;overflow=block;blockSpacing=1;whiteSpace=wrap;ellipse;shape=cloud;fontSize=13;spacing=3.8;strokeColor=#5e5e5e;strokeOpacity=100;fillOpacity=100;rounded=1;absoluteArcSize=1;arcSize=9;fillColor=#c1e4f7;strokeWidth=2.3;lucidId=hWRk25dhyWB-;" parent="1" vertex="1">
          <mxGeometry x="825" y="1303" width="120" height="90" as="geometry" />
        </mxCell>
        <mxCell id="9sq6c23NFKgK6vMcmQ4V-130" value="Сервис прогноза потребления нагрузки и выработки ВИЭ" style="html=1;overflow=block;blockSpacing=1;whiteSpace=wrap;fontSize=16.7;fontColor=#333333;spacing=9;strokeColor=#5e5e5e;strokeOpacity=100;rounded=1;absoluteArcSize=1;arcSize=9;strokeWidth=2.3;lucidId=CWRk4ru2M6BZ;" parent="1" vertex="1">
          <mxGeometry x="795" y="1426" width="180" height="118" as="geometry" />
        </mxCell>
        <mxCell id="9sq6c23NFKgK6vMcmQ4V-131" value="" style="html=1;jettySize=18;whiteSpace=wrap;fontSize=13;strokeColor=#5E5E5E;strokeWidth=1.5;rounded=1;arcSize=12;edgeStyle=orthogonalEdgeStyle;startArrow=none;endArrow=block;endFill=1;exitX=0.5;exitY=1.004;exitPerimeter=0;entryX=0.75;entryY=0.099;entryPerimeter=0;lucidId=.WRkUMqwHdrw;" parent="1" source="9sq6c23NFKgK6vMcmQ4V-6" target="9sq6c23NFKgK6vMcmQ4V-129" edge="1">
          <mxGeometry width="100" height="100" relative="1" as="geometry">
            <Array as="points" />
          </mxGeometry>
        </mxCell>
        <mxCell id="9sq6c23NFKgK6vMcmQ4V-132" value="" style="html=1;jettySize=18;whiteSpace=wrap;fontSize=13;strokeColor=#5E5E5E;strokeWidth=1.5;rounded=1;arcSize=12;edgeStyle=orthogonalEdgeStyle;startArrow=none;endArrow=block;endFill=1;exitX=0.497;exitY=0.977;exitPerimeter=0;entryX=0.498;entryY=-0.01;entryPerimeter=0;lucidId=pXRkvRVgrolX;" parent="1" source="9sq6c23NFKgK6vMcmQ4V-129" target="9sq6c23NFKgK6vMcmQ4V-130" edge="1">
          <mxGeometry width="100" height="100" relative="1" as="geometry">
            <Array as="points" />
          </mxGeometry>
        </mxCell>
        <mxCell id="9sq6c23NFKgK6vMcmQ4V-133" value="" style="html=1;jettySize=18;whiteSpace=wrap;fontSize=13;strokeColor=#5E5E5E;strokeWidth=1.5;rounded=1;arcSize=12;edgeStyle=orthogonalEdgeStyle;startArrow=none;endArrow=block;endFill=1;exitX=0.5;exitY=1.004;exitPerimeter=0;entryX=1.01;entryY=0.5;entryPerimeter=0;lucidId=rXRkI1_8lO6N;" parent="1" source="9sq6c23NFKgK6vMcmQ4V-134" target="9sq6c23NFKgK6vMcmQ4V-26" edge="1">
          <mxGeometry width="100" height="100" relative="1" as="geometry">
            <Array as="points" />
          </mxGeometry>
        </mxCell>
        <mxCell id="9sq6c23NFKgK6vMcmQ4V-134" value="" style="html=1;overflow=block;blockSpacing=1;whiteSpace=wrap;fontSize=13;spacing=9;strokeColor=#5e5e5e;strokeOpacity=100;fillOpacity=0;rounded=1;absoluteArcSize=1;arcSize=9;fillColor=#000000;dashed=1;fixDash=1;strokeWidth=2.3;lucidId=GXRkkeQsN31s;" parent="1" vertex="1">
          <mxGeometry x="773" y="1285" width="218" height="273" as="geometry" />
        </mxCell>
        <mxCell id="9sq6c23NFKgK6vMcmQ4V-135" style="rounded=0;orthogonalLoop=1;jettySize=auto;html=1;entryX=0.007;entryY=0.804;entryDx=0;entryDy=0;edgeStyle=orthogonalEdgeStyle;exitX=0.5;exitY=0;exitDx=0;exitDy=0;elbow=vertical;entryPerimeter=0;" parent="1" source="9sq6c23NFKgK6vMcmQ4V-136" target="9sq6c23NFKgK6vMcmQ4V-139" edge="1">
          <mxGeometry relative="1" as="geometry" />
        </mxCell>
        <mxCell id="9sq6c23NFKgK6vMcmQ4V-136" value="АСДУ ФЭС" style="rounded=0;whiteSpace=wrap;html=1;" parent="1" vertex="1">
          <mxGeometry x="1840" y="450" width="120" height="60" as="geometry" />
        </mxCell>
        <mxCell id="9sq6c23NFKgK6vMcmQ4V-137" style="edgeStyle=elbowEdgeStyle;rounded=0;orthogonalLoop=1;jettySize=auto;elbow=vertical;html=1;entryX=0.75;entryY=0;entryDx=0;entryDy=0;exitX=1;exitY=0.75;exitDx=0;exitDy=0;" parent="1" source="9sq6c23NFKgK6vMcmQ4V-139" target="9sq6c23NFKgK6vMcmQ4V-141" edge="1">
          <mxGeometry relative="1" as="geometry">
            <Array as="points">
              <mxPoint x="2290" y="285" />
              <mxPoint x="2290" y="300" />
              <mxPoint x="2280" y="320" />
              <mxPoint x="2310" y="330" />
            </Array>
          </mxGeometry>
        </mxCell>
        <mxCell id="9sq6c23NFKgK6vMcmQ4V-138" style="edgeStyle=orthogonalEdgeStyle;rounded=0;orthogonalLoop=1;jettySize=auto;html=1;fontSize=12;fontColor=#FF3333;endArrow=none;endFill=0;elbow=vertical;startArrow=classic;startFill=1;" parent="1" source="9sq6c23NFKgK6vMcmQ4V-139" edge="1">
          <mxGeometry relative="1" as="geometry">
            <mxPoint x="2390" y="270" as="targetPoint" />
          </mxGeometry>
        </mxCell>
        <mxCell id="9sq6c23NFKgK6vMcmQ4V-139" value="АИУС ПТК AMIGO" style="rounded=0;whiteSpace=wrap;html=1;" parent="1" vertex="1">
          <mxGeometry x="2140" y="240" width="120" height="60" as="geometry" />
        </mxCell>
        <mxCell id="9sq6c23NFKgK6vMcmQ4V-140" style="edgeStyle=elbowEdgeStyle;rounded=0;orthogonalLoop=1;jettySize=auto;elbow=vertical;html=1;entryX=0.667;entryY=1;entryDx=0;entryDy=0;entryPerimeter=0;exitX=0.25;exitY=0;exitDx=0;exitDy=0;" parent="1" source="9sq6c23NFKgK6vMcmQ4V-141" target="9sq6c23NFKgK6vMcmQ4V-139" edge="1">
          <mxGeometry relative="1" as="geometry" />
        </mxCell>
        <mxCell id="9sq6c23NFKgK6vMcmQ4V-141" value="СУ СНЭЭ" style="rounded=0;whiteSpace=wrap;html=1;" parent="1" vertex="1">
          <mxGeometry x="2150" y="450" width="280" height="60" as="geometry" />
        </mxCell>
        <mxCell id="9sq6c23NFKgK6vMcmQ4V-142" style="edgeStyle=orthogonalEdgeStyle;rounded=0;orthogonalLoop=1;jettySize=auto;html=1;exitX=0.166;exitY=1.022;exitDx=0;exitDy=0;exitPerimeter=0;" parent="1" source="9sq6c23NFKgK6vMcmQ4V-144" edge="1">
          <mxGeometry relative="1" as="geometry">
            <mxPoint x="2230" y="-70" as="targetPoint" />
          </mxGeometry>
        </mxCell>
        <mxCell id="9sq6c23NFKgK6vMcmQ4V-143" style="edgeStyle=orthogonalEdgeStyle;rounded=0;orthogonalLoop=1;jettySize=auto;html=1;exitX=0.75;exitY=1;exitDx=0;exitDy=0;" parent="1" source="9sq6c23NFKgK6vMcmQ4V-144" edge="1">
          <mxGeometry relative="1" as="geometry">
            <mxPoint x="2300" y="-70" as="targetPoint" />
          </mxGeometry>
        </mxCell>
        <mxCell id="9sq6c23NFKgK6vMcmQ4V-144" value="ExternalGrid" style="rounded=0;whiteSpace=wrap;html=1;" parent="1" vertex="1">
          <mxGeometry x="2210" y="-189" width="120" height="40" as="geometry" />
        </mxCell>
        <mxCell id="9sq6c23NFKgK6vMcmQ4V-145" value="" style="endArrow=none;html=1;" parent="1" edge="1">
          <mxGeometry width="50" height="50" relative="1" as="geometry">
            <mxPoint x="2090" y="-69" as="sourcePoint" />
            <mxPoint x="2630" y="-69" as="targetPoint" />
          </mxGeometry>
        </mxCell>
        <mxCell id="9sq6c23NFKgK6vMcmQ4V-146" style="edgeStyle=orthogonalEdgeStyle;rounded=0;orthogonalLoop=1;jettySize=auto;html=1;endArrow=oval;endFill=1;" parent="1" source="9sq6c23NFKgK6vMcmQ4V-147" edge="1">
          <mxGeometry relative="1" as="geometry">
            <mxPoint x="2120" y="-69" as="targetPoint" />
          </mxGeometry>
        </mxCell>
        <mxCell id="9sq6c23NFKgK6vMcmQ4V-147" value="Invertor_1" style="rounded=0;whiteSpace=wrap;html=1;" parent="1" vertex="1">
          <mxGeometry x="2060" y="1" width="120" height="40" as="geometry" />
        </mxCell>
        <mxCell id="9sq6c23NFKgK6vMcmQ4V-148" style="edgeStyle=orthogonalEdgeStyle;rounded=0;orthogonalLoop=1;jettySize=auto;html=1;endArrow=oval;endFill=1;" parent="1" source="9sq6c23NFKgK6vMcmQ4V-149" edge="1">
          <mxGeometry relative="1" as="geometry">
            <mxPoint x="2260" y="-69" as="targetPoint" />
          </mxGeometry>
        </mxCell>
        <mxCell id="9sq6c23NFKgK6vMcmQ4V-149" value="Invertor_N" style="rounded=0;whiteSpace=wrap;html=1;" parent="1" vertex="1">
          <mxGeometry x="2200" y="1" width="120" height="40" as="geometry" />
        </mxCell>
        <mxCell id="9sq6c23NFKgK6vMcmQ4V-150" style="edgeStyle=orthogonalEdgeStyle;rounded=0;orthogonalLoop=1;jettySize=auto;html=1;endArrow=oval;endFill=1;" parent="1" source="9sq6c23NFKgK6vMcmQ4V-151" edge="1">
          <mxGeometry relative="1" as="geometry">
            <mxPoint x="2400" y="-69" as="targetPoint" />
          </mxGeometry>
        </mxCell>
        <mxCell id="9sq6c23NFKgK6vMcmQ4V-151" value="Load" style="rounded=0;whiteSpace=wrap;html=1;" parent="1" vertex="1">
          <mxGeometry x="2340" y="1" width="120" height="40" as="geometry" />
        </mxCell>
        <mxCell id="9sq6c23NFKgK6vMcmQ4V-152" style="edgeStyle=orthogonalEdgeStyle;rounded=0;orthogonalLoop=1;jettySize=auto;html=1;endArrow=oval;endFill=1;" parent="1" source="9sq6c23NFKgK6vMcmQ4V-153" edge="1">
          <mxGeometry relative="1" as="geometry">
            <mxPoint x="2550" y="-69" as="targetPoint" />
          </mxGeometry>
        </mxCell>
        <mxCell id="9sq6c23NFKgK6vMcmQ4V-153" value="EESS" style="rounded=0;whiteSpace=wrap;html=1;" parent="1" vertex="1">
          <mxGeometry x="2490" y="1" width="120" height="40" as="geometry" />
        </mxCell>
        <mxCell id="9sq6c23NFKgK6vMcmQ4V-154" value="&#xa;chargeEfficiency - 97 %&#xa;dischargeEfficiency - 97%&#xa;ratedCapacity - 326,8 kW*h&#xa;ratedPowerInput - 312,5 kW&#xa;ratedPowerOutput - 312,5 kW&#xa;depthOfDischarge - 90%&#xa;InverterApparentPower - 312,5 kVA&#xa;" style="text;" parent="1" vertex="1">
          <mxGeometry x="2650" y="-76.5" width="160" height="127.5" as="geometry" />
        </mxCell>
        <mxCell id="9sq6c23NFKgK6vMcmQ4V-155" value="485,1 кВт, общее количество&amp;nbsp; ФЭМ 1540 шт." style="text;whiteSpace=wrap;html=1;" parent="1" vertex="1">
          <mxGeometry x="2060" y="90" width="310" height="30" as="geometry" />
        </mxCell>
        <mxCell id="9sq6c23NFKgK6vMcmQ4V-156" value="&lt;ul style=&quot;list-style-type: square&quot;&gt;&lt;li&gt;SG10KTL-M - 1 шт. (10 кВт)&lt;/li&gt;&lt;li&gt;SG12KTL-M - 2 шт. (24 кВт)&lt;/li&gt;&lt;li&gt;SG20KTL-M - 3 шт. (60 кВт)&lt;/li&gt;&lt;li&gt;SG30KTL-M - 7 шт. (210 кВт)&lt;/li&gt;&lt;li&gt;SG50KTL-M - 2 шт. (100 кВт)&lt;/li&gt;&lt;li&gt;SG80KTL-M - 1 шт. (80 кВт)&lt;/li&gt;&lt;li&gt;Итого - 484 кВт&lt;/li&gt;&lt;/ul&gt;" style="text;whiteSpace=wrap;html=1;" parent="1" vertex="1">
          <mxGeometry x="1840" y="-89" width="220" height="140" as="geometry" />
        </mxCell>
        <mxCell id="9sq6c23NFKgK6vMcmQ4V-157" value="" style="endArrow=classic;html=1;strokeColor=#FF3333;" parent="1" edge="1">
          <mxGeometry width="50" height="50" relative="1" as="geometry">
            <mxPoint x="2110" y="-9" as="sourcePoint" />
            <mxPoint x="2110" y="-59" as="targetPoint" />
          </mxGeometry>
        </mxCell>
        <mxCell id="9sq6c23NFKgK6vMcmQ4V-158" value="" style="endArrow=classic;html=1;strokeColor=#FF3333;" parent="1" edge="1">
          <mxGeometry width="50" height="50" relative="1" as="geometry">
            <mxPoint x="2250" y="-9" as="sourcePoint" />
            <mxPoint x="2250" y="-59" as="targetPoint" />
          </mxGeometry>
        </mxCell>
        <mxCell id="9sq6c23NFKgK6vMcmQ4V-159" value="" style="endArrow=classic;html=1;strokeColor=#FF3333;" parent="1" edge="1">
          <mxGeometry width="50" height="50" relative="1" as="geometry">
            <mxPoint x="2540" y="-9" as="sourcePoint" />
            <mxPoint x="2540" y="-59" as="targetPoint" />
          </mxGeometry>
        </mxCell>
        <mxCell id="9sq6c23NFKgK6vMcmQ4V-160" value="" style="endArrow=none;html=1;strokeColor=#FF3333;startArrow=classic;startFill=1;endFill=0;" parent="1" edge="1">
          <mxGeometry width="50" height="50" relative="1" as="geometry">
            <mxPoint x="2413" y="-9" as="sourcePoint" />
            <mxPoint x="2413" y="-59" as="targetPoint" />
          </mxGeometry>
        </mxCell>
        <mxCell id="9sq6c23NFKgK6vMcmQ4V-161" value="" style="endArrow=none;html=1;strokeColor=#FF3333;startArrow=classic;startFill=1;endFill=0;" parent="1" edge="1">
          <mxGeometry width="50" height="50" relative="1" as="geometry">
            <mxPoint x="2240" y="-90" as="sourcePoint" />
            <mxPoint x="2240" y="-140.0000000000001" as="targetPoint" />
          </mxGeometry>
        </mxCell>
        <mxCell id="9sq6c23NFKgK6vMcmQ4V-162" value="" style="endArrow=none;html=1;strokeColor=#FF3333;startArrow=classic;startFill=1;endFill=0;" parent="1" edge="1">
          <mxGeometry width="50" height="50" relative="1" as="geometry">
            <mxPoint x="2560" y="-9" as="sourcePoint" />
            <mxPoint x="2560" y="-59" as="targetPoint" />
          </mxGeometry>
        </mxCell>
        <mxCell id="9sq6c23NFKgK6vMcmQ4V-163" value="Мощность нельзя выдавать в сеть" style="text;whiteSpace=wrap;html=1;" parent="1" vertex="1">
          <mxGeometry x="2410" y="-139" width="210" height="30" as="geometry" />
        </mxCell>
        <mxCell id="9sq6c23NFKgK6vMcmQ4V-164" value="Краснодарский край, Анапа&lt;br&gt;3ЦК, 670-10000 кВт, 0,4 кВ" style="text;whiteSpace=wrap;html=1;" parent="1" vertex="1">
          <mxGeometry x="2360" y="-199" width="160" height="30" as="geometry" />
        </mxCell>
        <mxCell id="9sq6c23NFKgK6vMcmQ4V-165" value="Структурная схема" style="text;whiteSpace=wrap;html=1;fontSize=20;fontStyle=1" parent="1" vertex="1">
          <mxGeometry x="1880" y="-199" width="310" height="30" as="geometry" />
        </mxCell>
        <mxCell id="9sq6c23NFKgK6vMcmQ4V-166" value="" style="endArrow=none;html=1;strokeColor=#FF3333;startArrow=classic;startFill=1;endFill=0;" parent="1" edge="1">
          <mxGeometry width="50" height="50" relative="1" as="geometry">
            <mxPoint x="2310" y="-90" as="sourcePoint" />
            <mxPoint x="2310" y="-140" as="targetPoint" />
          </mxGeometry>
        </mxCell>
        <mxCell id="9sq6c23NFKgK6vMcmQ4V-167" value="" style="rounded=0;whiteSpace=wrap;html=1;fillColor=none;dashed=1;" parent="1" vertex="1">
          <mxGeometry x="2040" y="-9" width="290" height="89" as="geometry" />
        </mxCell>
        <mxCell id="9sq6c23NFKgK6vMcmQ4V-168" value="Шкаф №1, 5 0,4 кВ БКТП 345" style="text;whiteSpace=wrap;html=1;" parent="1" vertex="1">
          <mxGeometry x="2050" y="-130" width="170" height="30" as="geometry" />
        </mxCell>
        <mxCell id="9sq6c23NFKgK6vMcmQ4V-169" value="&lt;span style=&quot;color: rgb(0 , 0 , 0) ; font-family: &amp;#34;helvetica&amp;#34; ; font-size: 12px ; font-style: normal ; font-weight: 400 ; letter-spacing: normal ; text-align: center ; text-indent: 0px ; text-transform: none ; word-spacing: 0px ; background-color: rgb(248 , 249 , 250) ; display: inline ; float: none&quot;&gt;АСДУ ФЭС&lt;/span&gt;" style="text;whiteSpace=wrap;html=1;" parent="1" vertex="1">
          <mxGeometry x="2230" y="51" width="80" height="30" as="geometry" />
        </mxCell>
        <mxCell id="9sq6c23NFKgK6vMcmQ4V-170" value="" style="rounded=0;whiteSpace=wrap;html=1;fillColor=none;dashed=1;" parent="1" vertex="1">
          <mxGeometry x="2480" y="-9" width="140" height="89" as="geometry" />
        </mxCell>
        <mxCell id="9sq6c23NFKgK6vMcmQ4V-171" value="&lt;span style=&quot;color: rgb(0 , 0 , 0) ; font-family: &amp;#34;helvetica&amp;#34; ; font-size: 12px ; font-style: normal ; font-weight: 400 ; letter-spacing: normal ; text-align: center ; text-indent: 0px ; text-transform: none ; word-spacing: 0px ; background-color: rgb(248 , 249 , 250) ; display: inline ; float: none&quot;&gt;СУ СНЭЭ&lt;/span&gt;" style="text;whiteSpace=wrap;html=1;" parent="1" vertex="1">
          <mxGeometry x="2520" y="50" width="80" height="30" as="geometry" />
        </mxCell>
        <mxCell id="9sq6c23NFKgK6vMcmQ4V-172" value="1) P (шкаф №1, 5 БКТП 345)&lt;br&gt;2) 16 x Pсумм, уставка активной мощности, уставка режим регулирования" style="text;whiteSpace=wrap;html=1;" parent="1" vertex="1">
          <mxGeometry x="1870" y="221" width="260" height="60" as="geometry" />
        </mxCell>
        <mxCell id="9sq6c23NFKgK6vMcmQ4V-173" value="" style="endArrow=classic;html=1;rounded=0;elbow=vertical;entryX=0.25;entryY=0;entryDx=0;entryDy=0;" parent="1" target="9sq6c23NFKgK6vMcmQ4V-139" edge="1">
          <mxGeometry width="50" height="50" relative="1" as="geometry">
            <mxPoint x="2170" y="140" as="sourcePoint" />
            <mxPoint x="2290" y="160" as="targetPoint" />
          </mxGeometry>
        </mxCell>
        <mxCell id="9sq6c23NFKgK6vMcmQ4V-174" value="Прогноз ЧПН, ПЧПН&lt;br&gt;Прогноз нагрузки и генерации" style="text;whiteSpace=wrap;html=1;" parent="1" vertex="1">
          <mxGeometry x="1985" y="152" width="175" height="39" as="geometry" />
        </mxCell>
        <mxCell id="9sq6c23NFKgK6vMcmQ4V-175" value="" style="endArrow=classic;html=1;rounded=0;elbow=vertical;entryX=0.75;entryY=0;entryDx=0;entryDy=0;" parent="1" target="9sq6c23NFKgK6vMcmQ4V-139" edge="1">
          <mxGeometry width="50" height="50" relative="1" as="geometry">
            <mxPoint x="2230" y="140" as="sourcePoint" />
            <mxPoint x="2290" y="130" as="targetPoint" />
          </mxGeometry>
        </mxCell>
        <mxCell id="9sq6c23NFKgK6vMcmQ4V-176" value="Данные для расчета эконом. параметров" style="text;whiteSpace=wrap;html=1;" parent="1" vertex="1">
          <mxGeometry x="2235" y="152" width="175" height="39" as="geometry" />
        </mxCell>
        <mxCell id="9sq6c23NFKgK6vMcmQ4V-177" value="p_set (уставка СНЭЭ)" style="text;whiteSpace=wrap;html=1;" parent="1" vertex="1">
          <mxGeometry x="2374.5" y="350" width="131" height="30" as="geometry" />
        </mxCell>
        <mxCell id="9sq6c23NFKgK6vMcmQ4V-178" value="&lt;table style=&quot;font-style: normal ; font-weight: 400 ; letter-spacing: normal ; text-align: left ; text-transform: none ; word-spacing: 0px ; background-color: rgb(248 , 249 , 250) ; color: rgb(0 , 0 , 0) ; font-family: &amp;#34;times new roman&amp;#34; ; font-size: 12px&quot;&gt;&lt;tbody style=&quot;font-size: 12px&quot;&gt;&lt;tr style=&quot;font-size: 12px&quot;&gt;&lt;td style=&quot;font-size: 12px&quot;&gt;EESS&lt;/td&gt;&lt;td style=&quot;font-size: 12px&quot;&gt;p_current&lt;/td&gt;&lt;td style=&quot;font-size: 12px&quot;&gt;Текущая активная мощность накопителя&lt;/td&gt;&lt;/tr&gt;&lt;tr style=&quot;font-size: 12px&quot;&gt;&lt;td style=&quot;font-size: 12px&quot;&gt;EESS&lt;/td&gt;&lt;td style=&quot;font-size: 12px&quot;&gt;e_current&lt;/td&gt;&lt;td style=&quot;font-size: 12px&quot;&gt;Текущая доступная энергоёмкость накопителя&lt;br&gt;&lt;br&gt;Циклы + u_dc&lt;/td&gt;&lt;/tr&gt;&lt;/tbody&gt;&lt;/table&gt;" style="text;whiteSpace=wrap;html=1;fontSize=12;fillColor=#FFFFFF;" parent="1" vertex="1">
          <mxGeometry x="1980" y="320" width="230" height="90" as="geometry" />
        </mxCell>
        <mxCell id="9sq6c23NFKgK6vMcmQ4V-179" value="Мастер-данные (сеть, накопитель, СЭС)" style="text;whiteSpace=wrap;html=1;" parent="1" vertex="1">
          <mxGeometry x="2340" y="231" width="131" height="30" as="geometry" />
        </mxCell>
        <mxCell id="9sq6c23NFKgK6vMcmQ4V-180" value="&lt;p class=&quot;MsoListParagraph&quot; style=&quot;text-align: justify&quot;&gt;&lt;b&gt;&lt;i&gt;&lt;span style=&quot;font-family: &amp;#34;times new roman&amp;#34; , serif&quot;&gt;При достижении определенной уставки суммарного перетока мощности через Ввод1 0,4 кВ и Ввод2 0,4 кВ БКТП 345 АСДУ ФЭС&amp;nbsp;&lt;/span&gt;&lt;/i&gt;&lt;/b&gt;&lt;i&gt;&lt;span style=&quot;font-family: &amp;#34;times new roman&amp;#34; , serif&quot;&gt;формирует управляющее воздействие на уменьшение значений выходного тока переменного напряжения 0,4 кВ, выдаваемого в сеть электроснабжения предприятия.&lt;/span&gt;&lt;/i&gt;&lt;/p&gt;&lt;p class=&quot;MsoListParagraph&quot; style=&quot;text-align: justify&quot;&gt;&lt;i&gt;&lt;span style=&quot;font-family: &amp;#34;times new roman&amp;#34; , serif&quot;&gt;Управляющее воздействие передается по сети АСДУ каждому инвертору, находящемуся&lt;br&gt;в работе. Инверторы в соответствии с параметром управляющей команды уменьшают&lt;br&gt;значение выходного тока в сеть предприятия, и, следовательно, - выдачу генерируемой фотоэлектрическим модулям электрической мощности. Что позволяет не&lt;br&gt;достигать перепроизводства электроэнергии станцией.&lt;/span&gt;&lt;/i&gt;&lt;/p&gt;" style="text;whiteSpace=wrap;html=1;fontSize=12;fontColor=#FF3333;" parent="1" vertex="1">
          <mxGeometry x="2120" y="-400" width="490" height="180" as="geometry" />
        </mxCell>
      </root>
    </mxGraphModel>
  </diagram>
  <diagram id="VXBt-UXBRDWpxmzLkV58" name="Page-2">
    <mxGraphModel dx="2529" dy="458" grid="1" gridSize="10" guides="1" tooltips="1" connect="1" arrows="1" fold="1" page="1" pageScale="1" pageWidth="827" pageHeight="1169" math="0" shadow="0">
      <root>
        <mxCell id="0" />
        <mxCell id="1" parent="0" />
        <mxCell id="VZeYl4B-hOs3PQ_AsOoh-1" value="" style="html=1;overflow=block;blockSpacing=1;whiteSpace=wrap;fontSize=13;spacing=9;strokeColor=#5e5e5e;strokeOpacity=100;fillOpacity=0;rounded=1;absoluteArcSize=1;arcSize=9;fillColor=#000000;dashed=1;fixDash=1;strokeWidth=2.3;lucidId=F.hk3DGBNLS3;" vertex="1" parent="1">
          <mxGeometry x="-830" y="350" width="530" height="190" as="geometry" />
        </mxCell>
        <mxCell id="VZeYl4B-hOs3PQ_AsOoh-3" value="Внешняя сеть" style="html=1;overflow=block;blockSpacing=1;whiteSpace=wrap;fontSize=16.7;fontColor=#333333;spacing=9;strokeColor=#5e5e5e;strokeOpacity=100;rounded=1;absoluteArcSize=1;arcSize=9;strokeWidth=2.3;lucidId=Q7ekmBW96eN7;fontStyle=1" vertex="1" parent="1">
          <mxGeometry x="-450" y="200" width="210" height="40" as="geometry" />
        </mxCell>
        <mxCell id="VZeYl4B-hOs3PQ_AsOoh-4" value="&lt;ul style=&quot;margin: 0px; padding-left: 10px;list-style-position: inside; list-style-type:disc&quot;&gt;&lt;li style=&quot;text-align:left;color:#834187;font-size:16.7px;&quot;&gt;&lt;span style=&quot;margin-left: 0px;margin-top: -2px;&quot;&gt;&lt;span style=&quot;font-size:16.7px;&quot;&gt;&lt;span style=&quot;font-size:16.7px;color:#834187;&quot;&gt;Ценовая зона (1 или 2)&lt;/span&gt;&lt;/span&gt;&lt;/span&gt;&lt;/li&gt;&lt;li style=&quot;text-align:left;color:#834187;font-size:16.7px;&quot;&gt;&lt;span style=&quot;margin-left: 0px;margin-top: -2px;&quot;&gt;&lt;span style=&quot;font-size:16.7px;color:#834187;&quot;&gt;Регион&lt;/span&gt;&lt;/span&gt;&lt;/li&gt;&lt;li style=&quot;text-align:left;color:#834187;font-size:16.7px;&quot;&gt;&lt;span style=&quot;margin-left: 0px;margin-top: -2px;&quot;&gt;&lt;span style=&quot;font-size:16.7px;color:#834187;&quot;&gt;Сбытовая компания&lt;/span&gt;&lt;/span&gt;&lt;/li&gt;&lt;li style=&quot;text-align:left;color:#834187;font-size:16.7px;&quot;&gt;&lt;span style=&quot;margin-left: 0px;margin-top: -2px;&quot;&gt;&lt;span style=&quot;font-size:16.7px;color:#834187;&quot;&gt;Ценовая категория&lt;/span&gt;&lt;/span&gt;&lt;/li&gt;&lt;li style=&quot;text-align:left;color:#834187;font-size:16.7px;&quot;&gt;&lt;span style=&quot;margin-left: 0px;margin-top: -2px;&quot;&gt;&lt;span style=&quot;font-size:16.7px;color:#834187;&quot;&gt;Тарифный уровень напряжения&lt;/span&gt;&lt;/span&gt;&lt;/li&gt;&lt;li style=&quot;text-align:left;color:#834187;font-size:16.7px;&quot;&gt;&lt;span style=&quot;margin-left: 0px;margin-top: -2px;&quot;&gt;&lt;span style=&quot;font-size:16.7px;color:#834187;&quot;&gt;Класс мощности&lt;/span&gt;&lt;/span&gt;&lt;/li&gt;&lt;/ul&gt;&lt;div style=&quot;display: flex; justify-content: flex-start; text-align: left; align-items: baseline; font-size: 0; line-height: 1.25;margin-top: -2px;&quot;&gt;&lt;span&gt;&lt;/span&gt;&lt;/div&gt;" style="html=1;overflow=block;blockSpacing=1;whiteSpace=wrap;fontSize=13;spacing=3.8;verticalAlign=middle;strokeOpacity=0;fillOpacity=0;rounded=1;absoluteArcSize=1;arcSize=9;fillColor=#ffffff;strokeWidth=2.3;lucidId=57ekaHlkeXMu;" vertex="1" parent="1">
          <mxGeometry x="-680" y="400" width="370" height="140" as="geometry" />
        </mxCell>
        <mxCell id="VZeYl4B-hOs3PQ_AsOoh-5" value="" style="shape=image;verticalLabelPosition=bottom;labelBackgroundColor=default;verticalAlign=top;aspect=fixed;imageAspect=0;image=data:image/png,iVBORw0KGgoAAAANSUhEUgAAAWYAAAIcCAYAAADFdwQsAAAgAElEQVR4nOy9Z5Qc1bX3/TtVHaYn9ERNUs45gRJIAkywAZOjwdhgosHg6+c+az2f73rTus/73oANJhgMOAEGbMBgMCYrCwUkhBASytJM9+TpHKvO+6F6JCFN6OnqmWlJ57eWvWzoqTpd3f2vXfvs/d9CSilRKBQKRcGgjfQCFAqFQvFtHCO9AIUiW956exfvvb+bZEoiMW0da8rkau760bnU1ZblaXUKRf5Qwqw4bfhyp5/V65rQHS6kmaswC0DS1BTghuvmUlebzxUqFPlBCbPitCEYSYCQpFMRIPetESE0IjFIp+1F3QrFUKFyzIrTgmTSoKs7iqY5sSPKFoJgME4wEM/H0hSKvKOEWXFa0NEZIxpJYV+ULUxD0tIawjBUUZKi8FDCrDgtaG7uJhpJgpkfIZVS4vOHiMfTeTmeQpFPlDArTgt8LSEikZTtagwLS9x9/hDhcCIPx1Mo8osSZsVpgd8fJhxJQB6E2ZJlgd8fIhJN2j6eQpFvVFWGouCREpp9AaKxFHnpU80cxOcLEokoYVYUHipiVhQ8Ukr8/hBpQyMfETNIhBC0tPZE4QpFYaGEWVHwhCMJOrtiaMJBPq1donGD7u5Y3o6nUOQLJcyKgsfvDxGLpZB5KpXrQQhBa1sEI0+VHgpFvlDCrChoetIYiYRBfhLMmeMiQUJrW5hgUDWaKAoLJcyKgsY0JUebA8TjKfKTX84grf9qaQkRDKo8s6KwUMKsKGjShonPHyaeSOU1v2zRI8wqz6woLJQwKwoa05A0NwczHXr5NB2yRL6lJawiZkXBoYRZUdCYpsTnC4DU8x4xSylpbYsQUDlmRYGhhFlR0ARDCbq646Dp5MvA6ESE5qKzS6UyFIWFEmZFQeNvCZJMpvNakXEiUgo6OiIkEsrMSFE4KGFWFCyGYdLcHCSVMhiKaNnCpK1dpTMUhYUSZkXBkkwaNDUFSaXMIajIAKuaWdLeHqGzMzoEx1cockOZGCkKllTKxOcPkkwZQ3cSadLeEVV5ZkVBoYRZUbCk0gZNvgDptDlUKWZA4m8J0aWEWVFAqFSGomBJpQyamgLA0FRkgFUyF4mk6epSqQxF4aCEWVGwBEMJAsEEQoghPItE4KJLucwpCgglzIqCRErLyD6dHnrnN4mkszNKNJoa8nMpFNmghFlRkCSTaZqbAhjGUFVkHEdi0tkVo60tMqTnUSiyRQmzoiCJxVM0+0KYpmToapgzSElHV4z2TiXMisJACbOiIEkkDJp8IdJpk6EWZolJZ2eUtvbwkJ5HocgWJcyKgiQeT+FrCWbK5IY6Ys4Is0plKAoEJcyKgiSRMGhuDiCEGMIaZguJJB4zaVfCrCgQlDArCpJAIJYZ+SQYjhyzprvo7I5mctoKxciihFlRcEgJPn8QmU9f/CzOGQgmVD2zoiBQwqwoOCLRBM2+UGYq9vBEsBKTUDBBa6tKZyhGHiXMioIjGknhbwkNeW75W0iT7kCMltbQMJ5UoegdJcyKgiMSTeHzhwCRiZqHHilNgsE4rUqYFQWAEmZFwRGNJqw5fzBcmQzAJBhKqJI5RUGghFlRcEQiKZqbQxnzouGKmCWplIa/VTWZKEYeJcyKgqOzK0pq2EfwSYTmoKs7lhllpVCMHEqYFQVFKmXS2jZCUauEcDhBW7vyZlaMLEqYFQVFOJygJZNOGGpXuZOR0iQSPiG/rVCMEEqYFQVFMBSnpSXMMO76nYBJKJzE36IqMxQjixJmRUERCMTx+4Mjcm4pTSKRJH6/2gBUjCxKmBUFRSiUsJpLgOGPmk3CkSQ+FTErRhglzIqCIhhK0NmVHKGzS0zpwNeiImbFyKKEWVFQdHZGMU2d4e3HtpBSogmdrs4okchI3RwUCiXMigIikUzT3hFhZDb+epDE48lMS7hCMTIoYVYUDJ2dPQNRh9Hv8ySkNK15g82qZE4xcihhVhQM3d0x2jsiw2Zc1DuSeNzA5w9jGMo0XzEyKGFWFAxdXTFaW8OZ/PLIiKKUkmg0SbMvgGmOXOSuOLtxjPQCFIoeOrtjtLaNdI7ZJB6XNPkCmCOwAalQgIqYFQVEd3eMUCQ17K3YJ2Kd24HfF8JUqQzFCKGEWVEQSGmVymmam5GuyhCaTtexYbAKxfCjhFlREEQiSTq7ogzrBNa+kCappKk8MxQjhhJmRUHQ3hGmqys2ommM40iSKYOjzQHS6QK4USjOOpQwKwqC9o4oHZ1RRrKGuQcpJamkQbMvpIRZMSIoYVYUBO3tETo6IgUTMSeSaZqbg0qYFSOCEmZFQdDRGaWzK0ZBRMyYpFImPn+I1PDPuFIoVB2zojBob48Sj2tImcr5GEIInC4NDUEyZWD1h+QQgUsJmoOjTSrHrBgZVMSsGHFMU9IdiKHpduIEgRBQW1PKmDHlFBc7M1O2cz4aoWCc7oAqmVMMP0qYFSNOdyBOIBDDVv1yRoRHN3qZPKmakmIXkLswSyBtmDT7gwWS91acTShhVow4fn/QKpWz4U0hsFIZ9fVeJk6owuNxIoSNr7eUGIZJc3OQZNLI/TgKRQ4oYVaMOG1tkUzKwF4+VwhBQ30ZkyZUUexxgh1hRpJOmzT7giSUMCuGGSXMihGntS1MMJDAnjBraJqgocHLxIlVFBe7sPf1lhiGtCLmhBJmxfCihFkx4rS0hukOxGzbbEpp0tjoZdy4CoqLHWg2Nv/A2pRsag4ST+ReKaJQ5IISZsWI094ewZAO7EXMEo/bSXVlMZ4iJ16vB2nDd8Pa8NPwtwRJJFQts2J4UcKsGFFSKZPOrihC2CuVA5Pa2lI8RdZxqqtLgCS5f8UlIAiFknR3x2ysTaEYPEqYFSNKS2uIcDhpy1XOqleWNI724nTpANTVllBW5rZXmQGYprUBaJqqZE4xfChhVowofn+QcCRhc86fwOHQGdNYgdtlRcx1o0qprPDYFGaJlODzBYnGVJ5ZMXwoYVaMKP6WsO2I2RJmjYaGMooyqYza2jIqyj3YaTLpaXjx+cNEo0kbx1EoBocSZsWI4veHCAbjSDsbf0Kga4LRDeW4XD3CXEJ5udtWWzZYlRnNvgDRqIqYFcOHMjFSjCjN/hDhSMpeN3YmYq6vL+3pzKampoSKCo+tJhOrMkPQ5AsSi6mIWTF8qIhZMaL4W4KA07YfRUmxm1E1Jcf+v9OhU1nhAVu10RIhBC2tESIRFTErhg8lzIoRIxRKEAolEEIn15BZCIFpphhVW3osjdFDVZUHTU/arsxIJgy6VMmcYhhRwqwYMXy+ILFY2l5+GQ2HQzBmtBeH49tf5+qqEqoqi7G3AWjR0hoilVKt2YrhQQmzYkSQUtLsC1nVDjYrMlwuB42NZacIc01NCdXVxbYjZrAqM8JhlWdWDA9KmBUjginB1xIkFkthZ+dPCIHb7aCxvreI2ZOJmO1uAEJLS5BwRAmzYnhQwqwYEaQp8flCRGNJW54WoOFyaYxuLMfh0L/1b2qqS6muLrFdMgfga7HK+hSK4UAJs2JEkNKy1IzHDexOLnE5dRobyzhZf8u9bqqr7EXMZHoSW/xhwuGEjeMoFNmjhFkxIghNw9cSRAg7pXICKU28ZUXU1XpP+bearjFqVAnSTGFrA1BKOruSRFT3n2KYUA0mpyl+f4iW1jC6bv8xfTgRQiCEoK09Qlt7JPNPcxRmAcg0RW4nX33VgrvIgWEcT4u4XA4CgTgulySezP00AIYJX+zwU1dblinRO72mZ0sJLqfG5Mk1p+TiFYWHkGrS5GnHe//czd/+vouuQJzTTJcBS5wj0SSHDneRTJmWauR0IBASqqqKaWz0ousa8gQXOIdDp6MzYk0hSRu2hBk06utKqKstRQhx2g1oNSU4nTpz59Rx5x3nUlNdMvAfKUYMJcynGe+8u4tfP72BZn8SKU/julopMU17FRk9CKEhhLPXbIWUJtJM5+k8DoSmD/zCQkRa18k049x0/Rx+ev/5jKopHulVKfpACfNpQjpt8uZbO3n2hc00+6IgU6dd1KYoAISGBlxz1Uzuu3sJY8dWjPSKFL2ghPk0IJ5I8+pr23n2+c0Egum8RZqKsxShIRBcetEkfvbQ+UyaWDXSK1KchBLmAicaTfLyK9v57QubCEfz91iuONsRaMLB8vPG8MjPzmfG9NqRXpDiBJQwFzDBUJwXX97Gcy9sIpGUmUYM9XEp8oUlzkuWNPLIQ+czd3b9SC9IkUEJc4HS1R3j93/awu/+uJV0Guhno08I3eYw0/4wMXuJ0o9thA3622PdYKTMx+RpgdB0BBpSGqdshlqbgtZ1kTJts8Pw5GPmUg4je12H9fnpOR6zHwQge//8TnyR0JwsnF/Hv/zsPBYuGJ3fNShyQglzAdLVFeO3L3zG71/cClKDPt3XBEJoFBVpQ1LGpTs0TEPS5AuSTJzYoScZVVNKeXkR6XT2YmfV/0qi0STtndGMd1HuzSWaBlWVxZSXFxEIxOnsimbsly0f5XJvEdXVxcTiKTo6oiQSdm8GgpISJ1WVxTgc2qCutaYJpITOrhjBYAwprQGyIKiq9FBV6cEwZX4/P10jGIrT1hYFIfoxixJompOZM6v5nz9fwaJzx+RtDYrcUMJcYLS2hnn+95t58eXPkfQvypqmU1nh5Npr5vDdS6eiadq3Gizs4HTqJBMGq9bs589/+YKurvixemNNCG6+cQ633jyfZMrMWkx0XSMWS/Hxx3t5+bXtJBIy55I/IZxUV7v4wc0LmDljFC+/up31Gw5jGFZErmkOZs+s4e67FuN06Tz/u01s+dyXeQ85ej9rTs5dWMftty5k7NjyQd2U3G4Hzc1Bnnn+M3bs8COlVcqHcLBoYT2337qACROr8nDz+PY5d+9u45XXtrPtCx9knix6RyCEzoxpVfyPf1nJ4nPHnnbNS2cSqvOvgDjaFOCJpzfw9ru7YQBRFkKndpSHe+5azK03z8/7Wkwp+eCDb/jr33YS6E58S9CE5qKlJYynyMWUyae2QvdHOJzg40/2fasRJBeE0KirK2PK5Gq++aadTZuPizKAaRp8uauVvfs7uOWGuUybUsPWz30cC1RzOSeQShrUVBczfeqoQf2tKeHz7U3s3t2ClNrxVI402Pp5MxMnVLD8/Al4PM7cFtcHUyZVM3VyDf/1q1Vs2HgEhN6HOFs3ya/3dPF//D8f8a8/X8F3LpyErqsuwZFA/7d/+7d/G+lFKODgoS7++7E1vP/h3kwE2r8oj24o4YF7l3DjDfNOMe+xi5Tw4Ud7+c9HV9HSGkFKeayVuufxOxJN0FBfxqyZdYM6djCU5J1/7Gbv/o6es+W0RqE5GTemlPJyNy/8YTPhsJVHFUK3HtuRaMJJOBSjvr4Uh0Nn7fpDCGwoMxq6Lpg3t57Jk6oH9Zff7Gvjl4+vo7U1kjm/dtz1TmgcOtyNJmDBgtFoef5Aq6uLmT2rHr8/yOEjnZknsb6vQSiUYtuOJkbVlDBhfJWKnEcAdTssAPbu7+A/Hl3Fx58etNKA/WxSCSEYN7aMnz14HtdeMyfvomyaktVrDvDYE+vwtUSO/X51HXRdWqlKadDZmeLz7c2Yg4x8E4kUTU3dmCa28qnSTHH4SBfvf7SX7u4EVjwrKCrS6AnyTDPF7m86WbPuAC5XPjr2TDo6onR0RAf1V+FIko8/2cc337Qdu7k5HAKHw/rfUppEY5J33tvDp6v252GdpzJxQiX/639exKUXT8Wh0c/wABMpDVpbovx/j67i7Xe/UpNbRgAVMY8wu75u5T8eXcXGjU1I0+w/5yo0amuK+flDy7n8u9Pz/pgppWTV6v389+NrOHioG6RECA23W3DjtXOYOKEaf0uYRNIENEwzzfjxlYwZXZ71Odraorz4523E4/09FQyMrgvi8TQtreFj7caeIo2HfnoeNdUlHDrcjWGAlIJEIkUwGMfnD5BO20uhmDiYOb2aJYvHZv03m7c28fiT64nGjEzdheTqK2eybMk42joihMMGppkmGDLw+buZNbNuSLwsvF43c2Y18Oma/QRDA3zXgHjcZOu2o5SWupk6ZZQyPxpG1JUeQXZ86ePf/+MTNm1qxhxAlEWmW+t7l01j+fnjhyT3t3b9IZ58ZgMHDgQy6QsNhwOuumIW9/xkCT+4ZT6NDWVomhMpU+zb38mnq/YN6hwdnREieZgEYpomhmEiTeva6DpcdvE0rrpiFvfevYQZ02qOrfPQ4W62bmuivNyDEFYqJjesVElXdyzrZIjPH+If/9xNe3uMnsePmupibrxuLvffu5RLL56C7jAzFStpvtjRypPPrB+y4a8ul249qQx4CSTSNAgG0vzy12t5+ZVtxONqUvhwoYR5hNi4+TD/9//+mG3b/Zm63uweFysri3G7879nu27DIZ5+ZiO793QCxjGxu/Tiydx3z1Lq6sqYObOOqVNHZWqGJeBi565WmpuDWZ3DMEz8/mDGMtNe5GpVNXAsTzt9ag133bmY6upixo+r5JKLp1BebtV3myZEIilicQNs5ZitE3d3x+jMMp2x8bPDvPfBN0hpItBwOgVXXzWLKVOqKS528aPbz+GSi6eAcBzbuFy77hC/fX4T8TxWaPRw+Gg3iWT6BEc/Qd8qbdVdRyMmzzy3iT/+6XOiUSXOw4ES5mFGSsnqtQf59//3E3bt7qAnx9g7p/5oDMMcdF53ILZ83sSzz21ix872zFqsipALVk7gkYdW0NhQBlhlcovPHUNdnQdNcyClwZGj3axZdzCr88TjaXy+EPm0MhY4qK8r4eGHzmfK5OOeD9ddNZsli8eA5kBKiWFIwqG47TphKU26u2O0tIYGfO2eb9p574M9JBI9uXmTcWMruO7qOZSWugEYVVPKnbefy+Jz69E0F6ZpkEzCW+98xT/e200qlb+LlU4bHD3aTSpp1aQLIfB6XZSUODINLr0jZYpQOM0Lf9rGU89uoDugRmwNNUqYh5Geaof//Z8fs/9gEKTRtygLDSEk5V53XmbW9cWOL/08+fR6Pt/eckLULlm5fAL/+vMLTskfr1g+gRnTaxCaE9NM092dZtXaA1nV30ajKXz+UEYc7d9cNM2J1+vgh7ctZNmS8d/6d+UVHr536TQmjC3N3ERknm5oJl3dMdo6IgO+8pNV+9m6rRXTTCGEg9ISJzfdMI9xJzm6zZpZx603zmPM6FKE0DLin+LZ5z/jiy+b87Bmi3TaxOcLkkwaSCRCOFi2ZDzXXjWbykp3v92jljgneeUvX/HUMxvo7BzcBqhicChhHiakCe/8Yxf/9dgajhyJZFpzexcKIRy4HIIF8xuZN7c+s3uff3Heu6+DJ55ex+at/kx6wUQIjWVLxvCvP7/gFAEBq9Nu7ux6XJm8qJQa+/Z3sGOnf0CpjcZSNPuDmHnocBNCx+mA71w0ieuvmd1rSdd5S8dz8UUTM4/t+bl+Ukq6umO0toX7fd3mLUd5/8M9JBImQgokBnPn1HP5ZdNOWasQ1g3vlptm43IJENZ5jhwN8+RT6zl0pDsva0+nTZqag8dTGUJndKOXe+5azL0/WUxFhQuh9d1uLs0UsVia19/cxWNPrqWtbeCbkyI3lDAPA4YheeOtL3n8qQ00NUet5oJ+RFkIyZWXT+eh+8+jdlRpJrjMrzDvP9DBo4+tZv3GJqS0colCOFm6uJH/+YsLmDSpbyvIReeMZcqUCoTmQMoUbW1h/vnBbtIDPHZHY0mamoP2nwCEAKGzcH499929hLIyd68vKy52ctml05g/rxatH8EZHCaBQJy21r5FKRZL8c4/vmbf/iCmkUDTXdRUF/GDW+ZTVdW7Ob3H4+Taq2dz0/VzEFJkNilNNm1p5rkXNlnVJzZJp02OHO22vFcyt1Gvt4hRo0q58bq5/PS+pYyqLurXt0OaSeIJk7+9vZtHf72apuaA7XUpTkUJ8xCTTKV57fUvePrZzfh8MaTZ9/A5IRzoOnz/8mncf88yZs+qx0ibec3JgtVh+Niv17J67eHMJloaTXOxYF4NP//ZCqYN0NU2Y3ot5ywYDdJ67E6nNT7b3DRg3jUaS+H3h2CABoeB0DQnUyZ5ufuuJQOW6k2bUsPV35+N293TIGNPnK2bmIu29r6F8pNV+1m1Zr/lhyEEDofkvKUTWH7ehH6PXe4t4vZbF3LRyvFY10gggX/8cw/vvrebaMzexlsymcbfEkII3Zr9LdNUVnoA68Zww7VzeOj+86ivK84YK/UuD9JMkk5L/v7OHv77V6s5eLjL1roUp6KEeQiJRlL86aWtPPPbzfhbophmos/XCuHA5dK48frZPPjAeYwZU04slsqY3eSPpuYgv3xsNR99cgCwmkU03c3C+aP4xSMrmD1r4E6+oiIHc+c0UFPtpGeD0u8PsWHj4X43qzo7oqRSdvO8AiQsXTSWZUvHDfhqh0PjwpUTufjCSZmnEbvX0yqZ6+6O95pXb++I8vd3d9HekcIw4mi6i7Fjyrj15vlZNbmMHVvB3T9ZwsQJVqu7EFY98Z9f3cHqNfaaTzq7YkSixyeGl5c7qajwHPv3breD666dzcMPnc+YMWXQnzjLNFIK/vnBfv7rl5+y+5s2W2tTfBslzENEKJTgDy9u5fnfb6OjM9G/KGtOiosd3HLTXO67e+mgGjYGg98f4tdPreO9D/dBxolO01zMmV3Fz3+2nAXzs7d8nD+vnsWLRmcqCdIkEgbvvb+bYKj3HftUyshEyzY3/jSNslLB5Mk1Wf/JqFElXHv1bGqqXbmf9wSkNAmFErT3sgH41ju72L6jBYQl4CVFGhdfNJm5s7NvXZ8zu47771lKRbl145PSwNcS5bkXNrF9hy+nNRuGpKkpdCzdJBA01Hup8H47DaRpgquvnMkvHl7OlEnlmU3ovsVZCFi1+gj/+cvVfLnTn9PaFKeihHkI6OqO8cLvN/P7Fz8nGExjGH2JskAIJ2UlDm67ZR733LWY2lFDM73Y7w/x1DMbePudr48ZEmm6g6lTvPz8weWD9uGtqy3j3IVjcDisY5mmxs5dLezd295r6iUYSuDzD1xiNhAaGmPHVjBmzODMk2bNrOWGa+cca5yxh0kwFMfn/3b99oGDnbz73teEQgamkULTnMydXcPV3581qKPrusZ3L53KbbcsxOUUaJoD00iwe083v/vDZo42DX4zMJlM0+wLYBrWJi9o1NWWUV7ee877skum8ouHVzBrRjWWr0fv0b7MVBZ99pmfRx9fy5atRwe9NsWpKGHOM+0dVmTz+xc/JxJJ9xkpW6ZAOhXlTu64fSF3/XgRVZWeXl9rl9a2CM8+9xl/fXPnMTMiITQmT/TyL4+sZPGi3Px3Z0wfxdQp5Rmhk8RiaT7+ZD+R8KnvORxO4m8J5WH/TaOi3EN1H5tofeH1FvHdS6cxutFrezPVipiT+P3H88xG2uSlV7dz6HAAKQ2EcOD1alx26TTGjxv8wFOHQ+eHty3k8sumo2vWDVxisnrtEV768zbCvVzj/kgk0jQ1B0iljWPPK7W1JVRW9P2dW7liIv/y8Ermz6ulxzyrN6Q0Mc0km7e28qsn1rPhs8ODWpviVJQw5xGfP8Qzv93An17eTjIpM0NTT6VnCkZlpZM7f3QuP/7hOXj7qCywS3tHlOd/v4k33vrKKm/DKjUbN7aMRx5czvJl43POu06cUMVFKycfc2wzDMmqtfto9p3aCRiJJGlpsyJmW6VyQqOquoSamsE/WdTXl3LlFTNwOvt+PM8GiSQYjNF6QrnYth0+Pvr4GxJxmRFmnQtWTGDliok5n6eszM09P1nEvLmjMldYkkpJ/vnhft5+Z9egrmMiadDcHCRtyIy3iKCutrTPipYeli0ZyyMPLWfxufUg6KcRRWIaCbbvaOOxJ9azes2BvgqPFFmghDlPHD7SzRNPr+elV7ZnfIF7b7iwRFln1Cg39/5kCXfcvpDi4vx68PbQ2Rnlud99xl/e2EkqY96joTN6dAk/vW8ZF6ycaMudrqTExTkLRlPudWJtimk0NQf54ksfyeS3W8zDkTjNTQHshswCqK7yUFE++KeL0lI3F180GVeRA+ykM6RJNGbQkknNhMIJ/vjiFjo7E9Zmquagrs7FZRdPtcodbTBhQhV3/XgREyaUoQkHppmkrT3Bi3/exvoN2UemiUSao82BEyanSGprS3E6B74Oi88dw8MPLee8pWMQmuinEcUS5527OvjlE+v46ONv8t6leraghDkPfLO3ncefXMebb32d6dzq3ffCitI0Ghs83Hf3Um6/dSEuZz7sKE+lZ/Px9Te/IpHomTKi09BQzH0/WcKVl89A0+xXfIwbV8EFKyYei46kFHzw0Tf4Toqag4EEXZ09j9+5j5MCY9BpjBOpriqh2KYZvZQSiYPOzgjptMH6DYdYt+FQxs3ORNMEV105k3PPyc+IpgtXTuIHtyygrFTLbLYmOHwkxFPPrmf/wY6BDwDE4mn8reFjaSenU1JZmf11XDCvkUceWs4FK8Znnjj6/t6aRoK9ewM89sQG3nt/zyk3acXAKGG2ydd72njyNxt57/299Od7IYQGQmPiBC8P3n8+t9w4Ly/C2BvRaIqXXtnGX//2FbGYiTQNNE1n1KgifvLjRVx3zey8nauuroyVKybidFrvRQjB1s997NvfeYJYSzq7YqA5sFORIYSgyC1zipZ7cDgEYxrKwExj12UuEkvx9e42XnplG7FYGqtzUmfGtEq+c8EUSkryUwUCcP01s7nmqlm43DoCyyHuy52t/OaZjVl5V7S1hknE01Y1DpKGOi+lxYNb3+yZdfzi4RVc8p2JuFxaP5EzmGaCA4dDPPrYGt5+Z9eQGDKdyShhtsEXX/p47Il1fPDxgX6njohMydG0KZU89MB5XP39mUO2plgsxSuvbefFP28n0J3CNNMIzUFVpZM77ziHW26al/dzzphRy/RpNZmbkiCZMvls82G6M9aVsXgKf2umVM7Wk61gVE1pvxtWAyL9nwkAACAASURBVOF06jQ0etEdIufcOljtyS2tId76+04+395kPSkBDgdcd+2crOrBB4Pb7eDWm+dz4YqxaLqOlCaGqbFqzSFe+8sXxPppPkkmDZr9weMeJRIaGrwD5pd7Y9LEKh5+8Hyu+N403K6eDcG+ugQT+FtiPP7kOl5/c0e/a1R8GyXMOSAlfL7tKL96Yh1r1h4BaUVLvdEjyjOnV/OzB87ju5dOG7J1xeNpXv/blzz/hy10dycxzRSapuMtc3DXjxZxx23nDMl5q6uKufjCKSd4ekjWbTjE3n3tAAQCCdrawla3mS0Eo0aV9NnWnA1Oh05jYzkulwM7X38pDY4eDfL+h3sxT3hSX7F8PMuWjMv7ZBmAcWMruOXG+cyaUWV175kGkWia3/9pK6v62WyLxlL4fJZHSc9H0NBQSmlJbimdsWMqePB+K8Bwu6yhwH2Ks0zT0Zngiac38Opfvxh0NcnZihLmQSIlbN5yhEcfW8umzb7MJl9fLdYaQtOYN6eWRx5azoUXTB6ydSWSBu+89zW/efazjCin0YROsUfjnrsWccft5wyJWIC1Cbh8+UQqyj3HqgcOHQ7z5VfWNOhQKGHNurO1TW9FuKNqS6moKMr5KE6nTmNDGU6HZi9iliaxeIr2Y77MgpISBzdcO6dX86d8sejcMfzo9oXUVLszTUIG3cEkjz+1jm1f9O5EF40mafaFvlXF0VCfW8R8/O/LePCB87jp+rkUFWmIPsXZqlIJBtM89cwGXn51O4GAEueBUMI8CExTsnb9Af7rl6vZvqMNpOVr2yvC+uEvOsfaNDlv2fghE8Z02uT9D/bwq8fX0NWdtDYfhcDpgLvvXMRttywYsnx2D40NXpYsHoumSwQaCNi05Sg+f4BYPJlxY7Nr96lZqYxBbFqdjNOpMaaxPNMenZ9rYvlKSL5/+QzmzKrPyzH7PpfV/HHXjxahayYIgUBy6FA3z/9uE4d68a2IxlI0HavIsGioL6d4kDnmk6mpLua+e5Zyy03zKC3RMznnvsU5EjF49rlN/Onlrco2dACUMGeJaUo++Ogb/vPRVeza3XGs46l3NASwcvl4fvHIChadO2bIRBngg4/28stfraGrO3Usz+twwL33LOH2HywckoknJ1Na4uSyS6ZSWuqy8o4yzabNR9m5q41oJE1be8S+A7MQ1FQX4ymy934aGrw4nBr5+VCsYzTUlXLDtXOoqhqaJqET0XWNK743nZtvmHt8cK8QrFl3mNff/PKUsVSxaBKfr8fVr6dUriQvPt+VlR4euGcpP/nRIioqnP24+MnMU4bB7/64hed+t2lA69SzGSXMWWAYknff282vHl/D/oOhzCiovnLKOiC55KLJPPzg+cyZVTekovzPD7/hv361itaOWKaxQaDrcM+d1ow+u1FRtui6xjkLRjNhXKV100KQSjvY+ZWPnV/5CUcMm6kMMI0kVZUe24JSUeHBW+bB6h23WVet6RQVaVx3zRwmTawa0qEGJ1JTU8IPbl7A0sXjLNN7rO/py6/u4J/v7/lW2iIUStDRGaUn/19TXYK3LPd00MmUlLj44W0LufvORVRXF2XEuTesyDkel7z2+k5+89uNNCvb0F5RwjwAyZTB3/7+Fb96Yg1HmyP9Th2xRNngiu9O4+EHz2f6tP7tM3NF160a0o8/3cdjv15LS2vcmiknNBAmd95xLrfdOp9yb/5+fNng9RaxYvkESksdaEJHSoMtnzexbsNBpGkvjSGEoKLSjTcP78np0KivK8tMFsldSEXGCGrC+CquuWoWRUVD0yjUFxMnVvHAvcsYmzG9kpjE4ybP/2Ezn6467kTX1h5FyoyNqDRpbPDi8eT3KcrjcXLzDXO57+7F1NUWo2l9BwRSponFDd76+x6e/u1GjuRpEMCZhBLmfojH0/z1jS954qm1tLTEMfuNlB04dLjmqln87MHz+jWat4MQ4HJprF5zkF8+vpYjR8NIM40QOroOP7h5HnfctoAqG3nYXNE0K/9ZU10C6Egzxddft/HlV61ZD5vtnePpAq/Xfuu6pgkaG724i3Rs/QSETmmxgwtXTqS2dmjMp/o9vRCcs7CRn96/DK/XhcCBaabx+WP84aXP+errVqSUtLT0uPpZ35/GRi+eIbiJFBe7uO7q2Txw3xLGjC7tX5zNNPFEmnff28fjT61j34HsGmXOFpQw90E4kuSV17bzzHMbaWtPYJrp4/m8k9A0Jy6X4LprZvHQ/ecxbmzlEK1KUlTk5KOP9/Kb327gwMFgpk5Zx+EUfP+KGdx95xJqauy1AeeKEILx4yqZO6cO3WFN2k4kDOLxfjZJsz+65YaWh0dwXRc0NJTi8TjtRcwI3EU6DQ2Dc7rLJ5omuOziKdx0wzw8Hs2ab2gabN/Rxl/f2MHOr1pobQ9bqQ0BmqYxutH+xl9fFBU5+P4VM3ng3sVMnOBF0130XeecJpFM88FH+/n1k2vZs0d5Ovcw9LtCpyGRSJJXXt3OH17aRldXEtPsW1iOi/JM7vvJEkbZ9EboG2tO3oaNh+jojPL17jZAIDQdXYOLVoznwfvOo652ZES5B00TrFwxic1bm/C3xJFG3xNbsibzu66vK6MsD6kMTdNorPdS5HYS7KP+PBuklCSTBh3tUUxTog9Nd/2AFBU5+eGtC9m3r51Vaw8hhOV//d4He2hrjxANH/8MNM3a/Mx3KuNE3C6dy787HadD56lnN3LwUChj6HXq90CaaQwcfLLqMKmUwcM/Xc706bVDtrbTBSXMJ9HeEeHlV7bx1zd2ZUS5724lTXNTVqZz8w1z+MEt84dQlKFnN33jpiOkUuaxMUnSNFixYiIPP7icxsayITx/9py3ZDyvj/2Slpb8GKeLzJSUutrSvOTNrVRGeSZiTto4kiQeS3GkqZu0YeIcIt+TbKipKeaBe5fR0hJm9zcBTDNBMGCwavV+ik9IW2iaoKGhDIdjaB+WnU6dSy+Zitul89vfbeHLr9ozU09OvRGaZhqJg9Vrj5BMrua+e5ayKE8+I6crKpVxAi0tYZ574TNeeuVLOruSmGbfP1pNd1NZ6eJHty/kx3eca9tFLFt6XOJ6dtgvWDGBhx88n4kThyannQter5tzzhlNaUn/fgqDpa6uLKvxTNkwusFLkdtejllKk7QBzf4QhjHyLmqzZ9Xx0/uWMbqxGF0ryvgkC8LR4z4VLreDutrSYakecTg0vvOdKTz84DLmzanJ1Hv34elsppEINmzy8ehjq1m34dCQr6+QUcKcoakpyG+e28hf39zdr8E9gK67qa0p4s47FnD7rQuoKB/G6gdpHvtRrVw+LqvhqSPBJd+ZwqSJFWi6/U2mHg8KO63YJ1PuLaKistiqZrGxMiF0WvxBkgVi0vOdiyZz603zMjXFruOlnUKAaTKquoSSIbKZ7YtlS8fzP36+kkXn1iP6M9w30yANduzs4NHH1/DJp/ZmHJ7OKGHGGgn05G/W8+bbXxOPG/1Gyj0m8w/cu5gf//BcSkuHrk7Y7Xagn9yxlxHlC5aP41//5QKmTc1+9t1wMnlSNXNm1wF2XNyOU1dnz7zoZLTMBqDQ0tj7GQgikUSfsw5HghtvmMNV359KUdGJw1Q1EJJxYyspy2MNc7YsXNDI//rXC7nowvG4nP1EztIEabBnTxePPbWOd9/bTSp19tmGnvU55oOHu/j1U+v54KN9gNZvThkE5V4Xl148iSWLx9LeHsEYIiNwXdNoawsTjiZP+ueCWdNrue6aOVRWFOdljt5QoGuCyooSSooFoVDfHtUDI0BKqiqL6O6O09oatn3NhRCYpklJkYsil0bUMG3sT0oSSYPPt/twOR1omrDf4WgTp0Pj/KXj+XpXG5u2NpMpyMDh0PCWufH7Q8SiKcxhHjFSU13KddfMxt8SYs83XaTTJr1uCErLP3zfvgC/fmoDhmFw+XdnDHlevJAQ0tacn9Obr/e08exzG/ngo33ITN1t31hR36iaYubPa6Ss1EViCA3AdV0jEkmw+5s2mpuDVm+XtPyEz1kwmjGjy4knjo+iLzQ0TeD3hdi9t41wONVn/ffAWLn0hoYypk+txet1Z37QuSMsrefw4W727msnkey7Pn3gY2noOsyYXsvY0RVourA3OitPFBU5OXiwk21fNGNmMhmaJpgyqYoJ46twuhyYvU3NHUI0IdB1we69bezd25GZ9NPftRJompPx48u484cLuPx7Myj2DE8n60hz1grzFzt8PPH0etZvPELPiPjssErUBNYkiKEj49PWS6ehtYmiHXtNYSIykU8+aph7Bg3ox+YL2l1bj3eDvcaXE45YcJ+JyHx3vv3+RnaduV13TXczqtrFXT86h+uumZPXAQSFylknzKYp2bL1KE8+s5EtW5pB9D11RKFQFAaa5qK6ys0PfzCfm26Ym5fW/ELmrBJmwzBZt/4QT/xmPV/tas8I8lnz9hWK0xpNc+Itc3DbrfP5wS0L8roZXGicNcKcShmsXnOQJ3+zgT17O/P2iK1QKIYPoTko9uhcf81s7r17CVWVZ6Y4nxXCnEwa/PPDPfz2hc3s39+tRFmhOI0RwoHHo3H1lTO5754lw9bcNZyc8cIcjab4+zu7ePaFTbS0Ja1RUIN+y9nmocUJdaNnO/nL3R/frMrpr4Hcqy4Ge67C2gAcSQaquMggRGZDdzBYG/CYSa68fDoP3LeMsWMqhnxKz3ByRtcxSwnvf7iHF1/dRncwhctpHPOYyIaesqpUysAwBi6D0jRwuYRVy3qW/i57uhKNtEkqLa0BoDbRdWskVI//8WDQhMAwIZEwe/1MrM9K5uXzcjgEDkfP53/miMRgEcL6/A2Tflu/pZRomsj8RxvkZ2sipZNPVx/A7XbwwH3LqK8rDK+YfHBGC3MymWbs2Aruu3sJuq6hDdIfwOHQCIbifPjxPtasPUAqZfZ5V5ZSo7rKw4MPLKOqsrggvBNGAiGsH+PGzw7z3gd76O5OZQbW5nIsHYcDrvzeDJYtHYfH48QwBhf5ut0ONm05wqt/3UE0cqrDWbHHSSplkEjmvhFsTUKXLJw/misun0ZNdelZ2a0GZCboWJ//Z5sOZ6aR945hWKb9ixaNpbHBO+ibuJQSw7Tc7LTMTXu4JsgMNWe0MDudOvPmNDB/bkNOH5gQgu5AjL17O1mnHciMae/Dk1l34vE4WXH+JOpqSwuiyWAk6LnOBw50YvTR2TWIg+FwCC5YOYmLvzP52I9vEH9OU3OQd/+xi0Qf1ifRWCqzxNzXKQFpShy6xpJzxzJ2bMVZ+8QE1nfg692tNLekMI1gP69zUO71MGtGLecsHJPzb8Y05bGA4EzhjBbmnsckOzh0LWNPYR2nr+9OT57M4dDOuC9JLrR1RIhEUrYyrQLr8xsz2nvMM2Sw13XV6v18uuowhpGmN/G1mt9sqqiUCKHhaw2STFvpsrP848cwJMmk7LdLU9ck8UT62PXK9TdzJuWWezijhTkfmObg8o/5yKmeCfh8QaRwgZmruY8VHZeXFuXswbzl86O8/e4uonGzz+kz+dmkk4BGsy9EOGTH3/nMwjIk6luYrTmV6jfTG6qEQJF3gsEEoXAy07aeG9ZGn0F9QxnOHDyYQ6EEf39nN7v3BPp1C8wnyYRBe3t4WM6lOLNRwqzIO83+INFoCmljbBNY+eUxo8txOgf/Nf3nB3v44KM9mc3C4YjIrAkz/tYwiWRheDMrTl+UMCvyjs8XJBJN9vsYOzACp1Onvt6Lyzm4jNvefe289c4ugmE5bNFyDz5fiEhYpTMU9lDCrMgrUkpaWkJEI0mkjUhVCIHToTO6sXxQs/SMtMmfX93Orq87kGb2joF27VOtigJBS0uYSEQJs8IeSpgVeUVKK2oMRxL0VVqYHQKnS2N0o3dQBumfrN7Px5/uI5GQWddPC8hbFUWzP5h57wpF7ihhVuQVIaDJFyCRlGBzt93h0GhsLMtaNFvbwrz8yjbaOxJZpzA0zcn8eQ3MnDEqL4Njm3wBwpH+Bi4oFAOjyuUGQEpIJNKk0gJdd2P2YfCt60XWhtdZXvmTShu0tkUQwoFJrpFjplTOm32pnGFK/vLGl2z/wp9ph87mg9BwugQ3XD+H1tYwX329kdx9Lqxa5kAgRSikImbDMNE0J6bWt8RomoNUylDlcr2ghHkAHA6NSZOqWHxuPakUiD4ezyUO6us8uFxn90NIR0eUcDhhu1ROCIPGRi+6Y+D8spSwY4efN/72JclUtikMDU3XWb5sLCuXT2TL1iaKPRqxWJbmO30uRtDREbHm7J15fQ9Z4/UWUVoKuubu8zVSatSMKqGoSMnQyagrMgDFxU4uvXgKi88dc6z1szeklLjdDrxlfX8Rzwaam4MkEmnbpXJOJ5YwZ9HV1dkZ4Q9/2kJrayTLJxaBEILKcic3Xj+X6qpiiooc1NWWcfBQIOdVy8x/t7aGicfTeDxn789r2dJxuN0Oioqcfb4mlU5TV1tKY6N3GFd2enD2fnOyRNMENdUl1FSXjPRSCh7DMGn2h4jHc7FWPQGhUVTkoLHeO2C7bTpt8vGqfXz06V5MM7tp3JY1p8mN189l3twGACrKi6ipKubg4RDkOgcw855bWsMEAjE8njPH7WywzJxey8zptSO9jNOWs/u5W5FXDEPS1BwgHk/bK5VDHBPmgSoydn/Txkt/3o5pkuU5NSQwZ04DV10581gOu7q6hJqakhy8gU9G4m8JEwyqPLMid1TErMgbhmHi84WIxVNgx49YCIrcOo2N3n6NbboDcf729ld8s6/TEtQsGlqE0CgrdfDj2xcyZkzFsX9eWeGhZlQJVqxix+he0toaIhDM1SNEoVARsyKPGKak2RcinQY7bdACgcfjoqGh79yjYUrWbzjEW29/DZDVhBIhdDRhcsl3JnPe0nE49OOiX1zspLqq2OaGnfWe29ojdAdidg6kOMtRwqzIG8lEmpbWMJrmsDHKSSClSbnX3e9G6t697bzx1k4i0Wzz2dYIownjKvjhbQvx9lKGV13lQWKvBllKSThiKmFW2EIJsyJvtLVHiMeS2GlvtlIXaRrqy/tMY6TTJu9/uIeNm5qzHqwrNAder5ObbpzHpIlVvb6mvNxDZbnbtpe2pul0dkbP+pp2Re4oYVbkBdOU+PwhkikDe63YGh6PTn19aZ8C+fGn+3j73d1I03J0GwghdJAmCxeO5pqrZ+PoozbaW+amtrYUu94ZUkraO2IEQyrPrMgNJcyKvJBOmzQ3B0mlDJvmRRqlJUU01Jf2mu9t9gV574M9+Fvi2XthaE4mTajgjlsXUFbq6vN1Xq+HOtsDPSVg0t4eprNTpTMUuaGEWZEXksk0Tb6ANYTUVg2zwONx0NBQ3uu/fuvtnaxadSB7URYOitySiy6cxLnnjOn3tRXlRdSNKiEfTnNtbRE6u6K2jqM4e1HCrMgLqZRBU3NGmG1VZGiUlLh6HUW/afMRPvxkH6mUlrWlp9AcLJjfwA9uWYCm9y+45eUeauu8mVHfOS0/g6S9I0JnpxJmRW4oYVbkhVTKxOcLWo0eNiPmslI3o08qlYtEU7z2+g72HwhhyuwqJzTNSWNDEddeNYu62tIBX+90atSNKslkmO3kmE3a2iN0datUhiI3lDAr8kIsnsq4yunkHDELgTTTVFZ4Tpnz9/bfv2Ld+kOk0zLLmmWBNE0uWjmRC1ZOzHoJFRVFOHW75RQSw3TS1aWEWZEbSpgVeaG9I0IsmkLaKZVDoOsGo06Kbg8c7OLNt3YSChtZ+ywLzc3CBfVce9VsSor73vA7mdLSIqpqio9NJMkVITS6umKk03YqVBRnK0qYFbZJp02amgKYUtra+BNCo7TUSf0JwpxMGvzxxS3s2deZEctsyuM0ykp1rv7+TKZNGzWoNZSWOPPidialSWdXVG0AKnJCCbPCNvF4iqbmEEaWdcV9o1Hu9VBfb238maZk3fpDfPjxXtIpMYjyOAeXXjyRiy6cPOgW65ISFw2Z89trNLGEua0tbOMYirMVZWKksE08YeBvCWEaJrYe/9HweouOVWS0toX5/R+30B1MYZpZpASEQKAxflwp11w1m+qq4kGvoay0iIZa+3ad0pR0dkbp6FARs2LwqIhZYZt4PEVzc4BstLNfNEFZiYuxYypIJg3efPsrtm5rymRHsjm4QNfhtlsW5OwFXFLioq4+Hz7KJh0dEdrblTArBo8SZoVtEkmDo00BpBT2SuXQqKz0UF5exBdf+nj1L19Ym4lZpDCE0BDAhSsncsl3puQ8rkjXRSaVYW/zDyTBUJq2joiNYyjOVpQwK2wTjiRo74hmcrK5CrPANFM0NJQTCiX48yvbaWuLATKL/USr8rim2s0Pb1vIqBp702YqK4opLXFjJ18upUTiol01mShyQAmzwhZSStrbIqSSOY5jyiCEhsdj+SJ//MlePvhoL5YoZ2dSpOmSG66bx8wZ9scZud06jY1lNkvmJEIIAt0xkjavjeLsQwmzwhbJlEmzL2TLuMhCY3SDl6NHArzylx0YMstp1ZkUxpxZ9dxw3ZxB1Sz3hcfjorHBa1V02KnMkCbBYBy/P2R7TYqzCyXMCltEIgn8/mAm3WCnFRscusb+gx18sbM1Uw+dXbRcXe3mR7efQ20eqimAjImSF03YmwAoMQkE47S0KmFWDA5VLqewRSSSxN+SB+GRBk2+gJWnznL6idAcaMLgwgsmcdGFk9AHmKidLcUeJw31ZQgNMOxFzIFAnBZVy6wYJEqYFbaIRFL4/EGskVB2NsvMQU+WFkJj5vRqfnjbObicvZvf54Lb7WB0Qzm6pmHYSA9LKQkEVCpDMXhUKkNhi0g0SVNzyF4uNgeE5qSi3MFVV85gch+jonJF0wT19aXoDs3m+zIJhZO0tqqIWTE4lDArbBEKJejuTmRyscM15E5DCMGSxWO59uo5Q3KG8nIPZaXuTFolN3GW0kTXi2hrj9is71acbShhVtiiozOC3Ykfg0XTnEybUsF1V8+mpMR+FUZvuF0OGhvKrGGvdqJmIYhEUoNO0yjObpQwK3ImEkni94UgD8Vy2SKEhsNhcMlFU1iyaOyQncfp1BgzugJdF7ZM85Em4UgCn8ozKwaBEmZFzgSDcfw9+dNhelTXNBcXrJzINVfPwuEYuq+vy+2goaEMp1PH3sRsk1A4kdkgVSiyQwmzImcCwURmY2t4RFkIB431Hq743oxj1pxDhcup01Dvxel02LT/lETCCXz5KClUnDUoYVbkTDAUx982XIJjieMV35vK8mXjh/xsTqfO6NFedP34uXNBSkkonMDvUxGzInuUMCtyJhRM4G8OZDLMQxk1C4TQOWdhPd+9bBrFxc4hPFfmjAIaG6yI2Q5SmqSS4PepkjlF9ihhVuRMIBAjkdSGJZNRUurg5hvmMSnPNcv9UVbmprK8mOy8oPvCRAgnre1h0illZqTIDiXMipwwTEl7ZwxE/jruesOaui248vLpLD9/Ag7H0J7vRHRdY3RjGWAgRO4/FSkEkUiSjk41NVuRHUqYFTkRDMZpaw9n7WuRCz3+zpMmVnD91bMp97qH7Fy94dAFDQ3eTGWGjZ+KNInFUzQ1B/K2NsWZjRJmRU50dcVoa4tg7zF/IKyp2T++YxFTJ9cM4Xl6x+HQaGz05jwN5TiSeDxNc3MQ01QdgIqBUcKsyInu7hjt7ZEhTC8LJFBbW8pFKyficg9fCqMHh8Pq/nO7dFupDDCJJ9I0+5UwK7JDCbMiJ7q6Y7S2hbL2Tc4NSTSSZNfuVgxjKCPz3tE0GN3gxeVyYOenIqUkGk3Q1BwYkfehOP1QwqzIic7OGJ3dCYZSlAUSnz/MM89t5PCR7iE6T//U12dSGbbsQEwMQ6i2bEXWKGFW5ERHZ4R02jGkrmlSSoTQ2Pq5j7f+votoNDVk5+qL0lI3FRVFmUndubrMSatkri1CPK5K5hQDo4RZMWgMw6S7O5Yx9xnanKnM2G7+9Y2dbNh4aNhztJpmVWYg0/ZaswXEYikr/aNQDIASZsWg6eyM0tUdY2grMnqwcthd3Qlee+NL9h/oGIZzHkfXBaMbyykpcWOvZE6SSpn4VGu2IguUMCsGTUtbxKrIGMIa5m8jkdJgzdrD/P3dr4c9pdHY4KW42GkrYpZIkok0R5sCJJMqnaHoHzXzLw/4/CEOHOjENE2bTmSFjRACp1Nn67ajNPmCwyjMABIh4I2/7cTldLBkyRjisfSQnlEIq+ikrTVyrNklZ6RJPGGy5fOj1NeVUVLiIp0+sys0TAnVlR6mTK3J60zGswEh1cybnJFSsmOnn6ef2cjmrc0ZoTqzL6cQAsMwSaWM4bJgPnkFOBzWDWK4vrrShFTayEt+W9c1nE49I/pn9ndF05xUVbr44W0LuOXGBTid6gE9W5Qw22Dr5008+ZsNbNrSfIJInemXUwBmRlRG5r1azR7aMJz/eJScr5uutXbxrWOfuQiE0KiucvGj2xdy2w8W4Haph/RsUFcpR7Z+3sQTT69ny+ctSGkO82P92Y11rU/P6322fU8kgvYOye/+tAVNE9x843w8HiU7A6Ei5hxYvfYATz+zkZ272jFN0xrYqVAo+kAgNJ3yMie33jSfH91xDt6y4TWkOt1QwjxI3nt/N8++sIk933SDVKKsUGSHQGgOSjyC666Zzd13LqampmSkF1WwKGEeBG+9s4vfPv8ZBw6FlCgrFIPGmkRTVKRx1RXTufcnS2loGNrZjacrSpizQJqS1/+2k2ee30izLwbSOOtyhQpFvhDCgdut8b3LpnLvT5YwflzFSC+p4FDCPACplMlfXv+C536/mdbWmNroUyjygBAOXC6NSy6axL13L2HK5OqRXlJBoYS5H2KxFK+8tp3f/XELHV0pkOkzvvZUoRguhOZA1wQXrhzP/fcsZeaM2pFeUsGghLkPugMxXn5lG39+dQedXUkkaQbTUSGEBkLLGP0MoM+RtwAAIABJREFUPxL6Tbnksj4pZSavnod6XjLn76NTUuYph2+9Tz0vn0K+1gTWLMPBmu9LZGZvo6/P1K6hvz2OP00O4neiORBScv55Y7n/niUsmD966BZ4GqGEuRe6u2P88aWtvPjnL4hGDUwzTfZfNmuDw+WEUaNKcIxEt5MEj8dJR0eUto5IZixfz/oFmpBUVhVTWuJCaNlLlmFI2trCGetKe18bt1tnVE0pTtepHXxCCALdcbq6kzZvBILqKg81NSUkkvbat4UQdHVFCQQTJ13PXI4Fo0aV4vE40TSR1VOYEAJNCDo7o3QHEieJs0DXBWNGW/MJ0yNkxt/dHac7kEAgBnUDE8Kqa150bj2/eGQlc2fXD9USTxtUpfdJtLSG+NNLn/P6m7uIRNNIM/sftBX96dTUFHHz9XOZOrXGEp5htKoUQlDkcbBp0xHeee9rhBBWpPWtF+lUeN3cc/dSysuLMI3+19cT1R463M0rr23nyNEwppmrkZCGrkvmz2vkumvmZM5/XEh6zuXzhXjt9R3s3tNuvYcc8vpC6FRWerju6tmMG1/5rfMM7jgCoQnWbzzIu+/upqsrgZlz5KwhhGTF+RNYfv4E3K7sPK2dLp0vdvj56xs7IJDs9TU1NSXceP1cKis9pFPDJ849n1lXV4x3/rGL9Z8dRQgHUmb325EyjRA6m7c08+hjq7n/niUsXTx+KJdc8ChhPgGfL8Tzv/+M1/+2i2SKQYqyhhA6dbVF3H3nYm66YS66PjKPlQcOdPLV1634fOFeojuJlILOrhjjx1Yyd0720cm6DYesidE2HpctIySNReeM5YrLpqE7+j5Webmb/+vfPyQU6omaB3uDM2lvjxOLpVh5/oSc19yDp8jB1q3NdAXSYOQmzD1mSFUVxVywfCJud3Y/QSklGz47THtngt66Hg1D8s3eThKJNMuX2X+vuTJ1SjWuZzawes1hYDDibCCEzpatfv4ztJpHHjJZuXzi0C62gFGuIhmONgV48jfr+esbX5FMSuQgIkIhdAQ6Y0aX8OD953HrTfNHTJR372nl//z3D1mz9hCG0VcLsEkwlOTNt74kEIhnfeyDB7vo7o6CraoUgcOhUVdXOqDMXnTBJK747nTAQGiDdyeT0iQUNvnb379i/YZDOa32RCorPJR7bfoyI5ESDh7uor0jkvVfvff+N7z/wV7MdG+pD+v/h0JJnnluM//8YA/mCGUoZ82s45EHz+eS70xE14+nKbJBZvZEdu/p5L9+uZoPP9531s5IVMIMHDrUxWO/Xsvb73xNKk3Wd3k4bqgzcUIZDz1wPtddM9vmfLjc2buvnV/9ei1btjbBKXm+44uSUmIYsHbdof+fvbcMj+NK931/q6pJLWYyM3NsyxCmCTkOTOI4zJyZPXvfc+95zr53P+e59+yzJzNJJslM0GGaMExoHHASx8zMLLVYalBz17ofqmVLJqm6RJb692WeeNTVq6qr/rXWu973/1JhwLi9qsqLz3d8fNMYQghUVaWkOAPLaWbLAA6HlYULpjByRF58k9L4hdW0IAcPefnwky34fKEER61TkJ9GdpbT1AabvoEKrkoPTU0nD0kcT6M7yD++3k6Fy4+mHX8OzddEIqVGZaWfd/6+kc1bKhMeo1lGDM/n4ftncdEFQ7HZ9D2X9iKlhkRj3/5GnnrmF779564+6V/d54V5z946Hn/yJ7755y5imlFR1pf1I4dn8eD9ZVx26chOHOnpOXSokedeXM7SXw8CSitRPrZbf+whFkJQ7vKwYWMFkUj7bnxXlYdQGMwZCAlsVoWSovZVfA3on8XCG6eQlWVFUayGv625b+CGjeV8s3iX4c+3JD3dTmamw9QxABACl8tLoJ1+0p9+sZUtW6sQrdYYIr5Sa/nCkmhahA2banjznXVUVbd/Rt7RDB6cw8MPzOI3lwzH4VAxJDVSf8kcOuLhL8/+yhf/2EYg0PX9HruTPi3M23ZU88c/L+HnpftBKIZ2kkGgqIKxo/N48P4yLrpgRKeNsy2OlLt55fXVLP5+DwhxnChbKC1NY/iwnOM+JQHBkp/2UVHR9qw5Go1RU+tHUWwmcrn1seVkp5CW1j4TG0UR/ObSkZw9ZzAWizQ0+2pG0yLU1of49IstuCrNtXbKyXaCFiHxZZFEAPUNAbzetsNIR8rdfLN4Jw2NkXh2EOi+E4KS4jTGjy2Ip3E2P8p6GO6HH/fy1rtrafK3b1beGfTvl8VD983m8t+MxGIxuuKRSC1GZXUTf31hOR9/uqVbmvF2F31WmDduqeSPTyxhxarDCMOiDEKxMnZ0Ho8+NJtzzx7aSaNsm/IKN6+8tppPPt8WP49js1lFWMjMsvLw/bN47KE5FBam6bla6EtGIQRr1x1m3/66NlO0q6p97V56nwohBEJoFJdkoFra/5DarCo3L5jM2NH5CCWR/Wr95Pburef9DzcRCiW+NM7JdeJMPXX+dXsRQqG6xnfa6x4Ox3jv/Q0c2N8Qj+vrf6woNgryU7n/3pn867+cw8BBWfp4Wvy2mqbw9be7+OyLrd0apy0sTOOG6yaR6rQmFAKSMkZdfYgXX1nF3z/c2K0vmq6kzwmzpklWrz3Cfz3+I+vWVaDP4ozeuAIh4ILzRzBz+oDOGGa7qK728dqb6/jo021I2XqjTwgLzlSVB+4t47JLRzFyZD6zZg6IzzjjDzCSSEywfOUh6hv8p/0ufekdQZoNY9hUSoozDW+Ojhiez6iRBQiiiT3gWpSAX/LlVzvYtqPK8Oebyc9zkpfrxPyjI6ms8uE/zRJ98xYX3y7eRTDYMsSmoCgwZWIxV142mgnji7nrtrPIzra1Wk1oWoTaujAffrKFZSsOmByrOWIxjbCJNlpSRmlsDPPK66t56531fWLm3KeEORaTLF9xkD89sYQtW6to7sZhGCEQRElzGo95dhSN7gCvv7mWDz/aEv+XlqKs4nDAfXdPZ/5VYwEoyE+lbOYgFBE7NtvTywNZtvIge/eduvu0pkkqXB6CIWPVjycgmoU5vc2Nv+M5fKSRPXtrkVJNePNREqO6tom331tPff3pX0SnIjfHSW5OqunGrABVVb5ThjMa3QHe/WADNbVNrfY9FMXK4MHpXHH5GBRFoCiCSy4aybzLx+Kwi1ZZEFoswr59epjrwMH6hMdrlqoaL6GgOTGVMobHE+WNt9bw0qIV+Hv5zLnPCHNM0/h+yR7+689L2LGrWYTMLfE6ogdcIvh8YV5atJJ3P9yIdrRMWkcIFbsdHrx3FtdfMwFHizzZYUNymTC+JB4j1vNppZSUlzexZavrlOcjpaTC5cXvD5uaMQsU7HYrpSVZWNT2x4qbmkI8/+IK1m2oMFUSrZcMKyz9dT/LVx5K6PfLzXXqPsJmSp/jX1tZ5cHjOVGYNU2yfOVhli8/iKTFi0goCPSc7Nllx3KVU1Ks3H7rWfH8Za3FzFkvkV633sXfXlhx0u/qbELhKC6X9xT7Ekbizvp97mvSeOf9DTz59FIaG7v+fLqKPiHMUsKXX+/gqWd+4eAhTwL96npO5+tgKMoLi1by/kdb0GKcsNFntyvcddsM5s8bi9Npa/XZ0pIMzpkzGD0r49hPr2mwek05u/fUnvQ7YzFJZaVHL8U2O2O2KhQXpaOq7bumkUiMDz7azC+/HkCTqmmvCik1/P4Yb7+7jgMHjM8is7Od5GQ7da8Pk1RWefGeJIWvosLNe39fj9cXRWot9gwUK1Mml3DJRSNRjiulz8528MC9Mxk/rhCEhaPhKhkDLCz9dT/vvL+eUKhzO4sfj98fxuXyxG+bY/eOEBIhmp9DY+IcDMEnn2/hiWd+pq4u0PGD7gH0CWH+6JPNPPvcMsormhJoqtlzmmZGwjFeeGkFf/9gI5GIRNOOF2VYuGASN1w/gYyME9O6UlKsnDWtP3m5qRx7ICRSRlm19jBbtp0697W8wkM0Ks1Znkqw2y2UGDBHX7HqEO99uAGP9/jy+MTymvUZJWzdXsU/v9+N12sstznFYSUnJyX+1YlnZkgkriofXl/rJbnfH+bHn/exeWtlPFyiX28hFBw2yQXnD2fkiPyTHnX48Dxuv2UqAwekoijHXspSRmkKaLz/4WZ+/KlrizZ8vjCuSq8+jqP/KnA67Vx04QgmjC9GUY69SNpGz9aIRAVffrWDx59YYjrTpifS64X57XfX8cJLy6muDiI1Y4Y4QqjYbQqDB2brMVGTO/FmiMY0Fr2+mg8+3kw4TIvUqWZvW8HV88Zy801TycpKOeVxSkoymDVzIIrSctYsicWsbNzkOukmoN8fpqbWF88jTuwlJeJpfDk5qThS2heb37Ovjr+9sAKXy9/KzEgIhbRUG7k5KSRyC+tFDCoffLyZrduMbwRmZ6egaSFz6ygJobDEc1zl5Z59dbz3wUZisZab0gIhrJxzzmAuOHfYCbPllpw9ZwjzrxxLZoalRQaLPtOsqwvxwqKV7NhZY2bkhvD5wlS43ICIr7YEQghyslK4Zt5YHn5gFsOGZhnMUdfFORqFb7/bxZ+e+IlDhxo66Qy6h14rzDFN47U317LotdXU1IUNOsTpy8asTBtXXT6GieNLUFWlQ5aviRCNarzx1jre+fsGfL5Ya1FWLNisgksvGs49d8wkN/vUogyQlZXCRRcO1z0vWlUDRtm4sYJNm10nfKaq2kcwFDUVxQAFi0VSUpKB2g5Hu9q6Jl56ZVVcOI/N1HVTJsFlvxnFfXfPJMXR+jzajdSorQvx5Tc7DFU/gl6anZPtMP2iFlKhtrbp6Ay2rt7PPxfv4sgRb4twmy5kebl2Ljp/hJ7yeBpsNpVr54/j4guHILXYsZdvvGhj774Gnn9pOeUVblNjby9+fwSXy3vUI6SZwoJ0CvLSmD6tPw8/UMbokTlxcTYW1tA0wQ9L9vGnp35h995Tb2CfafRKYQ6Gojz/4gpeeW019Q2RBETZRna2nbvvnM6tN08lI8PRbQb54bDGW++u44231uLxRFudixAWLKrg4ouG8/ADs8jPc7Z5PFURjBpRwIjh+XHjmHgsUotxpCIQL+c+hqZpuCq98bJYE0tgIXDYVUpLMtrUs6amEF98uZ3vf9h9Ym62YqdsZn9uv2UqV10xmnlXjonnRxu9lSVoMX5Ysp+VKw8Z+mRWZgpFBekkHk45Nobqah++eDhjw6YKPv9ymz625mstBKBw6SXDKJvZPse1jAwHt948jXPPHnSc2GkgYemyg/z9g03UN3R+fNbj1a1AWyMoKkrHEbc9PXvOEB55sIzx4+J56gZeeFLG0CT89Ms+Hv/zT2w8ycTiTKTXCbPPF+JvLyznrXfW4/FGExBlO3m5Dm6/eTLXXj2ewoI0YjHN5GwxMSIR3YDn9bfW0eiOHCfKKhKN888dwkP3l1FY2P64bVamg/PPHUqKQ22xgy/RNMG2HdXsbTHziMUkFS43kbC5PocCgdNpo6QwHUU5/W23cvVh3nx7PZHocct5xcrAAWksuH4i/UozcTptXHXlGIYO1nvGGU1hk2g0+WP846vt7NzV/uV9dpaT/FyTmRno2S7VNXouc1W1l2++3YHHo7WYBOjnM3RIFheeP5xUA+mZ/ftlsXDBFEaMyIqHNI6Jc0wTfPLZVr77YXen+lBIqa98WuxfHv2NCgvTyYzvgyiKoGzmQB57aDbTpxUjMGb4r98jglWry/nzUz+zdn15m5/p6fQqYa5vCPDs88t47/2N+AOaYVFWVQdFBSncdftUrrt2Ak6nNb6E73pVjkQ0vv52By8tWklDQ/iEGCvABecN5eEHZ1FSnGHo2HaHhfPOGUJ+XhotbwFNC7NtexU//7r/2DiiGkfK3YTCJs3xhUJKio3ioozTxki3bK3ihZdXUlcfbrEnoC/nnSkq184fy8zp/Y/+/Yhh+dx68zTsdgVIoFw7FmbT1lq+XbybQDtzbbOyHBQUpZvsTqOHKmpqm6irb2LlqkP8uqL8uJevvvy/bv54Ro0w3nZpyqRSFt44idwce2uvFBnD64vy2ptrWL6y84pPAoEIVVU+/SuP8/koKkxr9aIRQjBtaj8eeXA2s2f1Q//NjTjT6eZHGzdV88RTP7Pc4Cqop9FrhLm62stfn1/GBx9uJhQy2gJJoCh2SktTueeuacyfN47U41LNupJYTLL4+128sGgVVdUBpIy2yGUVIBTOmTuQRx+czcD+iXUYLi3JYtKkUiwWCfFZs5QawaDCxk0VR7MVolENl8tLOGyuQECg4HBYKC459cz+SLmb195Yzc6djUgZprVACeZdMYorLhuNw3HsgbbZVM47dygXnj8cIVrm8LYXSTQq+eafO1jRzoc5M9NBfn4qZtMoJRK3J8SPS/by3fd78Ps1WmZhSCmZNqWUuXMG4XAYL0W3WlUuOHcY118zXk9Na7Gi0LQIFa4gi15dzfYd1abO41Q0NgaorIrH71s9ijHy81NRTlL9OWFcEY8+NIfzzhkEUiIMbArqz4jG1u31PPn0z/zy6z5T4+9OeoUwl1d4+OsLy/nok81EY83lq+0UZSFQVBsD+6dx713TuPLyMQk9BB3Jkp/28OIrqykv96Np0VZLW0VYmT2zH489NIfBg7IT/g6LReGSi4eTlWmNpytBc8HJnn11rNugLwelBkcq3KYq7ppJS7NRUHDyzSu/P8JnX2zl56WH9f6KcZrjx7PL+nPzgilknyTjJDPDwa0LpzJoUDykYVAwY7EQFa4gX32zg7q6tisCLRaFvNxU8yspqVFX38QXX25nzbojaLGWsVgFp9PKTTdMorjI2IqoJampNn577QQu/82o+LU89uKSsTCbNutOdJXxmW1H4vEG48c9dv9KKUlPtx0NY5yMUSPyeeTBOVx88TCE0Fql/rWFXkQUZdfuRp58eik/Ltlr7iS6iTNemPfuq+Mvzy7lk8+3o0mjvcYUFMXCiGFZPPTATC6/dBQ2m/HlcEfy4097eO6lVew/4I1778ZvaqEgFAvTzyrmd4/MZajJdu+KIpgysYRBg3Li10wXM02LUF0ZYMlP+mzDHwhTXx+IP9CJu8ppMkJuTgp228lfet/9uIfPv9xJONI6AwMU+vdP487bzqJfv8xTfsOokfks+O0knCmqoVlWM1JqrFnr4ut/7mzX32dnObBazecDe70hKquaaPK33j8QQuOcuYOZPq2/4fL148nNdXLHbdOYOL4wfnz9eBKJFPDz0kN89MkmgsGOLT5pdAepjOcwt6S0JKvNFenQIbpt6OWXjMBikQmIc4x9+738+S8/89U32w2Pvbs5o4V59+5annpmKd9+F38rGpjRNbeCGjUim0cenMnFF47otq4jzSxbcZC/vrCSPXs9yBaG6EIoKMLClEkF/O6R2YwYntch35eaaqdsxkDSnPrxdTQiMYXtO6oor3BTWekh2k6/5lMhhILVIik6xQbluvXlvPHWGqqqgy2M4HVRTnWq3HHrWUyYUNzm91xx2RjmzG7unGHsBStlhEZ3lG/+uYMDB9vOiU1Ps1NYmNpBue3Hdb4WgsLCVBb8dhLp6R3g/wwMGZzDfXfNoKS4OQTTnI0TpakpymdfbG/3S6m9eH0hqmuaVyDyaOSnqDANZ2rbQjuwfxYP3lfG1VeNIiVFMSzOmoxwuLyJJ59ZysefbjmjuqGcscK8fUcVf3rqZ35ZelgXZEOibEEIhQnj8/j9Y2czd/aQThxp+1i15jB/+euv7NnjQdOOFR3oAqMyYVwev3/kbMaMKuzQ773g3GH0H5ANLew0pYxSWe3l8y+3cfBwo951w1T1o0J6uoOiwhOX5C6Xh1deX82eve5WLyNFsaAIyTVXj+PSi0dgs7YttKlOK7ctnMKQwZkJ+jaH2bOvkb9/uLFNH430dDtFBelxrem4wiNFsWJRNS69eATjxxV3WE2TIgQzZwzktpunkpamtrJPjcVCVNeGee3NNaxdd6RjvhC9a3YocqwVlohXmpaUZJDaDmEGKC3N5L67y7hu/mjS06woSvt8vIF47naU6uogz/xtGe9/tIlQB68KOoszUpg3b3Hx+BM/sWJVORJjaVy6KMO0KcX8y6NnM2Na/7Y/1Mls2FTBE0//ws6dDa1aB+niojB6VDaPPTKHCeM7vq37oEE5jBlVgEXVji1xZZSGhiBLftrHvv31xDRp6MV3PEIIUp3WE1L6AoEIb76zljXrK2iOb+t/ryKA2bMGcfst03CmtH+mNG5cEVdfOYY0pzA0wwI9JzYYkPy4ZA+r1xw+7d+mp9spKGh/imL70HuUDB+ez7XzJ7TbT6S9qKrgmvnjueqKMVgtEiGOhXykFubAATcvLFpBRQcUn8RiGnV1TSfE+4WA4qL0dgszQH5eKnfeNoPfXjeWrEybsd81bvJV3xDkr88t0z2dTfqKdwVnnDCv31DB//7TT6zdUMUJS8A2EMKCoiiUzSjld4/MYdLEks4baDvZsrWSJ576me3b61ptWgqhgFAYPjSTxx6ew9TJpZ02hrmzBlNc5DxaFivjHTEOHW5k85bKeK6rOfOitDT7CaGMf3yzg6//uZtgULbuziEUhg7L5N67ZuhObga56oqxzJ0zCIvFWD4s6CGNyio/77y7/rSNajPSHRTF22OZNc1vRlGspKcpXHHZKAb0Syzbpi1sVpW7bpvO7JkD9GrWFhk5CMGGjZW88sYawx4ix9PoDlJd4zvuhS4QCEqKMlq5HraH7OwUbr15CgtuGEdWVrM4G6kS1PD6Ivz1hRW8+/6Go0U9PZUzRpilhGUrD/K/Hv+RLduqQRoUZcWC1WrhnLn9+d2jZzNubMfPPo2yY2cNf/zzEjZuav2SaY5/Dx2cwUP3l1E2o30VX4kybWo/hg/LA9myRFsjFIqyZ08NkUjLogfjCFTS0+ytzItWrz1yrDIzdiwVT1Gs5OXauPnGyQmvENLT7cyfN45hQzMMbwTqv4HC2g3lLP5+1ylDGmlptviLpmNEWaB7K0+ZVMpVl4/pkGOeiry8VG69eSpjRmW3bpygRQmH4auvd/LFl9uIRhPfW6iv91NT0zIjA0Bgs1tOmZnTFpkZKSxcMIU7bp1CTrZNz3Nu90tRF+dAIMrzL6/g9bfX0ujuuc50Z4Qwx2IaS37Zy3/+8Qd27qpDasZnyjablQsvGMzvH53LyA7aPDPDnr21PPGXn9mwyRX3d2k+H12UBw3M4L57ZnLeucM6fSzp6XYmji/G4WiZByyJRjU83jCaZtSR7ziE/h05OXrJeHm5m+deWk55hQdarBIUxYrVKrnqinFcfdU4U+c0/awB/OaSkdhtxvsEaloUry/C3z/cyKHDjSc/JSEozE/rsOiyUG0UF6Uw74qxZHTQht/pmDqlHwtumExRgaOVgZCmRWnyx1j0+mqWrTiYcMVrQ4Ofmlp/K88P0CjITzUUxjietFQbN14/iQfvm0FOjhVFqAY3YDXCIclLr6zkhZdX0NDYM8W5xwtzNKqx+Ps9/NfjSzh0yEvL3mftQQgVm83C5ZcM5ZEHZjFwQOK5vx3Fvn11PPn0Ulaubu432NJFTKW0xMntt07hkgu7rsHrzBkDGTeusFXcETA1U9YRoEXiVqPg8YZ48511bNzoQqC0WiUoqsqF5w1l4YLJJr9T59KLR3LxhcNQFKNGR3ooZ/+BRj75fOtJPZMBMjLspKV1RHqlQFUVZkzvz/nndV3/yMt/M4rrrh2Pzaq1dqJDb7z71+eXs31nYm24GhqDVFcfmzHr7oIaJSUZ2O3mrpndrjLvynH84bGzKSxwIlANlsdraDHBO+9t5Jm//kptXfd1Ez8VPVqYo1GNr77Zzp+eWILL5TNscC+EitVmYf68UTxwXxmlJYkn6ncUBw7W8/zLK1m6bD9wnCgrKoX5du687SzmXWFuxmiUEcNzGTemECF034GOQggFu0NQWpqBpkm+XbyLjz/bSjR6osn/hHF5XH/dhLidp3kKC9K4/NJRDB2cYbiJq5RRIhHJJ59vZdv26pPOHJ2pNkpKs1p0hEkMRbEwoNTJ2bOHdFi8ur1cN388V1w+GlVtERaQEoFg+w69+KS8HV3Uj6ehIUBtrb9VxxtVVSgtyiQlxUBmxSmwWhUuvXgk//LYXPqVpickzhLBR59u5sm//EJl9Yn51t1JjxXmaDTGJ59t4YmnfqGmNhBP1zISvlBRLbDgt+O4546zKEwwrtWRHDrcwCuvr2Xx93uQKMcJk0JWpo277pzO1VeN7XLrZyEEkyaUMKB/WkKpZqc+rkJOTgoFBWmsWXuYlxetIhRqHYoSwkJ+rp3r5o9j8sSO3eScftYArpk/Pv7CMe5A19gQ4KOPN+E6iTWoM8VKcWE6IM0JqlDJz0+ltLTrJw5ZWSlcf80EZp5VHPemaNlFXeGbb3fz+T+24jvFquFU1Dc0oVod0KJq1aIqlJRm4DA5Y27GYlG48Pzh/OF3cxg8KD0eczbwG0sNUPnqm1386YmfKXf1HHHukcIciWi8+/5Gnnp2KQ3ucFyUDc6UrXDnbdO449Zp5Od3vyhXuDy89uYavvxmp+621aqgQCU9zcL9d0/nmnnjuq3QZeLEUqZOLkUoHVn9qMdiq6q8vPzqalxVvuO6yCioimTBDZO49OKRHf5CUhTBOXOH8JuLR8SPbcRSUkMIweIf9rBi9aETwjqpqTaKitq2MW37izSa/OHTZoF0JqNGFnDj9RMY2C+tldmR7ncMb761lsXf7253vDkQiOgNF1r9vUBRBSXFGR1qeaCqgnPPHsq//u5sRg3ParWZ2R6abUO/+3Ev//vxH9pVXNQV9DhhDgYjvPbGGv72/Ap8vphBMyJ99pXqVHnogVncetNUcrLb9ijubOrqmnjj7XV88eVuohHtuLJxBYdNcO9dM7jm6vFxA/vuISvTwcTxxdgsmmlLy2NIojGNLVsrWb22/Oi/6QiEIrj6qtFcdeUY06XHp6KkOINr54+jfz/+BrALAAAgAElEQVTjHspSSjRN4f2PNrFte2uzH2eKjZLijKMmS4kikTQ0+KnuBL+K9iAEzCobxB23TiUlpfWsU8oY/qDk9TfW8uuy9jnR1dX7qasLtApjCKFnnZSWZHT4xENRBLPKBvFvfziHyRPzDbaq0s9RavDL0oP8v//5PTt2do6pkxF6lDD7/RFefHklr76+Bn9Ao2Xb9vYghJXMDCuPPDCbG6+bSEaG+ViWWTyeIIteW8Mnn+0gHI5yQkdrh8qD95Xx2+smYDeY29kZjBqVz6SJxfFuLeanr5oWZfee2hZdqY/F1BGCaVNKuHb+BPJyO+8FKgRMnljCzQsmo6qtG9G2jV6gsHNnPT/+tBdfi+IEh8NCcVFah8yYGxuDVNV03yaUxaJw8UUjuWXhJKQWpXWz3hgHDvt474MN7Nrdtm91TU0TdfX+VqtCKSXOFCu5nfQ7K4pg2pR+/MtjZzP9rGKD3VDi4ixh9dpy/vO/fmDzllP3v+wKeowwe30h/vrCct59fzNNAQ0pjdlMKsJGfo6DRx6azfyrx5LSzr5ynYmvKcSLr6zi4893EAyeKMpWK9x/1wx+e+3EVlaW3cmQwbnMnjWow44nhMTvj+D1hlttdIKguCCV22+ZyuhRxr2GjaKqCueeM4xzzx6K3qHZyMpEokmNTz/fwqrVxyoChYCiwuaO3yZmzFKjKaBRVdu9TUVTU23Mv3IsF10wHD1ufix1Usooq9ZU8v6Hm9oMudTWNVFf7z8W+olnZBQWpnf6fT5hXDG/e3gOZ88ZgCKMizPAhs3V/K/Hfzyhm09X0iOEub7ez1+e/ZUPP96CPxgzLsqKnaLCFB55qIx5V47pESIXCsVY9NoaPvx4K4FApNU5CWHBalW489Zp3HD9BJyp3T/eZqxWldGjCigucsZ36U16Dh+NQrVsXa9gtwruuH0aZTMGntY4vyMpLEjntlumUVTQXE1o4KHVYtTWRfl28c5W/fLS0uxkZ6fG90ES75qtKDbq67s/p7akJJN77pzByJH56OLcXKavEQ5H+fKbXbz/8abTHqO2tonaOj9HU+UQqCr0K83qklDdmNGFPPzATC48f1DcnMvYvoJEsm17Lf/5px/5dXnnNRI4Hd0uzJVVPp589hc+/XwbwaCG1IyKsoMB/dN57OHZXH7Z6HaZ3XQ24XCMRa+t4r0PNp5wTopixe4QLFwwiYULppCW1v3hluMpLkpn/NgifV7bwbtxzZaW864aw6UXj+y0uPLJvxvGjyviphsn40xRWvhQtw8poyxddogffzrm8Wu3q/QrzYAW/RMTQoLHE6KxBxQ8jB5VwAP3ziQ/N6XVykLTIgQCGh98tImvvt1xys/X1vkJhloXTVmtCsXF6Vi76PceMTyfhx4o49JLhoLBVlXEbUN372nkj08safV7dxXdKsyHDrv5019+5h9f7iQSkQZnygJFtTNyRBa/f2QWF188vEsf8lMRjWq88fY63np3PQG/htZKlG3YbIJ5l4/itpunkpnZ+RVeiZCWajfUQ7C9CKGAlEyeVMLNC6eSldkx+cpGUBXBFZePYeqUfvGQhpHecjGa/JJ/freL7Tv0wguHw0ppSXO7LDMbgBo+XwjXSfyLu4Nz5g7h1punkupUW5kGaVqE6uoQb727Pt7B/ETqG/zx1LtjxSVWi0JpSUaXbm4PHqR7Ol87fzRgsLuNlEgtysGDTTz5zDK++rZjLVHbotuUbM++Ov745I8sXrwHTRMGN/r0riPjxuTy6EMzOe/coahtNPjsCkKhKG++u57X31yD39+656CiWLFZ4bJLRnD3HTPIye56UWovoVD0aLVbR/U71F3GVPr1y+CBe8oY1I0VmDnZKdxx21mUlqYa6isHujXojp2NfPbFNqSUOBwWSosz45kGZmbMGl5vkMqqniHMihBcM38cF180HKtNHNflRt8MfemVVdTUtt6wdLsDNDYeH4MW2GwWSksyu3zy1K80kwfuncmC306Kb/wa+b0lmhbh0GEfzz63nI8/24wW65r+n92iZjt21vDnp37i56WHaN5YaD+6neOk8fk8+lAZs8sGd9YwDREOx/josy289sZqvL5oa6c4xYLFAhdfNJS775zeKbPRjsTrDVHh8phyYD4eodrIzLRy2y1TmX5W91utTp1cyhWXjYl7ExuI8UuNcFiy5Jd9LFt+kFSnjZKSTH2JbkaXpcTnCx9tXtoTSEu1c8ct05g6uQgpZTxTR185RKOSX349yGtvriUUOvb8Vlb5cLsDyNatsbFaVfqXZnbZfkJLCvLTuO/umdxy02TsNmHQ2EqixYJUuPw8/9Jq3v9oI9Fo5xvud7kwb9hYweNP/sSyFRXGHeLinTymTS7g94/NYfq0AZ040rZpnk2GwzE++8dWFr26msbGcDz15pi3MEjOP3cw99wxg36lp26P1FPw+kK4XOY9eZsRwoLdJrj80hFcfWXnOqcZ4Zp545gypdn6tf2CoWkhXJV+Pvh4Ex5PkNLSDFSLYrJrtp4y11NCGc0MGJDF3bdPZ8iQLITawr9ZRojF4ONPNvHp51uJxruDVFV5cXuCtKrSlZKMdDtZ3bhKzM5O4e47ZnDbzVNIcxo03Ae0WIjqmiAvvLKat95bTzDUuYb7XSrMq9cc5slnlrJmXTVSi7bcsm8TIRQECmUzivnD789m4vi2Ww11JlLKo3nH3363k0WvraW2NhTvN9bCUxk49+xB3HPnDAYO7H4Dpfbga9USyCTxDbHp00q46YbJ2E7R8687KMhP44ZrJzCwfzqqaiTer8em162v4JvFuygqTCfFaTazRiMSEz0mlNGSaVP7cdvCqeTl2loJmpRR/AGNV99Yw9p48VB9fSC+gXls40/KCMXFGVi6uXVberqdO247i9tunkRWpiUhcW6oj7Do1TW89fY6/H5zneNPR5ddqZWrDvHUs7+ycVMtUjvWmr496B0tBLPL+vGH35/bJXmvbWG1qkQiGqtWH+bV19dSWelv3Z1b6Kbgc2cP4KH7ynS/4zOERk+QcAQwWAp/MhRhY8TQLG67eSr9+3eO+bsZZpcN4vJLRpLqVA1tDslYBI83xhdfbqOiwkNOVkq80i2xWbOUElWxUl/vJxLpeb3pLr14JPOvGkNqqqWFub5+f7gqm3j51ZUcPtJIbW0TbnewVUNdq1WhpDijwzuyJILTaeXWW6Zy68JJ5GRZUQy9kPXVktcb5eVXV/PG22sNe4i0F/U//uM//qNTjhxH0yQ/L93PM88vZ9v2+njqmLESa1UVXHDeYB57ZC5Dh5jrDm2UYDDKmrVH2LajWve4iI/dZlOIRDSWLjvAzl0N8eyLY7vQQqhMn1bC7x+by8jh+V06ZjPEYhrLlh9g1eoKQ2GmkyEUK3nZNu6+czrnn9f5vtKJUliQxpEj9ew/6DXUZR0ETf4QXm8QVVGorvaiaXpfu0RQFL1ydXbZoB5RtdoSi0WhpCiDmhoPu/c2tljt6gZOR8q9CGD7zioOHDrmYS0UC2lOC+fMHcKE8cXd3vAY9HMZM7qIFKfK3r21NPmloXtdyhjRmGDj5gpisRjDh+Xj7OCCtk69SrGYnlr0578sZcfOxgRmylasVoXLLx3Bv/3hPIYMzum8wRpCEg7H+HnpPjZsrCQWO3ZeeksoC+NG5/G7h88sUQY9l7aqqgmzM2XQX1CXXDScCy/ouaIM0L9/FvOuHEdpSQqKaqQTcxSvN8yvK/Ryc7MZBxINfyBMRWX3VgCein79MllwwyTGjc5pZa6vi5rGJ59tZfWaI83/COjZOA6HRQ9l9IB01mbsdpWbbpjMg/fOoLjQnkAhSpRIGBa9tpbnX1rR4SGoTrtS4UiMr77ezpPPLOXQIS9azNiUXwgrDofC1VeO5PePzu0Rtp0ticWac2BbGrXoKVNjR+fyb384l7FjO7ajdVfQ2BigutqH2TQ5IVT6lzqZM2dQjyyiOZ7ZswZx/TUTsdkUjD4WQX+EvfvqCIejGLGmPQGp4fdH9IyYDkpT7GjGjyvmnrtnkF9ga2UTCuAPRAhHtOP2jhQ9pbC02eypZ3HVlWP43aNzKClOOeF82kLKKAjB3z/YxHMvLudIecdtmHeKMAdDMT7/xzaefHYplZWBVsv89iAUK06nyjXzx/LIQ3OOtiTqebQuMwaFUaPy+D//9VwmTejezclEaXQHqK49vlebUfSGqjOmD2D0qDPj5aSqgnPOHsScsn4IxUhOsu6eV1PrN90bUSLxB8JUVnoSbunUFcwuG8x9d83AmSJa2YSebE9CCEGKw0pJUfc3qTgVl1w0kv/jD+cxaEB6vDLVqKez4JPPd/C3F1Zw4EB9h4ypw4XZ7w/z8WebeeqZpdTVhePVfMZiys4UhRuuH8eD984kM6NnVse1RP8hVUYMy+IPj85lQjdnjJjB7QlRVe3F/MafSn5e2hnx+zUzeFAu114zgbxcu+Hu2h0R+kFKAoFoj54xA1gtCuedM5T5V41HVU5XPSmQMkZWprPHVrk2c+45Q/hv/3ouw4Zk0TyxaD/6KuEfX+3imeeXs2dv2w58bdGhwuz2BHn3/Y08/ewveL3NRRbtR/dSVrjrtqncf08Z6WfAEri5o/WIYVlxy8HuL54wQ0NDs5euSWEQGvl5qd1SUGCGyROKuemGyYbLtTsCiUY0Kqis9J6yO3dPITcnlYULJlE2c4C+YXqSa6WHLsIUl/TsgqpmZpUN5N//+wWMH6NnfRlzINSAGN//sI8nn/71lOXq7aXD7rzGhgBvv7Oe515aQSAgEzC4F2Rl23js4Tncdcd0HD3Amxj0HVzllLExgapaGT4si4ceKKNs5sAuHVtn4HYHEMJmNpKBw6b16LLzU+F02rjs0pHMmTMQ3V+hC8VZShTFQl29n1DISHZI91BamsnvHpnL2FEF8Rfw8ddKIS3NTr9+3VPxlwiTJpbwf/+PC5g+tQSr1aj/iZ7dsWxFBU8+vZTNm10Jr3w6RP3q6v288dY63nlvQ9yMyOBNJQROp5V7bp/O5ZeNJhaTRGM948Zs8oeJRE8+FlW1UFyUwo3XT2T6tP6EwzG0HrwEbYtwRKOq2qxZu56/nZuTitVq6fQKqY5GCEF2tpPr509gy6ZKGtzhtj/UgUj0cMb+A3UM7+EZPULomRo3L5zCE0//Ql1dCE1rvRnuTLGRk+U8Y+4DRQgGDsjm0Ufm8uenfmHDRlf8nNr3XEupG5etXV/J40/+zKMPzWba1H6GxyGkyWBWfX2AV99YzXsfbCEcjhkOX+hvJEl+fiqjRhWQle44pRB2NYoQhMIx9uyr5fBhd6s8ZuJpQKWlGQwZlI3Vqvb45efpUBRBIBBl1+5aKlw+4y/XVgiyMx2MGlVAdrbjjLsuiioIhWLs2FGD62hYoWvOQQgVh10wZkwRebkpKIro0RuBiioIhzV27qimotJLTJPHUuWEQqrTwqhRBeTlOhFC9OjYeTOKqiClZN/+evbvb4hv6hrLtmlOBhg3Jp/fPzqXaVONNRk2JcyuSi8vLVrJV9/uIRAIm3qYm3Mce9pD3Hx5TnaVFEVgsahIKYnFel61llGklB0mAooQHdGZqttQFIEQuo1rd2mJEB3vh90ZNBeNRKOxE67VmXIOxyOEfg/EYjJhTWoW56FD9JDPnFmD2h3SSViYDx9u5LmXVrD4h/16LzvN7FJF9NgfsLn09OT03HEnwunP1Qhn/nXpuGuRAPGS/jOF010rs81qu4uO+P31gjOV/v1SeeyhOVxw3rB2iXNCwrxnbx3PPreMX5Yd1t+SpkU5SZIkSXonzZlbhQUpPHDvTC67dBQ22+kzPgwL8/Yd1Tzzt19ZtqIciUyKcpIkSZK0gb5qsJCf7+DuO87i6qvG4bCfWpwNCfOmzZU8/bdfWLXaFQ/kJ0U5SZIkSdqHbtKfl+vgtpsncd01E05pftRuYV6z9gjPPLeMDRuraG4vkyRJkiRJjKEodnKy7dx0wzhu/O2kk3rJtEuYl604yLPP/crW7fVHO8gmSZIkSZLEUBQ7mZk2brhuDDfdOPmExsSnFeaYJlny0x5efmU123c2ImXEtEdvkiRJkiQBRbWTnmrh6qtGcuvCaeTnpx79/04pzJGIxuLvd7HotdXs3e9FixnzUk6SJEmSJKdDoih2bFbJvCtHceftMygu0n1FTirMtXVNfPnVdl55fR1NAVvcCL7zBqfFEitOEUIgFBuKUJOvDJNoWijeXcZsvqlAVR0IofTa30TQXHprrqiqPd/U269l1yD130rriRojURQbmhbinDnF3HPnTMaOKTy5V4bPF6ahMcDkSaVYLLLTCgUURRAJx9i2o5q6ej8S2W5Z0KQkLdXO4EHZFBVm9IrKu+7CYlHYsLGCCpffZKaNwGIRTJuaT15Oao8pre9oVFXB3xRm995ayiuaLVI7GoHFojBzeiGZmQ6i0eT9nQi61UCEffvrqa7xEdO005iStUYCNquFkcPzKC5K79T7WZMCVWhUV/sYO6bw5DNmTZNdVkoZCkb4H/+xmKUr9gNHmyq3STQqGTwom4fvL2Pu7CGdOMK+wf/171/z9eLDaNFETYz0Sr+CQifPP31Nl/dm7Gr27KnjPx//kTXryjulQlAIC06nymsvXcfIEd3ffPhMxu0O8OTTS/l+yW4iUa1dlXf6byrIzHDw7//tAmbPHtT5A0XvuamqyslnzF1p0adJ8DWFaPJF47nR7ZsZCGHB6w0RiSQXeWZpaAjg9gQRZsRFAEj6F2dht/UMy9bOoq6+ic+/3MrWbVVx3+rOuQej0SiuSm9SmE2iSd0l0uuNIKURjVFQRIhwpOvqNZp9R7r9CTpmEHL8/7aFPGPcqno6FZVuvJ5gvE1OYggEqgKlpRk4HN1+W3Uahw438vJrq/nks80IFDpvQ1w3zyk/4iEQjJDi6NguzH2JZo0Rwqj/RbPGdNrQTknvfYKStJvqKh9ud8hkKqRAUaGoKB1HLxQRTZNs217Fcy+tYOmvhxGomGq82q7vhIpKL4FANCnMfYykMCehssqHxxcy2U5KoChQUpKJ/TQeAGci0ajGshUHeO7FlWzfUWe4O09iSKSUuKo8BINJ64O+RlKYk1BR6cHrC5lsJyWwqILS4gys1t4jzOFwjG8W7+SFl1dy5EhTPGul89e2zd7YFRVugsGu7aKSpPtJCnMSqqp9RKOKaVMqq81Kfp6zg0bV/fh8Id59fyPv/H0D9fWhLpopN6M3g3VVeAgEIl30nUl6Cklh7uOEwzEaGwMoipWYlqgACJAxCvKcOFN7fmfz9lBX7+fVN1bzyadb8fm1BERZGPz7kx+j0RPE4wmZPE6SM42kMPdxqmt8+JsiJ++d1U6EEChCUlqSgdXShV2lO4kDh+p57oUV/LBkL+EI8Yox46KsZwGYG4uUUFXThCbhDGk0naQDSApzH6fC5aHJHzadkWGxKpSUZGI7w3OYN29x8bfnl7Ni9RE0TSQwU1YQxBg1qoBAIMbBQ24TZdt6kUNFhZumphDpJ7GHTNI7OfOnN0lMUVnpwe+PYCr1SyhYrSpFRelYrGfuLfXLrwf4//7rR5atPIymyQQ2+hSEIrn1lmncfcd0CgvSECLxF1XzN1dVefF5k+GMvsSZPb1JYgopwVXpo6kpbKpQRyCwWhVKSjOwWs7MjIwvv97Ocy+t4MhhH4DBFYRACAWnU+WO26bx22snEItKvvnnLnO2BvHfxFXppcmfzMzoSySFuQ8jAZfLg68phLnFk8BqUelXkoGqnlmB0FAwwvsfbeLNdzZQVRMEGTOWzy0EApX8vBTuvXs6V142mpQUK9GYRnZWCgiTKwgBlVVefE1JYe5LJIW5DyOlpLzCjZQWE6ly+kZXSoqFwvy0jhxep+N2B3nj7bV8+Mk23O5w3Pa0/aIshAoChg3K5L57yrjg/GFHX0wWVSE326kbNSScoSERKFS4PHiToYw+RVKY+zA+b4hGdxBFUYnFEkuVa27KW5Cfht1+5pQNl1d4eO2NNXzx1U6CQd1b2Qh67FgyZWIx9989nRkzBp7wN1lZKShqFE2a83QJRwRudzDhzyc58+h2YZYSvL4QFkuqQXc5K253kHC4d3r+dgWV1d4OKfdVVSguyUScIflc27ZX88rrq/h+yX6kJtAM5m8rig2ExrlzB3P3HWcxbmzRSf8uOyeFrEwrtXWJ36NSSoQiqKltIhrVsPSCdMSuRtOknnmEHYvFYshdzu3xEYl0vcZ0uzDbbCrXXj2OqZMbMLbkU8jKsjN8WF4njq73ommSigoPoVDUZKqcgsOhUlSYdkbEl39ddoBX31jD6nUVgIiHL9qPotpJcQh+c8lIFi6YwtDBOaf829wcJ/n5adTWhTGV9SI1qqp8eDxBcnJ6T2VlV+F0WrniN6MZObwg7jTXXo0R2O0qQ4d2vcb0CGGeP29cdw+jzxHTNCpcujCbEQ0hBA67Sr+STCxKz53NRaMa/1y8i5dfXcXeAx6Q0nB+saI4yMmycu380dx4/SRyc1NP+/fZ2U7y89LYLhpNFwFWVXlxJ4U5IVKdNi67dFR3D8MQ3S7MSbqHaFTD5fISCEZMVqcpOBxWSksyUXrojNnnC/P5P7by5jvrqaiMt88ydNICRbFRXJTCwgUTuGbeeJzOtuPpuTmp5OWlNtcBYkadq2t8uD3JOHNfISnMfRQtJikvdxOJmPQUFgKHQ6WkOL1jBtbB1NX7efe9Dbz7/kaa/FHj5dVCQaAyeGA69941nYsvGn60y0RbZGTYyM9zIsymzCFxVbmTG4B9iKQw91FimsRV6UGTqilXOYEkNdVGXt7pl/XdQWWVl1deX82HH28hFsNw6EIIFaRk/NgcHnloDjOmDzD0eVVVyM1xmuykrdt/NjSEkzPmPkRSmPsoXm+QhsYAQigmDPL1VLn8vLQe55Gxb389L7y8gq//uQuBkoAoW1CEZOaM/jzy0GzGjC5MaByZmU4sVknYdBqyjcbGgNmDJDlD6FlPU5IuQUpJhcujhzFMucopWG2C4uKMDhydOaSUbNxcyV+fW8bqNRUgBRIjoiwQiordKjjvnGE8/GAZ/ftlJTyezHQ7JYXpHDzsNpXLLJHU1fkJh2PYbGdm2XuS9pMU5j5INKrFhdmk8btQSHVaKSrIwIwlREcRjWqsWHmIZ55bxo5ddfE0QGOeF4qikpKicPWVY7nvnplkZTpMjSkjy05+fioHD3sw5dEsNWpqm6irb6K4qOe8CJN0Dklh7oNEIhoVFR4i0Zhp86JUp5Wi4u4vxfYHwiz+bg/Pv7QcV6U/wU0+hdwcBzdcO55bbp5KSor5SsasTCeFhemAy8RR9Nzbmpom6usDSWHuAySFuQ8SjsR0YTadkaGQmmqjpJtDGW5PkE8+28orr6/C7Y4a9lAWQgGhMqBfGrffMpV5V47tsAq7zAwHRYXp6LPlxJFSUlPro6HR3yHjStKzSQpzHyQaiVHh8hKJxEylcgl0YS4u7L5UuapqL2+8tY6PPt1MIKDFwxfGRFlRVEaPyuXuO6ZzztzB7U6Haw+pqVYK8lPjLnRmPDM0ausD1NUnNwD7Aklh7oOEIzHKK9wIYTGdypWe6iA7u3uq0fYfqOelV1ax+LvdhCPSsCgjFIQQlM3ox713Tmf8hGLUDvb7EEKQn58Gpq6zPmP2+aLUNyRnzH2BpDD3QRobA3i9wbhpVGIzOCEUNC1Ifr6zWzb+Nmys4LkXl7NmXQXRqPEcZVBASn5zyUjuvH1ap3qupKXZycq00+AOYcoCVFhpSM6Y+wRJYe5rSL2dVCSqmS7FTk1V4htbXcuSn/by4qJVbN1eAyRWOKIqcNOCySy8YVKnp/ulpdooLEijodFkgYiE+sYAXl+y/19vJynMfYxgKEKFyxsXZXM5zJnpDgoLujYj45PPtrLotVUcPuJDr4pLrAXUXbdP57r548nKMpcO1x7SUm0UF2WwY1etuYw5qdHY4Keu3p8U5l5OUpj7GIFglHKXh1jMvEdGeoaDwoKumTGHIzHefnc9b76znvr6EKAZF2VFpajQyX13T+c3l4wixdE1xv6pabajs3KBMFFpqdHQEKCm2segAdkdN8AkPY6kMPcxgsEIFS53XJjNZGQIMjLsFBZ2/ozZ7Q7y2ptr+PCTrXi9UaSMGoqN6+lwCsMGZ/Lg/bM49+whHZp50Rbpac3XqbnNVGJIqVFf76emxtdhY0vSM0kKcx8jGIzicnnjpcpmqv5UMjIcFBd17oz58JFGXn19NV9+vYtQmARaQOnly5MmFPLwfWWcdVb/zhjmabHZLPFcb4G5fGZJfUMTtfXJzIzeTlKY+xhHhVko5lK4pEZWhgNHJ4YDduys4YWXVvDDT/tAKEjNmAueEFaE0Dj3nMHcffupW0B1NkJAfl4qVosgauaSS41QxEpNTVPHDS5JjyQpzH2MhviuvrkwhoIQYXJzOy9/efmKgyx6bRVr1lWht4AyJsqKYsNmg8svHc2tN09l8KBTt4DqClJT7eTlp+FymQlDxFPmGvzEYlqXhmOSdC1JYe5DaJqksspnMk0OUARpadZO8WAOhWIs/m4Xr7+9jt17GpEyZniTT1Fs5OTYmH/VaG64fiIF+d3v5eFIsVBakoHLZdLMCA23N0RjY6DN1lZJzlySwtyHaGoK46r0xP/LjDor5OSk6hVtHYjXG+LTL7bx9jvrqawOxLtXGxmngqJY6VeaxsIFE7j6yrEdYkTUETjsFkqK0lEUgZQmSrOlxOMJUlnlSwpzLyYpzH0IX1OIykoPUkqEiXI9gUJ2Vgr5HThjrq3z8/6HG3nvg014PJG4KBsYk1AAC4MHpXHvXTO45KIRKB1cXm0GZ4qV4uIMFEUQi5nLzHC7g1RV+xg7JjHz/iQ9n6Qw9yGa/BF948+UmQ4gBNnZKRTkdcyM+cgRN6+/tZZPv9hGOCwNt7pqzrwYPy6XhzEIZ9IAACAASURBVO6fRdkMYy2gugKHw0JJcSaqqhCLmTHM14W5uiqZMtebSQpzH8LfFMblcps+jj5jdpCTY37zb+/eOp59fhnf/7hXb3OVQHm1osDM6f145MHEW0B1NlarSklxvKGAEIlHkqSG1xumqsbbkcNL0sNICnMfwtcUprqmKW5elHjln5QxsrOcWK2JZwVICRs2VfDM335l7bqK+JgMtoASKja74KLzh/HwA7O63Re6LfLynNhsKqFQ4jlzUkqimkJldXLG3JtJCnMfoqHRTzhqJiNAj+UKJUxOdkrCx4hGNZYuO8DTf13G3n0N8SwR4y2gnEdbQM0gMzPx8XQVKSlWCgvS8XrrMesy19gQIByJYbMm+//1RpLC3EcIh2NUV/vMJWMAIMjPSyUnwYyAQCDCdz/s5pnnllFVFTDel0/oM+XsLBsLb5rErTdN7XEduk9FcwXgvv31aJqZzAyNpqYwVVVeU41ik/Rczow7OolpPN4gVVXNjmzmNv7ycp0JzZgbGgN89OlmXn19DT5fNKFuIyDoV5rGHbdM5Zqrx/eozIu2sFlVSksysKgKYc3cBqCvKYSr0pcU5l5KUpj7CB5PiKoOiEsKFPJzU8kzuPFXWeXl7XfX8+77G4hERUKiLIRgxPBc7r1zBuedO+SMEmUAm02htCQTq1UhbKbfopQ0NYWpPJqTnqS3kRTmPoLHG4wLs5lYhgAhyM1NI9uAMO/ZW8fLr6zk+x/3Eok0G9sn0AJqZn/uvXM6E8aXoKpnligDWG0qxcUZWCwKQsiEKzCl1GjyR6isSmZm9FaSwtxHcLuDVFY2P8gmNv9QyM11kpnRPoP5desrePGVFaxe6yIakQmlw0kZ5YrLxnL7bdMYNiQ3kWH3CFRFobQ0A4vVgrHNzuPR8PlClFeYT31M0jNJCnMfweMJ0eAOm4svA1JGyc1NaVcY4bsf9vDyqyvZsbMeKRMRZQsWi+TG305l4Y1TKCnuvm7cHUV+XhpOpyVu9p9YZoaUGkLY4r4n5qo4k/RMksLcR2hoDCClChirqmuJEAKHQyEro+2Nv48+3syrb67hSLkvQVG2kpFm4a47p3H1VePIyuz8FlBdgd2mUpDn5PBht8lmuCpudxCPN9Tu1UuSM4ekb2AfIBCIUFvrw5ytnD4ry89LIfM0IhmNabz6xlqef2klR8qbkFIzXDiiKFYKCx38/rE53Hj9pF4jygCKIigtyURVwVQ3EyTBQLRFeCpJbyI5Y+4DNDT44+bqJvv8ISgqTD+lMDc0+Fn0+ho+/XwbXm8UMNYCCiFQhJWhgzN48P6yLm8B1RWoqkJJcSYOu5WmgGaqNDsQilBe4WbE8HyS0YzeRVKY+wANjQFq6/xxkTQ3ay7ITyfjJEvn8nIPz7+4jK8X746nw0UNfVdzX76pUwq5/+4ZnDWt61tAdQVWq56ZYbdb8AciiesykmAwSkWlF01Lmub3NpLC3Aeorw9QXWs2VU6PMefnpZKd1TrGvG1bFc+/vIKfft6vt4Ay7A5nQRLj/HMGcv89Mxk1osDUOHsyiiIoLsnA7rCAMNfaKxAIU1HhIabJeGgkSW8hKcx9gPoGP9VVHkwJc3ytXFiYhtNpO/rPK1Ye5IWXV7F+Y1VclI3Gk1VsVoXLLxvNrTdPYfDA7m0B1dkIAf1KMrDbLAiMNZZtiUQSDktcLg+aiSrCJD2TpDD3ARoaA/gDYDbGLNDIzU1BCAiFo3z3/W7efGcDO3Y2omnGQhcgEIqVzEwL11w9loU3TiGvE3sI9iRyc5ykOm0gzTRV1QArrkovsagG9o4aXZKeQFKYezsSGhuDKKqdWDTxVDmAzAwbRYXpBIJRPvp4E2//fSOuygCaFsZ4ebWF4uIUFtwwiWvmjSMt1db2B3sJVqtKYUEa27bXoCdGJfDClIBQcLsDuD1BUvvQ9esLJIW5l+NtClNfHwCDecSt0QshBg7Mob4hwPsfbuCV19fh9kTRYiFjRxIqQqgMHZzBnbdP45KLR2LpYxtXQghKSjOx2iAcFiayGCWRiEaFy0NxUUYyM6MXkRTmXk51jZe6Bj/SrN+nlNhsCh98vJmNGyvwNmlIw335LCBh0qR87rljOrNnDTI3pjMUIQRFhWmkptoJhyNAoi9NSTgSo6LCw8TxMaxJb+ZeQ1KYezm1tX7q65vARMeSZnbvqaWpKUI4Ac8LRVhQVYW5s/pz/31ljBqZb3o8ZypCQElROqkpVhoboybMjCSRSAxXpYdIJCnMvYmkMPdyauv81NX7TXpk6J+tbwi2+u/2IhQrKQ6VC88bzH33lNGvX6aJsfQOiosySHHaQBgLBbVGEg7HKC/3EI0mMzN6E0lh7uXU1XpxNwbpgNYlCRxD7zaSmqpy3fyx3H379JMWp/RFiksycKZYESbKsvUYs6Siwk00amYPIUlPIynMvZzaWj+hsLnmqwkRbwGVlWnltpuncstNU5JL7RZkZ6WQlmY1FfvXneVUXFU+Uw1ek/Q8+tZ2eB9D0yQN7iBCsdIxM+b2IYSCQFBU6OSxh+Zw+y3TkqJ8EgoL0pFaON4yKxF0y0+PJ0iDO9ChY0vSvSSFuRdTW9eE2xPskI2/9qMgBIwckct//7fzmHfV2DOuBVRXUVikezObeQwluqNfZaXXnHlgkh5FMpTRi6mu9uJuDCBNu8q1F4HFIpg6pZQH7ytj4vjipCifhqKCDDLS7QQCwcRFVUpiMUmFy00oFMXhSD7SvYHkjLkXU13dPGPu/KmUEAqKIpgxfQD/+tjZTJ5YkhTlNigqSic9zQ4JhzIAmoXZSyhkrrIzSc8hKcy9mKpqH253sEs2/vQuJXD4cANbt1cSCBgrPumLFBWmk55uR5h6DCWapmdmBEPJa95bSApzL6aqxovbHcC8QX57kEipcfiIm2f+tpz/538uZu26I13wvWcuzcJsZsYs46GM8gpvMjOjF5EMSPViamub0LAhpZkiBmNICQ2NYb5ZvJMdu2qZPrWUa+aNY8zYwi4bw5mCw2EhM8uBJEaijVn1zAwVV6WHQDA5Y+4tJIW5lxIMRmlsDCFEV6epSTQtghAKhw77OHhwMxs2V3DBecO58rJR9OuX1cXj6dnk56YhiJhqzAqCpqYwDQ3JlLneQlKYeynVNT483q7Z+DsZehPWEEIo7Nnn5fCRdWzYWM4Vl43m4otGYLclbz2Agvw0MtJsNLoTN80HCRKqqnzE/v/27jtKsvK89/333ZWrK3Turp6MYHJiCAMDAgmGKIISEiKDhGTZlq2lc+7RurbPOvcs29fHdx2t66N7ZAmRhYSFUCCLKCwRhkkweYYZmNjdVV1dHSrHvd/7x64WkiUQtXeHXT3vZy37Dy2mend31a/3ft/nfR5d4nKpTddmpz4ds1Q8kSGfr0zKxp8QrvrrNB7yUhpIvUy57Gbz1jiHj46zZVs/V1y6mA3nnpzd5X5XV3eI9vYg6Uyt4cZQ75FIzJK5YrFKKKR6Mzc7FcyzVDyeJZ+vYG/jT+B2a7RFA6TGSggERoOtPieYE04gOSx44qlD7N07xAXbTnD5pUtYumT2zvj7U7q7Wmht9YPI2XodwzD7MucLFRXMs4AK5lkqnsiSydhrXqRpLgIBF5/77Gqy+TIv/uodEokSoP82aBsljQogOHw0wzuH32T3niE+fuEpXPSxU+nri1i+1mbV1dlCazSA/QIpwWAiR75gZ0lEcQoVzLNUYihLoVjDsLWSoeHxaFx6yWnMm9vK2tV9PP/iQV59/RiFogdpVCw+fsv6OCrBmzuG2bErzva3BrnsktM495wFRE+iDnQd7UHaWgNowmX52cZcZtIYHEhTKKjKjNlABfMsZBiSoWQW8AD2+v0Gg17CIR9ut8bGi05l3elzeOa5A7z4q3fZuaMfNB+6UbG4ySjR9RKGofHyb06w/c1+Lrt0MZdevJjT18Zwu2d/4yOPx0Vrqx8p7Z3aE8Isj8znpq80Upk6KphnoUy2TDpdtNG1DEAgpU5vdwiv972AbG8LcNP1p3POWfN44sl9vLrpGO8eHkNorvr6s9UNwhLprJtHf7afzVv6ufaqpZy3YeFJsf7c3hpEExV0odlqOFWpSkbHCpN4ZcpMUSf/ZqHBwXFKpRp21peF0HC7BHP6on+0/OrUj3Tyja9fwDf/04Vceflierr9aMKDJjyWv6Y0ahhGheMnMnz7u5v5h39+mcef2k9iKGv5NZtBZ2cLnZ0hm03zTYmhHFXVNL/pqTvmWUZKs6FNoVC1OU5K4PNp9PVFcH3AFOv1Z8/njHVzef7Fgzz2+F4OvD1MJjfRO8Pa47l55y3YvSfJvv0vcNnGxVzziWWsWN4zKyegtHcE6egIkkgWbLbNlgwlc2QyJTraWybr8pQZoIJ5ljEMSTyRrd8xW38sFkLg87uJxSK43R/8YOV2a1x5+VLOO3cBTz69n6ee2c+7R8apVj31gybWNgilUaNmaDzz7EFee/0In7x2JVdcupiPLOrA65s9b92OjiDt7UEEmuVcNqeZCIaGsmSzFRXMTU4tZcwyZqexDMVizfYds9fjpi/2wXfMvysaDXDTDev4H/94Jdd9ZiWx3iAuDTTNDZYf0w2kNBjPlHnwobf45t8+w09+tot4IothzI7O8B3tLXS0B80dPJuGklnzxKfS1FQwzzKGNGuYS2V7d8wIDZ/PxZxYBNFgYCxc0MZ//voF/I9/uIJLNn6ESNjDxGBWawEtQUokBkePZfif//IK3/y7Z3j+hYOk080fQq1RP531O2a7EvU7ZqW5zZ7nQQWAWlUnkciiaZ56rbAVAqRBqMVDe3vQ0itommDN6hhLFl/GK68d4eFHdrB3X5JyGSZahDas/gQgpWDnzgQH336B8zYs5MbrT2fZ0m4CAesbjzOtvb0FQ9rrMicljI6UyGZUM6Nmp4J5lhlPl8jmSrYei4UQGEaF3t4Pv4zxfvx+Nxd//FRWr4rx1NP7+dlju4knchiGC3OZotEQkvV/IyiWDF56+TA7dg6y8aLT+MLn1zJvbtT2Nc+EaKufYEBQKNjpMgcIDyOqy1zTa753sPKB4vEM5Ypus6ucwO930xeLTsp4KE0T9HSHuOmG0/n2t67hC59bTTTsxVze0LC6vCGljpSS1EiJn/5iD3/9jSd46OE3GW3CYGprDdDd1YL1tfgJkuFUnkJRLWc0MxXMs0itZtA/kKZWtdYJboIQGsGAl1hveFLn9vl8bk49tZM//8oG/uc/X8lFHzsFt9vO2jO/rfqo1SRHj2e4654t/Je/fZqXXj7UVPW8rVE/3d0hzJ+DnZ+5JJnMMT7e/GvvJzO1lDGL1Go68USWcsVuDbNGMOihd5KDeUIo5OXss+azcGE7l1y8mJ88upO3dsUxTxtKrJ0eNNdnCwXYsrWfI0fSvPird/nCdWtYvTo22d/CpGtt9dPV2WIuQdn41UkpSaXyjI8V6YudfE2hZgsVzLNItaozOJimUrF7xywIBDxT/sHu7gpxxWVLWLm8h39/5TA/+/kujp3ImZtglo4mTxxqEYyMlHjmlwfYuzfOxy44hc98ejUL5rdN9rcwadpaA3R1tiAQNn5z5h+15HCO8XTzLeco71HBPIvoulnDXKtJmxtImhnM09CGUwiYP7+V6z+3hrWre3n2hUM89fQ+MjkDQ7da8md2rxNC43h/gR8/uocdu+JcevFpXHP1CkeeHgwEvL+zlGGHZGg4x9gsKCM8malgnkXKlRoDiQxCaDa6lZnNi6JRP5Hw9AWY1+Ni9ao+FsxvZ/1Z83juhUM8+/zb6IYHaVjr+2GuP1coV9zs2jPC0WNptmzr5/JLl3DZpUscNYJJCLNBlGFUrFfMYS5lFAtCzf9rciqYZ5HR0UJ9aom9Ujmo0d0dmoyDaA2LRv1c+NFTWHxaJ2esjfHMcwfZuj2OpmmW67KlrCElpLOS37zWz8FDI2x9s5/LNi7mnPXzJ/k7sC4S8dMa9ZHOVOq5bH1q9thY8bfHtJXmo4J5ltB1g3gihzSkvT44QiMY0OjtDk3WpVkS643wmU+vZsWKXl781Ts8/8IhjvfnmJjCbYU0qkgEiaTk54/vZ/eeIT52wUKuvHwZpyxqn9xvwIJI2E9fLEI6k7L5SgajYwVy+QrhkG9Srk2ZXiqYZ4lqVWdgMG2WiNmsyIiEfMR6nLGjv3RJN6ed2snpa2L86t/f5cWXD5PJuDFsTU+pAhrvHE5z8J0t7Nw9xOWXnMZFHz+VttbAZH8LH1o47KU3FmH/2/aCWUqDkZE8w8M5FcxNSgXzLFGp6MTj5safHRqCUNhHT8/M3jH/LpdL47wNi1izuo+1a+fwwguHeGPLcSq1ifFWVjYIDQy9jBAaW7cn2X8gyY6dcS7ZeBrrz5qHbwa614VDPnom5UlFkhopMDJS4JRFHZPwesp0U8E8SxRLNQYHs9RqBrZ29oVGOOyntzc8adc2WUIhH1dfuYyz183l2RcO8tK/v8uOnYNomq9+F9x4QJvTU4pkc26eeuZdtr05wGWXnMrHLvgIa9f0Tf438QEiYT+93ebPXQjrR7MlkpHRPKlRNc2kWalgniWqVZ3+wbS5iiHsLWW0BL10dzsvmCf09Ia59eYzOOvMuTz1ywNseuM4h4+kEcJVn95toYLDqKFTI57Quf+hnbyxpZ9rrlrKOWcvmLb1Z4/XRW9vGGmzmhlpMDpaJDWSn7yLU6aVCuZZolSqMZTMIYTL4torgECi0xr1E/A7/62xfFkPy5f18Pqmozz+1D7e2hEnOVzCzgbhxPSU/QdG2Lf/12w4dz7XXLWcs86YZ57Mm2Lt7UHcLtBtnCaXUlKtuhhJqWBuVs7/9CkfSmokT+G3pXLW7raEEAhRcdT68oex4dyFnHHGXJ5/4RBPPr2PPfuSFArv9dFonERKc4Nw0xsDbH9rkE9cvpTLL13CiuXdU7qhFgp6ifWE6B/MYqcFqNDcjI+X0HWjKbvtnezUb2wW0HWDeDyLxFqfifcIomG/o5cx3o/P6+bqTyzj//77K7j1xtP5yKIILhdomhcsTws3kLJGuVTjsScO8H/+3S954KHtvHtktL6WP/kCQQ+x3ojNXieANBhPlxgdVQdNmpEK5lkgn68QT2TsVclhdpVrjfqn5ZF9qnR2BPnKnefw9//X5Vz7iWV0dXhBSpvjrSSGUWNkrMA992/nm3/zDI89uZdkMjeZlw5gNo+KhRECW4dDJGYwDw1P/jUqU08F8yxQLNZIDOUsd2b7LaHR2hqo92xobsuXdfNf/24j/+3vNnLB+QsJhzz1pRqb460MnUPvjPJP/8/L/P0/vcRrrx8lk5m8vhQtLV5isYmufjaqa6RkfLzI8LBaZ25Gao15FsgXygwMjJvDSe1UyqERbX2vZKvZaUJw/nmLWLOmj+dfPMSjP9vJ4SPjlMuCiSGvjTPHYtVqgt+8eow3d/Rz6cWL+fxn17BoUbvt+ueA30NfLGrrNcBcXx8fL5IYyth+LWX6qWCeBYrFGgODGcxZfTZeSGi0RgJ0dFib8+dU4ZCPT16zgvPOWcDjT+3jF4/tITlcQDfqP66GA7revU8IcjnJY0/u47U3jvLJq1dy7VUrfueOt3Fut0asx/z3hmGnz4VBOlNiWFVmNCW1lDEL5PMVksP5+pqk1WQWYFRpaw3MSPOiqebSBL29YW675Uz+5VtX8+lPLicS9iLQrI+3kubds2HA0FCRB36wnW9880kef3If2WzZ8rV2drQQ9Lux81dWSgOJd0rWwZWpp4J5FhgZLaDr9nb+hBB4PAYdHTPXK2I6+Lwuli7p5utfO59//scr+eh58+rjrTTLA2zNsjyDcsVg/9spvvUvr/B//M0z/PqVw+byUqPX6HfTG4vUl1rsdArUyGTKlMtWW8AqM0UtZTS5crlGYig7Ca+k0dYWoLOJKzIaEQr52HDuAk47tYPNW0/wb4/sYM++YaSQ9SZQVqZ3m+Otsvkar286zqFDKc47dwHXfXYNq1b0fOhX8npd9MWiHDw0DGjWS+ekJJcvMzScY/7cVmuvocwIFcxNLpsr/zaYbS0vC0FHewsd7SdHME/o6grxiSuWsnxZD8+9cJCfP7aH4VQJw9CxOj1F1rvXjYyWefKZt9m9N8EVly3lM59aRUf7n34i8Xnd9MUiuN0atZqNkjlpkE6XSCSyKpibjArmJpfLVRgaqq8j2honJWhrC9DRcXIFM5h/lE5Z1M4tN63jrDPm8vQv3+apZw9QKU9UbljsXmcYCOHi8NEMDz70Jpu3HueqK5Zy5RXL8Hld7/sv/X43fX1h3G63zYMs8vffH0rTUMHc5LKZMolE1l5zfEDgorOjhc5ZVpHRiJaglzPPmMuCBW2sP3seTz2zj9+8dhRNeKw3R5I6SJ18AbZtH+Lo0TE2vXGMa65axvnnnfJH/43P52JOLIrLJepd5qx9P1Ia5HJlEglVMtdsVDA3uWy2RPy3HzwbFRlC0N4eIBxWjdW7Olu4/NLFLFvaxYZzF/DkMwfYt38EAbabI6VGJc+9eJgDh4Z5bdMJrrlqGcuWdv/efyuEYE6feaTcDikNCkVJfFL2IJTppIK5yWVzZTKZCvZWmMEwKrS1BSzX385GC+a3sWB+GyuW9/CbV47yzC8PkBgqY1BFGhabI9XXn4+fKHD06Jvs3TfEhRcs5IpLl/7eVPLW1gAtIR+ZTAHrzYwMJH6SSVXL3GxUMDe50bEiEjdIa4NKwawSCwQ02tpO3mWMD7JmVR/Ll/aydnWMF3/1Dr/69Tvkcl4Mo2x7esquvSPs25/gzR2DXLrxNC48/xRaWwMEAh5iPRHig1lbTfOF0EhnimSyZSLqaahpqGBuYoVileRwHrt3y6DR0x2a0Xl3TufxaHz0/EWsXh1j3el9PP/iO2x64ygGPgzdzvSUElXDxWub4uzZM8Sbbw1yxWVLWLakm1MWtrNr96CtygykQbFYZXAwQ2RJl/XXUaaVCuYmNjZWYCiZZTKCubuzhdaofzIua1aLRvxce/UK1q7u47kXY7z863fZtz+FEO76OrK1DUKp66QzHh578iC79iT4+EdPQdcNfF43tZr1rvkSg0KhSjyeZsniTlsd65Tpo4K5iY2niySTWZu9ewUIc8NLLWV8eAsWtPHlL57N2WfO5Ykn97JpywkG4yCE3ekpcPhImsPvbmPO3DDVqtV66jopKRSrxBNZDEPicqlgbgYqmJvY+HhpUpYyBBpdXSHa29RSRqPWrulj9aoYL7x4iKef3c+OXUNkMqJ+TNvaUWhZr+AYGMjabuUqpUGhUGEwbvcPuDKdVDA3sfTvBbO9u+aurhCBgGeSruzkommCyy5dzLnnzOepZ/bz/IuH2HdgmErFh5RVG+1FJyNIJeWypH8wja2esMq0Uk2MmthYukSxhO0PsCZ02tUyhm2RiJ8brj+df/jvl3HD59cwb14LAmmOt5qhUJRSIoSH5HCuviyiNAMVzE3KMCRj4wU0YfMUghBEWz2Ew97JuTCFuXOifP1r5/NP//0yrrpiKZ2dfkAghJ3xVlZJhBDkcxXGxtT8v2ahgrlJpTMlUqm8zQGsAgHEesJEI6oiY7KtXNnLf/uvl/I3/+VjnLt+LuGwGyFcNsZbWSOlpFzWGYynp+1rKvaoNeYmNTJSIJUqWJi+8Yd6esLqKPYU8Xg0LvrYRzhjXR/PPn+QR3+6i+P9GZvjrRplUC5XGYhnOF03cLnU/ZjTqd9QkxodzTMykqvfMVskzP/X2xMmou6Yp1Q0EuCzn17Fv3zrGm6/eR29PQGE0Kbl7llKSbmiMzCYsdmtTpkuKpib1OhYiZHRoq07ZlEPhO7uEOGQumOeai5NY+6cKHfcdhb//I9XcsnFpxAIaPXp3RbHW30oknK5ymA8Q9XGYRVl+qiljCY1MppnZGRymtP09ITxfkB/YGVy+Xxu1q7p45RF7bzy2lEefuQt9u4bnrI6Y4lBrSoYHMxiqBvmpqCCuUmlRvLohhcpS7Zex+OG9ja1jDETIhE/l1+6mHVr+/j1K0f4yU938O6RsXr/5UkMaSkRmofEUJZqpQaopyOnU0sZTahWM0cGCc3Or8/sWNbdFSIUVB/UmeJyacRiEa64bAlnrJs7pV+rWKySGilM6ddQJocK5iY0MppnbLxoc5QUgKRvToRAUJ34m0mDgxnuuX8Lr246YfsI9vuT1GrmBqCh1jMcTy1lNKFkMsf4eMlWqZVAIJHEeiO0tKjDJTNl774h7n9wG6+8fpxyeeoCU0pJrWYwMJimWjXw+dQ9mZOpYG5CyeH6HbOdrmMIhDAPl7QEVTDPhM1bT3DPfVvYsn0QgbDcle7DMYM5nshSLuv4fOqj72Tqt9OEUqk8Y6MF+7v4QhCLRQiqpYxp9+wLb3P/g9s5cHAEkPVhr1NJUq0aDA6mqVTVBqDTqWBuQslkjlzWatey9wgp6e0Nq5Ng00jXDX72i93c/4NtxBMlkNKcpD3FzD/igoH+cSoVVcvsdCqYm9BwKo+BB7DXlCYU8qlxUtMokynz8CNv8eNHdjCeqSFlbRp7JEsQLhLDeYqlqVwyUSaDCuYmUyrVGM8UQdgrlQOD3t4IAb96C0yHoWSOBx7cxqM/3021Rv0uuZFQtjop+/dfo1SsMjJa5COLbL6UMqXUp7LJxBNZctmKvaPYwgzmuXNb8algnnLvvJvinvu38MtnD4EQDS9dCKFNzqETKZESBgfS1NbEcLvVaU+nUp/KJjM0lCWbLSNtVmS4XBqx3hB+v9r4m0rb3xrg3ge28fqmfjNWGw5lF0IYLD61k3SmxFCyYGNNWmJISTyeoVisEg6rYHYqFcxNZihpBrPddp9ul6AvFsHvUx/OqVCp6Lz2+hHue/BNdu8dsTBB22ys7/fDZZcs4ewz5/PEU/tIDldsBbOuSwYTGUplnXDY4ssoU04Fc5NJDGXJZO0dLkEIyRF5EwAAIABJREFUNJdgTl9U1bNOgWy2zHMvHOSBh7bTP1jAMMoN/fuJdqCRsJtPXbuSO249E5dL8OzzB+ttQq2TUpKI5ygW1Qagk6lPZZMZGsqRL9j7UAkEbrdGb2+4vt6sTJbx8SKPPLqThx/ZSTpTwzAqDf17c+lCo6fbz/XXreH6z60lEPBgGJJo1G+rM+hEyVz/YJqCzfeQMrVUMDcRw5AkU3mE5sfQrZfKSSRhVSo36YaSWe57YCuPP7mfYlkiGzzJNxHKpyyK8KU7zubyS5agaWYSa5qgvT1Qf02rFRoSIVwkUzkKhcb+YCjTSwVzE0lnSmQypd82uLdECJAGfbEoHo86WDJZjhwd5dvfeZVfv3IUXRdI2dhJPiFcCM3FmpVdfPXL6zln/YI/+G862oN4PQblirBV/1yt6Ayn8vUJ2uqJyYlUMDeRwcEMhULFVkWGQMPthjlzIng8auPPLilh99443/7fr7F1ez+gWQplt9vFeRvm8dU7z2HZ0u4/+t91dYVob28hnihgvU+KuZyRSGQpl2uqKsehVDA3kUQia64N2qrIEHi9GnP6Injc6o7ZDt0wePW1o/y/336Fw0fG6k8jjZfDuVyCa69aype+eBZ9vZH3/W+7Olpobw+SGCrZ6vgK5rJLLl9RwexQKpibhJTm4ZJCoWprAKsQAq/HRaw3gterfv1WVas6v3zubb7zvTeIJ7Lm/9jQH0yB+UdScOP1p3PbzWfS2vrBk2Q6OlrMfQEbyw8TSyDxRJZ8vkJnR4vl11KmjvpkNglDGgzE0+QLZZsHwARuj4s5fRHc6o7Zkmy2zKM/38X9D24lk504Wt3g8WohaG/zc+cd6/nUNSs+VIe/jo4A7e0BxCTMt4gnzDtmxZlUMDcJgSCeyFKtgq0+zELgcQt6Y+p0gRXDw3ke/OF2fvHkAXI53VrPCyGYOzfCn995DhsvPg3/h6wlj0YCtLUFbd0xm82MNOKJjHlQSXEkFcxNolqtMZzKIYQHw7A6gFUgpUFr1E80okrlGnXwUIr7H9zCv79ynEKxhmywh7IQGiBZvaqHP7vzHM45e35DLVeFgLZoAKlXsNPUSACZTJV0xt4gX2XqqGBuEqmRAvlcBWmjVE4IgUAn1hvBrXowN2TzlhPc9+BWtr05iK5jqUZZSoMLP7qIL3/xbFatjFm6jvb2AMGgRr5gWC6Zk0ik1BgdVYNZnUoFcxOQEgbjGUql2iRUZAj6+qKqfrUBL/7qEPfev5V9B0ZByIbvlDXNi9ulc81VK7n5xjNYtLDN8rW0twfp7g5x5Gja8msgQWKQTObJ56u0tKjKDKdRwdwEDMMcolku17CzviyERsDvIhZTG38fRq0+beShh9+kvz8HSKTRWDmc5vIRatH4wudO53OfWU1XV8jWNbW1BejsbOHosWy9X4rVnWDJUDJHOlNUwexAKpibgK5LBgczlMp2J14I/H4PsVjkt0d9lT8un6vwwx9v599+spOxMfMPYmONowSa5qOny89NX1jDp65dSShkf+hte2uwXuJm//eXTGYZHy/SF3v/2mllZqhgbgK6bjAYT1MqTfRJsEYIDb/fw5xYxN7G/iyXSGR54KHt/OKJPZRK1E/yNdiyU/Ny2qlR7rhlHRsvXjxpx9872oN0dbbYr8zAnLauNgCdSQVzE9B1g8HBLIZhN03NO+Y+VSr3vg4fGeH792zm6WffRtNcFpYLNDTNzaqVHXz1y+vZcM7CSb0+n99N16TcMRskk1nSaXtzI5WpoYK5CZTKNYaTBYRwN9xG8j3mSKO21gDh8AefMDtZ7dw1yN33buGV108gNK3BhvSiPgLK4PwNc/jKl85h1creKbnO1rYAmtBtzbCREkplQTqtapmdSAVzExgezlMoTdSuWmPW0Nbo7Q2pZYz/wNAlr7x2hHsf2MbuvSlLh0aEcOHxwOWXLOXOL65nwXzrlRd/SiTiIxpxMzqm29pzEMJFarSAbkhcas/BUVQwO5xhSAYGM1RrBrZO/CFoaXHR02OvKmC2yecrvPTyIe7/wZscPZZD1xudNiIAN5GIi2s+sZw7bjmLjs7g1FxsXTQaoLc3yuhYEjsHTSQGIyN5MpmS6s3tMCqYHa5SqRFPZKhWddvNi1pafPTFopN4dc1tZCTPY0/s44c/fouxsZqFEVBmY/uuTh83XH86X/jcmmnp1haN+OntCbNv/zC2GqdISSqVZ3S0qILZYVQwO1ylotPfn6ZaNbDX61EjFPTSq+6YARhK5njgwW384sl9FEsSaWEEFAhOWRjh5hvXcc3VK6ZtOSAa9dPdbbcrnERiBvPYaAFOaZ+Ua1Mmhwpmh6tWDeJx847Z7hpzS4uXuX3qjvnI0TG+d88mXnzpXWo1LDS2d6NpgjWruvjSHWdz/oZFU3Slf1wk7KOnO4TZEAkbZ0wMhlN5RsbV0WynUcHscJVqjcFEFrOqwsYdsxC0BL10d5+8d8xSSnbtifPt77zOlm0n0ISrwcoLM5S9Xhcb1s/hK3eew/JlPVN0te/P43HR3dVi5rIUNpa4JKNjRdUzw4FUMDtcoVAlmcyBcIG0OtlYII0q7e3Bk3aclK5L3th8jP/1nVc58HYKQaPlcO+F8tVXnMaXvrh+Rk/MtbUFcbkM9MZu9n+PlBLD8DI2pmqZnUYFs8OlUnnKFRufPsxlDLfLOGnvlqtVnad/eYB/vet1EkMFzOf/xo5XC6Hh8wtuvH41t910JtHozNaCh1p89HaH6R/IYGdqNkJjdKyIrktcLlUy5xQqmB2sWjUYjGcwdAOkvcnY4YiPnu6T78RfsVjlJz/dxd33bSaTnTha3WBjewRtbT6+8qX1fPKaFQQcMCevJehhTixaD2YbpMHYeJHUSL6+bq04gQpmByuVKsQTWXTD3uRNgUY04puEnfzmMjJS4MEfbuOnP99DvqBj3iU3drwaYO7cCH/5Z+ey8aLT8HqdsRTUEvLR22v+oRXC+v6DlAZjYwWSwzkVzA6igtnBisUqg/E0hs1gRmhEo/6TqlTu6LEx7r1/Ky/86jDFom6h8sLsk7FqZQ9f++p5nHXm3IamjUy1UIu3HswSe30zJKOjRYaH85N0ZcpkUMHsYKWSzsBABsMAhI3DJWiEQz56ek6O9o5v7Rzk7vveYOvWBJWaYSmUweC8DQv4y6+cy4oVU9Pzwo73ghnsBLOUBqNjBVIjKpidRAWzg5XKNQbjWVuPqmA+6kajAdraZv/prhdfOsT9P9jGnv3DIEXjoax58Lgl13xiJbfefCYL5rdO0ZXaIzRBX2/Y9iQaKQ0y2QrDKRXMTqKC2cHy+TIjo3karyJ4j0CgGxXa2gOzulGNlPCLx/fw4A+3c+x41hyf1GAoa5qXcNjFFz63hus+vcr2tJGp1toaoDXqZzxdxk5lhsDL6KgKZidRwexgw6kClYpef7S2SGj4fbLew3d2yuUr/OjHb/HoT3eSGqkgpd7gtBHMaSPdPm69aR1Xf2I54bBviq528gT8Hnp7woyNl2ydABRCYzxdolCsEgzMfMWJooLZscrlGvH4RCmUvWWM9tb61ItZaDiV594HtvD4U/spFAyQjY7fMkdAnXZqlDtuXcdFHzsVn685PhY+n4tYb5i3Dw4jsX4C0JAG6XSJZDLLwgWqZ4YTNMc78CSUzZWJJyYOD9ih0dYeoKNjaltRzoTDR0b5/r2bef7FQ+i6sNBHWUNoHtau7uTLXzyLDedO7rSRqeb3e+jri+JyadQaO8T4+6RBNlMmMZRTwewQKpgdKp83a5gBext/aLS1Bmbdqb/du+N8565NbNo8AFhpRORCIrnw/Ll85c71rJiBnhd2BQIeYr0RhCbARjBLDNLZEolEbvIuTrFFBbND5fNVEkNZ+y+kCdragnR3zY5Tf1JKXn3tCPc8sI2dO4ctTxtxaZJPXLmML99xNvPmObPy4k/xel3EYiE0DXM4q+W/3wbj40WGh1UwO4UKZofK5yv0D4xPwisJ2toCtASbf1OnUtF57oW3ue/B7Rw5lsOQVRpJIyEEQrgJh9188uoV3HrTOjqbeO1d0wR9sUj94Iu9hvmloqwvnSlOoILZobLZErlctV7DbHWklABZpb2t+deXx8eLPPH0Pn748A6GUxUMvdTQvxdCQwgXXZ1+bvjCWm64bi0+f/O//SMRc7huoWC93E1KiebykhopYBgSbRaXVTaL5n9nzkKGIc2Cf+ECy6E8MU5Ko729uYM5nsjybz95i0d/vptigYYnhQthvs0XLYxw8w3r+NS1K2wfzHAKr0djbl+YoaFsfTnDapc5s+wwkynT2qqmqM80FcwOVChUSAzlzEMSdh5R0ejqDDX1HfPhI6Pcfe9mnnvpELquIY3GelILzY0mzGkjd9x2NhecP73TRqaax+uiLxZlx644um7j/SINcrkyA/G0CmYHUMHsQJlsmaFklnoyWycEnZ0tTTtoc9fuON+9+w1ee/1ovalQg6Es3HjcLs7fMI877zibFcubr/LiT/F6XcT6wng8Grpu/c0ipaRQqBBPZJqyQmW2UcHsQOl0aRJ2yAUCQUdHS9PVMOu65PU3jvHt77zK24dGQFibNhIMeLlk40K+dPt65jdp5cWf4vW4mNMXweNxUSob0ODP6T2GWQkUn4RKIMU2FcwOlE5P1JTab/fZ1RGkrYkeTcsVnRdeOsS/fm/T7zSBb3TaiItgwMUNn1/JzTeuo7VJnxg+DI/HxZy+Vjxul42zf2Yzo1y+TDyRRUo5a9bgm5UKZgfKZEsMjxTqHzM7h0ugsyOI3wETNz6MQrHCT366i3vu30omU8HStBEhiEY93HnHej7zyZUEZ0GZ4J8S6w3j9bqxdcoESbki67XzKpRnmgpmBxofL1Is2VxfBgy91DTry2NjRX7ww2386Mc7KFcmArnRaSOSeXPDfO3Pz2fjx0/F7XZOY/upFA77iLb6SSQn5hk2/saR0kBzBUgO56lWdcdMajlZnRzv3Cai6wajo0Xbj5JCCDo6g0Sizg/mE/3jfOt/vcIPH9lDuYKlnhdgsGRxJ3/7zYu49OLTTppQBnC5NGK9YYTUbb1vBJJ8vqymmTiAumN2mPF0yaxhttEfY2KAaG9PhGjE2e0r9+xNcNc9m9m0eYBq1doIKDDYcO4CvvbV81m2tOukWx91uwRz+yJ4fW7KZYnV3t1SSsrlGgPxDHPmnBzTbpxKBbPDjI4VGB7J0/ij/B/q7grR6uA75l+/eph77tvMnr0jGIa0EMpuXG7JZRuX8NU7z2W+Q6eNTDVNE8RiEXw+F5WKbuNvukGpVKvPmZyjTgDOIBXMDjM2ViQ1nLPVUc4k6O5uIerAigzDgMefMKeNHDmeASkbLofTNC8tQY3PfnolN37hdLodPm1kKrndLvr6ovh9brJZ6ydFpZSUSmYfcF1XR7NnkgpmhxkfK5JKTdwxWyTMNeaenjDRiLOCOZev8KOH3+LRn+8iNVIGaTQ+bcTlo7c7wM03rOWqK5cRjTrre5xuWn3+n9/vBtHYU8fvk+Zk9sEshmGgtqBmjgpmhxkZK5AaLdpoXGQeLZFS0t0Vqncec4bhVJ57H9zCE0/uJ583gEanjZgjoE5ZEOH2W8/gkotPbZpSwKkWi4Xx+TxA2fJrSGlQMzQGEll0w+4Tm2KHCmaHGRsvYkgP0Fj3tN8lAb9fc1Sp3LuHR/j+vVt46eV3qFatVF4INM3Dmaf3cNst6zj3nIW4XOpRe0KoxWdOQZfjNqaqSzTNxfBwjqKa/zejVDA7SLlcY3S0gBB27nLNDmPdXS2EWryTdm127Nwd51+/v4lNm/rrDdAMGgrlesvO8zfM4at3nsOKFb1Tdq3NSghhlsyJfqTUsH7YRFAqVkmN5Olo8q6EzUwFs4OMjRUYGyshDevLGBPnC/p6wo4I5t+8cpi779vKrr0pQDa4RCPMPsqa5KorTuOLt5/NogVtU3WpTU0Is2l+MOAhX7BRmSENqjWd/oE0p57S4ailsJOJCmYHGU4VGB0tYLUO9Xf19oZpCc5cMFdrOs88e4D7HniT48ez9Xadjdwlm9NGgn6N6z6zkltuOoPOjuadNjLVhDCPZre0eMkXrC+DAdSqOoODGapVQwXzDFHB7CDDqRyjY/YqMkS9lU1PT5hQeGYOl6QzJR5/ci8PPbyL4VQJw2hsQ0oIDYSLzg4vN12/js9ft+ak6HlhV28sUv85NTZI4HdJKSlXdOKDWao1Hb+KiBmhfuoOMjycJ5Uq2KrImBCLhQnOwFJGPJHhx4/u5Cc/20OxIC2EsgshNObPC3PHrWfyyWtWTNGVzj59sQiBgMfmHoVBtSoZiKep1ey/DxVrVDA7SCqVJ1/QsbeUIRCapLcnjGuaDwgcPjzKPQ9u4dnn3kY3XJamjSAlq1Z0ctvNZ3LxRadO0ZXOTt1dLYRCXux0h5NIpNQYGMyoYJ5BKpgdZGQsj9C8GLWCjVeRRCM+Wqf50MVbOwa49/6t/Oa1owihNTxtRNM8eNwaG86Zy+23nsnaNX1TdKWzl8/rpr01UP+DaK3LHFIiNI3hVJ58vkJXE08Rb2YqmB2iWKjWexDbYdavzolFzFNg00DXDV7ddJTv3vUG+w8M12toGzxeLTwEgx4uuegUbr/lDBYubJ+iq539enrCuNwGsma1ltmM9GpVJ5nMsWB+60nXFMoJVDA7xFAyRzpTsj0VGyS9vWEC03AirlSq8fyvDvK97282p43IxhvbC+EmHPLy+c+t5MbrTzcPSSiW9fRECId9jI1XLL+XpJToukE8kaVWk3g8Kpinmwpmh0gks6TTJdvNi4SAvljrlN8x5wsVfvLoLu59cCuZbKXxUBYC0GhrdXPn7Wfx6U+tJKBOmtnW2xMiGvEzPl6zUdsjMXQYGExTKlfxeJzdOnY2UsHsEImhrHnHbHPjz+USxHpDUxpy4+NFHnhoe33aiG7hTtmsGpg7N8xffXUDGy86uRrbT6XenhDhkBdsVWZIarokHs9SKlUJh1QwTzcVzA6RTOZIp+01LzKXBiR9cyJT1tznRH+au+7exC+fO0RNlw0/LpulXJIlS7r4xl99lLPPnKfaS06iWK+5lCFsVWaYewcDA2nKZTtzBBWrVDA7RHIoR6kkkXbumAW43YLe7vDkXdjv2H8gyXfu2sTrb/Sj6433UDZrlA3OWT+Pv/7Lj7J08ck3bWSqtbUFzWC283OVEiE04okM5bKdNqKKVSqYHSI1kkNoXrBcKmc2L+poCxOeghN/r7x+hLu+v5k9+1NIw7AQym7cbsnGixbzF3+2gfnzTs5pI1NNCGhvD6LrFSyXzCEBF6mRPLmc9TaiinUqmB1gZCRPLl+11xt/oiIjFsbjmbwJx7WawZNP7+P+H2zl2PE8YCGUNQ+hFhfXfXoVt9y4jnbVtWxKdXeF8Ac0SsXGn2reI6nWDJJqMOuMUMHsAPGhLLlcGWm5VSOYG3/QFwvj9U7Or7VQqPDIozv50SM7SKXKgN74tBHNR3e3l1tuXMc1V60gMkP9O04mXZ0hWiM+hkolG8FsGoxnKJaq01J+qbxHBbMDJIYm7pjtTcb2eARz5kTx+ezfMQ+nctz3wFaeeuYAmVyt3oq0sVB2uXwsWhThjlvOYONFp03boZeTXXdXiPb2FoaSdg4sSaQ0gzmfr6hgnmbqk+IAiUSGXL5sq4ZZiIlSuTA+m3fMR4+Nctfdm3nx5XeoVAXSsDJtxMu6tT3ccdsZrD9rviqHm0bd3SGiUb+tDUCJBClJJLIUClXomMQLVP4kFcwOkEhkyGVL2Gk+AwK3R2NOX9RWCO7cNchd92zh9TeOIyVI2eiuvIbQXFz40Xl86fazWLVSTRuZbt3dIVqjvvohHoskgCAez5LP220VoDRKBbMDDCayVGua7fVAn8dDrMd6qdwrrx/hu3dtYu++EYAGr0cgNBdS6nzymiXcfsuZLJyvpo3MhJagh/bWIEh7h0yE0BiIZygUG2tIpdingnmGlcpVRkbyaJoHXbdWM2o2DjJobQ3QYqEHc03XefbZt7n3B29x5Og4SN18lP3wV4AQbgI+weevW8vNN65T00ZmWGubH2TFxmBWUzZXIZNRJXPTTQXzDEsm8+Yani0aQtSYMyeMq8FljEKhwk8f280Pf7ST5HAZo8ERUEJoCFx0dvm5+YbTue5Tq2akQb/y+zo7Wmhp0cjmrNYymwSC4VQOXVdjpqaTCuYZJKVkcDBDqVSzd+IP8HrdzIlFGlpfTiZz/PjRHfzkZ3vJ5XXr00bmhvji7Wdz7dXLG71sZYp0tLfQ1Rkim0tjd4bk0FCOYrFKSPXMmDYqmGeQYUjiQ1mKxYrNUjkNv89NXyyKx/3hSuXePTzCQw+/yRNPHcAwNAyjsQ0eoXlAGqxY3sEXbz2Liz6upo04SXt7kI6OFo4cy1h+a0kkAsHQUJZsrqKCeRqpYJ5BUkI8kaZQrNq6YxZC4PW66OuL4HL96Z34nbvj3H3vZl557SigIWVjoaxpXlwuOO/cBdx285msO32OxStXpkpXZ5COjgATnfwskYCQJOq9wmO9U9ODRflDKphnkK4b9A9kKJVrto5jg2YGcyzygbWrum7w+qZj3H3/FnbuGsKceNLgtBHNSzDgZuPFC7n9lrNZtFBVXjhRW1uQjo6gzfafpkQiozYAp5kK5hkkJcTjOfSaBjaOYwsBgYCH3g+4oymVajz/0kHuvncLx09k60erGzw0Ity0Rn188pol3Hj96XR1hSxfszK1fD43He1BhHnbi9VmRhJBcjhPNlua5CtUPogK5hlUKFRIpXII4cIwrLZXFBhGjfa2AMH3aY6fzZZ57Im93PfgNkbHSo2HshAI3LS3+bj91nV85lOrCAbVEV2na28NQIPLVH9ASsplwfh4cXIuSvlQVDDPoEQyS6Vi71CJEBpul0Ffb/iPLmOMjRe5/8FtPPzIDqpVC93GhAYI5s5t4S/+7DwuvfhUdby6SbS2tdDREWQ4VbB93H9ktKBK5qaRCuYZYhiSgYEMlUoNewvMgkDQTV9f9A8mgQwOZvjevZt5/Mm9YGgNd68TwoXEYNmSTr7x1xew/qx5Nq5TmW7RVj9d3SGGU0WsL2cASJLDOcbTJTpUy9ZpoYJ5hlRrBvF4lkpVt1mRoRHwe4j9h42/AweTfOdf3+CV148hZeNr2GaNsuSsM+byjb/6KMuX9Vi+RmVmtEb89HSF2EfK1utIJMlkjrGxggrmaaKCeYZUqzrxRH0pw04NsxAEg+bGnxDmnfjW7Sf4/767iT17hs315IZ6KAuE0PC4JZduXMxffHUDc/qi1q9PmTGtUT9dnS31Y9lWX8Wc6zg8UmA8rTYAp4sK5hmi65L+gXGqVR07XeUEGsGgl/nzWtF1g+dfPMR3v7+JY8ezmNNGGg1lF8GA4FPXrOTLX1pPa2vA8rUpMysa9dPTHcJe10IASWo4R1oF87RRwTxDqtUa8XgGKTVbk7ElZs1qMOjh3x55ix/86E2GkiUshbLmpqvTz42fX8t1n1mlTno1OZdLo6urxdbGH5itA1KpAuNjKpiniwrmGZLPVRkdLZgbbFbbfQoNt1ajVjV44Afb+dlju0mna5gjoBptbO9h4YIwd9x2JpdctJhAQL01ZoNIxIfPKylVhI0lMwman5Exq4OClUapT98MSSazlKuNttf8D6RE0wyOHRtj9544haJu6eCIy+Vh9apuvnjbmZy7fv6kDnNVZlYkbFZm9PdnkLYqM2BkrECpXMPvU7Ex1VRR4gyoVnX6B9LoumGzeZGkUjVIDufqodzoCCgNhJuPX7iQ//T187ng/EUqlGeZcMRHLBax/TrSMBgbLTA6pg6aTAcVzDOgXK4xmMiawWyvSQaGIdGNxg+OmDXKcO1Vp/FXf34uq1fGbF2H4kzhFh+93fWj83ZGTSEZGckzkspPynUpH0w9k8yAUrlGPJ5G1+2F8nsanDaiufD7NG74/Bq+8Pm1dKueF7NWKOSlt8f8/do6YiINRsaKpEZUME8HFcwzoFLWGYxnqNUM7JcyNUAIhPAQDbu59eZ1XH/dGkujqJTm0dLipbfX/lIGSEZSOUZUME8LFcwzoFypcWIgY68io0FCuEBozJ8T5PZbzuKqTyzD61XrybOdpml0d4WQGAgbK5dSGuTyOqkRVZkxHVQwz4BstsLY2ET/gqk3Ecorl3Xw5TvO5sILPzItX1dxhmjETyTsJ5u102lOgvCqzb9pooJ5BgyP5DCMiT65dkz8+/dfORTCjd+vcf55C7j9lrNYuVz1vDjZtLUGmD+vlT17zeEIdjacM5kStZqhOgxOsRkJ5lrNYGy8SD5fQUr5gVM3ZhVhNqzfvSeBYdhfX/Z4NNxujWLx/aZsC0IhL8uXd3Dl5UvpaA9y9NiYra+pNBehCQbj6fpegjQrM6zOADTM/i6vbz7Ggnmt9io9m4yuG/j8btpaA7QEp35fRki75zUtGB0t8OQz+9iyrX+6v/SMcmmCcqXG8RPjDAykMasVrf34hRAEAh7cbq0+9ucPX0cIjbY2H0sWdxMOeSmVGz0RqDQ7t0ujUKxy4kSaeGJiMKvV95xGS4ubUxZ10N4WxJDypHk/SSno7W3h6iuXc/qavin/ejNyx1wsVdm3b4hXXzuBEPZ6RTQfWf8/e4+UUkoKhcoHvo6UBqOjJd7Y3M+0Vn8oDiPN1rK2e2YY5HJVdu9JcrK9nzTNS2+Pm/VnzJ+WrzcjwSyEQNMEUtYwpzSfTME82f7Uh83C1BJFeV8n5/tJSg232/sHwyimyoyt4J8068qKoswK05lZamtVURTFYVQwK4qiOIwKZkVRFIdRwawoiuIwKpgVRVEcRgWzoiiKw6hgVhRFcRgVzIqiKA6jgllRFMVhVDAriqI4jApmRVEUh1HBrCiK4jAqmBVFURxGBbOiKIrDqGBWFEVxGBXMiqIoDqOCWVG/IktRAAAA20lEQVQUxWFUMCuKojiMCmZFURSHUcGsKIriMCqYFUVRHEYFs6IoisOoYFYURXEYFcyKoigOo4JZURTFYVQwK4qiOIwKZkVRFIdRwawoiuIwKpgVRVEcRgWzoiiKw6hgVhRFcRgVzIqiKA6jgllRFMVhVDAriqI4jApmRVEUh1HBrCiK4jDumfiihiEplaq4XAGE0JDSmInLUBRF+VA0zUu+UKFWm56smpFg9vvdnHZqF0PDeRXMiqI4nqZ56O0J0NERnJavJ6SUclq+kqIoivKhqDVmRVEUh/n/AWy+XL3qx2ODAAAAAElFTkSuQmCC;" vertex="1" parent="1">
          <mxGeometry x="-810" y="360" width="99.44" height="150" as="geometry" />
        </mxCell>
        <mxCell id="VZeYl4B-hOs3PQ_AsOoh-6" value="&lt;span style=&quot;color: rgb(51, 51, 51); font-family: Helvetica; font-size: 17px; font-style: normal; font-variant-ligatures: normal; font-variant-caps: normal; font-weight: 700; letter-spacing: normal; orphans: 2; text-align: center; text-indent: 0px; text-transform: none; widows: 2; word-spacing: 0px; -webkit-text-stroke-width: 0px; background-color: rgb(251, 251, 251); text-decoration-thickness: initial; text-decoration-style: initial; text-decoration-color: initial; float: none; display: inline !important;&quot;&gt;Внешняя сеть&lt;/span&gt;" style="text;whiteSpace=wrap;html=1;" vertex="1" parent="1">
          <mxGeometry x="-660" y="360" width="310" height="40" as="geometry" />
        </mxCell>
      </root>
    </mxGraphModel>
  </diagram>
</mxfile>
